G04 #@! TF.GenerationSoftware,KiCad,Pcbnew,8.0.0*
G04 #@! TF.CreationDate,2024-09-20T11:38:47+02:00*
G04 #@! TF.ProjectId,counter-timer,636f756e-7465-4722-9d74-696d65722e6b,rev?*
G04 #@! TF.SameCoordinates,Original*
G04 #@! TF.FileFunction,Copper,L1,Top*
G04 #@! TF.FilePolarity,Positive*
%FSLAX46Y46*%
G04 Gerber Fmt 4.6, Leading zero omitted, Abs format (unit mm)*
G04 Created by KiCad (PCBNEW 8.0.0) date 2024-09-20 11:38:47*
%MOMM*%
%LPD*%
G01*
G04 APERTURE LIST*
G04 Aperture macros list*
%AMRoundRect*
0 Rectangle with rounded corners*
0 $1 Rounding radius*
0 $2 $3 $4 $5 $6 $7 $8 $9 X,Y pos of 4 corners*
0 Add a 4 corners polygon primitive as box body*
4,1,4,$2,$3,$4,$5,$6,$7,$8,$9,$2,$3,0*
0 Add four circle primitives for the rounded corners*
1,1,$1+$1,$2,$3*
1,1,$1+$1,$4,$5*
1,1,$1+$1,$6,$7*
1,1,$1+$1,$8,$9*
0 Add four rect primitives between the rounded corners*
20,1,$1+$1,$2,$3,$4,$5,0*
20,1,$1+$1,$4,$5,$6,$7,0*
20,1,$1+$1,$6,$7,$8,$9,0*
20,1,$1+$1,$8,$9,$2,$3,0*%
G04 Aperture macros list end*
G04 #@! TA.AperFunction,ComponentPad*
%ADD10C,1.447000*%
G04 #@! TD*
G04 #@! TA.AperFunction,ComponentPad*
%ADD11C,2.070000*%
G04 #@! TD*
G04 #@! TA.AperFunction,ComponentPad*
%ADD12C,1.500000*%
G04 #@! TD*
G04 #@! TA.AperFunction,ComponentPad*
%ADD13C,1.950000*%
G04 #@! TD*
G04 #@! TA.AperFunction,ComponentPad*
%ADD14C,1.540000*%
G04 #@! TD*
G04 #@! TA.AperFunction,SMDPad,CuDef*
%ADD15RoundRect,0.162500X0.162500X-0.837500X0.162500X0.837500X-0.162500X0.837500X-0.162500X-0.837500X0*%
G04 #@! TD*
G04 #@! TA.AperFunction,SMDPad,CuDef*
%ADD16R,1.200000X0.600000*%
G04 #@! TD*
G04 #@! TA.AperFunction,ComponentPad*
%ADD17C,1.400000*%
G04 #@! TD*
G04 #@! TA.AperFunction,ComponentPad*
%ADD18R,1.100000X1.100000*%
G04 #@! TD*
G04 #@! TA.AperFunction,ComponentPad*
%ADD19C,1.100000*%
G04 #@! TD*
G04 #@! TA.AperFunction,SMDPad,CuDef*
%ADD20RoundRect,0.237500X0.237500X-0.300000X0.237500X0.300000X-0.237500X0.300000X-0.237500X-0.300000X0*%
G04 #@! TD*
G04 #@! TA.AperFunction,SMDPad,CuDef*
%ADD21R,1.600000X0.550000*%
G04 #@! TD*
G04 #@! TA.AperFunction,SMDPad,CuDef*
%ADD22R,0.550000X1.600000*%
G04 #@! TD*
G04 #@! TA.AperFunction,ComponentPad*
%ADD23R,1.700000X1.700000*%
G04 #@! TD*
G04 #@! TA.AperFunction,ComponentPad*
%ADD24O,1.700000X1.700000*%
G04 #@! TD*
G04 #@! TA.AperFunction,SMDPad,CuDef*
%ADD25RoundRect,0.237500X-0.250000X-0.237500X0.250000X-0.237500X0.250000X0.237500X-0.250000X0.237500X0*%
G04 #@! TD*
G04 #@! TA.AperFunction,SMDPad,CuDef*
%ADD26RoundRect,0.237500X0.237500X-0.250000X0.237500X0.250000X-0.237500X0.250000X-0.237500X-0.250000X0*%
G04 #@! TD*
G04 #@! TA.AperFunction,SMDPad,CuDef*
%ADD27RoundRect,0.237500X-0.237500X0.300000X-0.237500X-0.300000X0.237500X-0.300000X0.237500X0.300000X0*%
G04 #@! TD*
G04 #@! TA.AperFunction,SMDPad,CuDef*
%ADD28RoundRect,0.249999X0.512501X1.425001X-0.512501X1.425001X-0.512501X-1.425001X0.512501X-1.425001X0*%
G04 #@! TD*
G04 #@! TA.AperFunction,ComponentPad*
%ADD29C,1.995000*%
G04 #@! TD*
G04 #@! TA.AperFunction,ViaPad*
%ADD30C,0.600000*%
G04 #@! TD*
G04 #@! TA.AperFunction,Conductor*
%ADD31C,0.200000*%
G04 #@! TD*
G04 APERTURE END LIST*
D10*
X98000000Y-55000000D03*
X98000000Y-53000000D03*
X98000000Y-51000000D03*
X100500000Y-55000000D03*
X100500000Y-53000000D03*
X100500000Y-51000000D03*
D11*
X99250000Y-58000000D03*
X99250000Y-48000000D03*
D12*
X48662500Y-49337500D03*
X48662500Y-53837500D03*
D13*
X51212500Y-48087500D03*
X51212500Y-55087500D03*
D14*
X90750000Y-61940000D03*
X90750000Y-68440000D03*
X86250000Y-61940000D03*
X86250000Y-68440000D03*
X80750000Y-61940000D03*
X80750000Y-68440000D03*
X76250000Y-61940000D03*
X76250000Y-68440000D03*
X70750000Y-61940000D03*
X70750000Y-68440000D03*
X66250000Y-61940000D03*
X66250000Y-68440000D03*
X60750000Y-61940000D03*
X60750000Y-68440000D03*
X56250000Y-61940000D03*
X56250000Y-68440000D03*
D15*
X76847500Y-56102500D03*
X78747500Y-56102500D03*
X77797500Y-52682500D03*
D16*
X85537500Y-51195000D03*
X85537500Y-50245000D03*
X85537500Y-49295000D03*
X83037500Y-49295000D03*
X83037500Y-51195000D03*
D17*
X84775000Y-53500000D03*
X91275000Y-53500000D03*
D18*
X82580000Y-28500000D03*
D19*
X80040000Y-28500000D03*
X77500000Y-28500000D03*
X74960000Y-28500000D03*
X72420000Y-28500000D03*
X69880000Y-28500000D03*
X67340000Y-28500000D03*
X64800000Y-28500000D03*
X64800000Y-38660000D03*
X67340000Y-38660000D03*
X69880000Y-38660000D03*
X72420000Y-38660000D03*
X74960000Y-38660000D03*
X77500000Y-38660000D03*
X80040000Y-38660000D03*
X82580000Y-38660000D03*
D20*
X59800000Y-51462500D03*
X59800000Y-49737500D03*
D21*
X62250000Y-49200000D03*
X62250000Y-50000000D03*
X62250000Y-50800000D03*
X62250000Y-51600000D03*
X62250000Y-52400000D03*
X62250000Y-53200000D03*
X62250000Y-54000000D03*
X62250000Y-54800000D03*
D22*
X63700000Y-56250000D03*
X64500000Y-56250000D03*
X65300000Y-56250000D03*
X66100000Y-56250000D03*
X66900000Y-56250000D03*
X67700000Y-56250000D03*
X68500000Y-56250000D03*
X69300000Y-56250000D03*
D21*
X70750000Y-54800000D03*
X70750000Y-54000000D03*
X70750000Y-53200000D03*
X70750000Y-52400000D03*
X70750000Y-51600000D03*
X70750000Y-50800000D03*
X70750000Y-50000000D03*
X70750000Y-49200000D03*
D22*
X69300000Y-47750000D03*
X68500000Y-47750000D03*
X67700000Y-47750000D03*
X66900000Y-47750000D03*
X66100000Y-47750000D03*
X65300000Y-47750000D03*
X64500000Y-47750000D03*
X63700000Y-47750000D03*
D23*
X46700000Y-62840000D03*
D24*
X46700000Y-60300000D03*
X49240000Y-62840000D03*
X49240000Y-60300000D03*
X51780000Y-62840000D03*
X51780000Y-60300000D03*
D25*
X77587500Y-59500000D03*
X79412500Y-59500000D03*
X87587500Y-59500000D03*
X89412500Y-59500000D03*
X57587500Y-59500000D03*
X59412500Y-59500000D03*
D26*
X72000000Y-43912500D03*
X72000000Y-42087500D03*
D25*
X67587500Y-59500000D03*
X69412500Y-59500000D03*
D26*
X78000000Y-43912500D03*
X78000000Y-42087500D03*
X66000000Y-43912500D03*
X66000000Y-42087500D03*
X68000000Y-43912500D03*
X68000000Y-42087500D03*
D27*
X80450000Y-49237500D03*
X80450000Y-50962500D03*
D26*
X64000000Y-43912500D03*
X64000000Y-42087500D03*
X76000000Y-43912500D03*
X76000000Y-42087500D03*
D27*
X72800000Y-54137500D03*
X72800000Y-55862500D03*
D26*
X55000000Y-53412500D03*
X55000000Y-51587500D03*
X74000000Y-43912500D03*
X74000000Y-42087500D03*
X70000000Y-43912500D03*
X70000000Y-42087500D03*
D28*
X93875000Y-50200000D03*
X87900000Y-50200000D03*
D29*
X99400000Y-36250000D03*
X47600000Y-36250000D03*
D30*
X74400000Y-55800000D03*
X80400000Y-47200000D03*
X68000000Y-51600000D03*
X84300000Y-48400000D03*
X58000000Y-49700000D03*
X80400000Y-52700000D03*
X68215591Y-54084409D03*
X66100000Y-49100000D03*
X79500000Y-45000000D03*
X63725118Y-57512724D03*
X67291326Y-54008674D03*
X69289856Y-54310144D03*
X64600000Y-51600000D03*
X56700000Y-51600000D03*
X64524265Y-57475735D03*
X78000000Y-45000000D03*
X76000000Y-45000000D03*
X65355541Y-57458481D03*
D31*
X83600000Y-53500000D02*
X84775000Y-53500000D01*
X80997500Y-56102500D02*
X83600000Y-53500000D01*
X78747500Y-56102500D02*
X80997500Y-56102500D01*
X77797500Y-50740000D02*
X79300000Y-49237500D01*
X77797500Y-52682500D02*
X77797500Y-50740000D01*
X79300000Y-49237500D02*
X77700000Y-49237500D01*
X80450000Y-49237500D02*
X79300000Y-49237500D01*
X67850000Y-57400000D02*
X75550000Y-57400000D01*
X75550000Y-57400000D02*
X76847500Y-56102500D01*
X67700000Y-57250000D02*
X67850000Y-57400000D01*
X67700000Y-56250000D02*
X67700000Y-57250000D01*
X83430000Y-29350000D02*
X82580000Y-28500000D01*
X79500000Y-45000000D02*
X79500000Y-43250000D01*
X79500000Y-43250000D02*
X83430000Y-39320000D01*
X83430000Y-39320000D02*
X83430000Y-29350000D01*
X65300000Y-47750000D02*
X65300000Y-46490686D01*
X67225000Y-39977082D02*
X69880000Y-37322082D01*
X65300000Y-46490686D02*
X67225000Y-44565685D01*
X67225000Y-44565685D02*
X67225000Y-39977082D01*
X69880000Y-37322082D02*
X69880000Y-28500000D01*
X70000000Y-42087500D02*
X70000000Y-39742082D01*
X72420000Y-37322082D02*
X72420000Y-28500000D01*
X70000000Y-39742082D02*
X72420000Y-37322082D01*
X74000000Y-42087500D02*
X75810000Y-40277500D01*
X75810000Y-30190000D02*
X77500000Y-28500000D01*
X75810000Y-40277500D02*
X75810000Y-30190000D01*
X63700000Y-50800000D02*
X63900000Y-50600000D01*
X63900000Y-50600000D02*
X65500000Y-50600000D01*
X66500000Y-51600000D02*
X68000000Y-51600000D01*
X84300000Y-48400000D02*
X84300000Y-49807500D01*
X68000000Y-51600000D02*
X70750000Y-51600000D01*
X63700000Y-52400000D02*
X63700000Y-50800000D01*
X84737500Y-50245000D02*
X85537500Y-50245000D01*
X62250000Y-52400000D02*
X63700000Y-52400000D01*
X62250000Y-50800000D02*
X63700000Y-50800000D01*
X84300000Y-49807500D02*
X84737500Y-50245000D01*
X65500000Y-50600000D02*
X66500000Y-51600000D01*
X96700000Y-38950000D02*
X96700000Y-51700000D01*
X96700000Y-51700000D02*
X98000000Y-53000000D01*
X99400000Y-36250000D02*
X96700000Y-38950000D01*
X77587500Y-60290709D02*
X80306791Y-63010000D01*
X72600000Y-53200000D02*
X72800000Y-53400000D01*
X56587500Y-57000000D02*
X57587500Y-58000000D01*
X59800000Y-53050000D02*
X59800000Y-51462500D01*
X72800000Y-51000000D02*
X72800000Y-52900000D01*
X60896791Y-63600000D02*
X70200000Y-63600000D01*
X59937500Y-51600000D02*
X59800000Y-51462500D01*
X70750000Y-54000000D02*
X72662500Y-54000000D01*
X72800000Y-52600000D02*
X72800000Y-52900000D01*
X61400000Y-53200000D02*
X61000000Y-52800000D01*
X61000000Y-52800000D02*
X61000000Y-52100000D01*
X57587500Y-59500000D02*
X57587500Y-58000000D01*
X88400000Y-59812500D02*
X88400000Y-62400000D01*
X72662500Y-54000000D02*
X72800000Y-54137500D01*
X70750000Y-52400000D02*
X72600000Y-52400000D01*
X62250000Y-53200000D02*
X61400000Y-53200000D01*
X88400000Y-62400000D02*
X89600000Y-63600000D01*
X77587500Y-59500000D02*
X77587500Y-60290709D01*
X91103209Y-63600000D02*
X92320000Y-62383209D01*
X57587500Y-59500000D02*
X57587500Y-60290709D01*
X88087500Y-59500000D02*
X88400000Y-59812500D01*
X80900000Y-63600000D02*
X89600000Y-63600000D01*
X61000000Y-52100000D02*
X60500000Y-51600000D01*
X69600000Y-63010000D02*
X69610000Y-63010000D01*
X83937500Y-51095000D02*
X83937500Y-50195000D01*
X80306791Y-63010000D02*
X80310000Y-63010000D01*
X57587500Y-60290709D02*
X60896791Y-63600000D01*
X57587500Y-55262500D02*
X55737500Y-53412500D01*
X69610000Y-63010000D02*
X70200000Y-63600000D01*
X89600000Y-63600000D02*
X91103209Y-63600000D01*
X72600000Y-52400000D02*
X72800000Y-52600000D01*
X57587500Y-58000000D02*
X57587500Y-55262500D01*
X72800000Y-52900000D02*
X72800000Y-54137500D01*
X56587500Y-57000000D02*
X50000000Y-57000000D01*
X80450000Y-49237500D02*
X81150000Y-49237500D01*
X57587500Y-55262500D02*
X59800000Y-53050000D01*
X67587500Y-60997500D02*
X69600000Y-63010000D01*
X70750000Y-53200000D02*
X72600000Y-53200000D01*
X92320000Y-59477500D02*
X83937500Y-51095000D01*
X75418750Y-51518750D02*
X72800000Y-54137500D01*
X67587500Y-59500000D02*
X67587500Y-60997500D01*
X72600000Y-50800000D02*
X72800000Y-51000000D01*
X77700000Y-49237500D02*
X75418750Y-51518750D01*
X70200000Y-63600000D02*
X80900000Y-63600000D01*
X81150000Y-49237500D02*
X81207500Y-49295000D01*
X50000000Y-57000000D02*
X46700000Y-60300000D01*
X60500000Y-51600000D02*
X59937500Y-51600000D01*
X55737500Y-53412500D02*
X55000000Y-53412500D01*
X80310000Y-63010000D02*
X80900000Y-63600000D01*
X92320000Y-62383209D02*
X92320000Y-59477500D01*
X81207500Y-49295000D02*
X83037500Y-49295000D01*
X83937500Y-50195000D02*
X83037500Y-49295000D01*
X62250000Y-51600000D02*
X60500000Y-51600000D01*
X70750000Y-50800000D02*
X72600000Y-50800000D01*
X68215591Y-54165591D02*
X69300000Y-55250000D01*
X68215591Y-54084409D02*
X68215591Y-54165591D01*
X69300000Y-55250000D02*
X69300000Y-56250000D01*
X66100000Y-49100000D02*
X66100000Y-47750000D01*
X63700000Y-57487606D02*
X63725118Y-57512724D01*
X63700000Y-56250000D02*
X63700000Y-57487606D01*
X67291326Y-54008674D02*
X68500000Y-55217348D01*
X68500000Y-55217348D02*
X68500000Y-56250000D01*
X87900000Y-50200000D02*
X86905000Y-51195000D01*
X86905000Y-51195000D02*
X85537500Y-51195000D01*
X66000000Y-29840000D02*
X67340000Y-28500000D01*
X66000000Y-42087500D02*
X66000000Y-29840000D01*
X78000000Y-41500000D02*
X78750000Y-40750000D01*
X78750000Y-40750000D02*
X80490000Y-40750000D01*
X78000000Y-42087500D02*
X78000000Y-41500000D01*
X80490000Y-40750000D02*
X82580000Y-38660000D01*
X76000000Y-41500000D02*
X78840000Y-38660000D01*
X78840000Y-38660000D02*
X80040000Y-38660000D01*
X76000000Y-42087500D02*
X76000000Y-41500000D01*
X64000000Y-42087500D02*
X64000000Y-39460000D01*
X64000000Y-39460000D02*
X64800000Y-38660000D01*
X72000000Y-42087500D02*
X72000000Y-41620000D01*
X72000000Y-41620000D02*
X74960000Y-38660000D01*
X68000000Y-42087500D02*
X68000000Y-40540000D01*
X68000000Y-40540000D02*
X69880000Y-38660000D01*
X64500000Y-46400000D02*
X66200000Y-44700000D01*
X66466722Y-44700000D02*
X66775000Y-44391722D01*
X66200000Y-44700000D02*
X66466722Y-44700000D01*
X64500000Y-47750000D02*
X64500000Y-46400000D01*
X66775000Y-39225000D02*
X67340000Y-38660000D01*
X66775000Y-44391722D02*
X66775000Y-39225000D01*
X76500000Y-40153186D02*
X74775000Y-41878186D01*
X71750000Y-50000000D02*
X70750000Y-50000000D01*
X74775000Y-41878186D02*
X74775000Y-46975000D01*
X76500000Y-32040000D02*
X76500000Y-40153186D01*
X80040000Y-28500000D02*
X76500000Y-32040000D01*
X74775000Y-46975000D02*
X71750000Y-50000000D01*
X71000000Y-41417918D02*
X74960000Y-37457918D01*
X68500000Y-47750000D02*
X68500000Y-46300000D01*
X70466722Y-44700000D02*
X71000000Y-44166722D01*
X68500000Y-46300000D02*
X70100000Y-44700000D01*
X74960000Y-37457918D02*
X74960000Y-28500000D01*
X71000000Y-44166722D02*
X71000000Y-41417918D01*
X70100000Y-44700000D02*
X70466722Y-44700000D01*
X60900000Y-45600000D02*
X63225000Y-43275000D01*
X60900000Y-49650000D02*
X60900000Y-45600000D01*
X63225000Y-43275000D02*
X63225000Y-30075000D01*
X62250000Y-50000000D02*
X61250000Y-50000000D01*
X61250000Y-50000000D02*
X60900000Y-49650000D01*
X63225000Y-30075000D02*
X64800000Y-28500000D01*
X69289856Y-54310144D02*
X69310144Y-54310144D01*
X69310144Y-54310144D02*
X69800000Y-54800000D01*
X69800000Y-54800000D02*
X70750000Y-54800000D01*
X93875000Y-50200000D02*
X93875000Y-50875000D01*
X93875000Y-50875000D02*
X98000000Y-55000000D01*
X55012500Y-51600000D02*
X55000000Y-51587500D01*
X64600000Y-52200000D02*
X67700000Y-55300000D01*
X50912500Y-51587500D02*
X48662500Y-49337500D01*
X64600000Y-51600000D02*
X64600000Y-52200000D01*
X56700000Y-51600000D02*
X55012500Y-51600000D01*
X55000000Y-51587500D02*
X50912500Y-51587500D01*
X67700000Y-55300000D02*
X67700000Y-56250000D01*
X61250000Y-54000000D02*
X59412500Y-55837500D01*
X59412500Y-60602500D02*
X60750000Y-61940000D01*
X62250000Y-54000000D02*
X61250000Y-54000000D01*
X59412500Y-59500000D02*
X59412500Y-60602500D01*
X59412500Y-55837500D02*
X59412500Y-59500000D01*
X61725000Y-58725000D02*
X68637500Y-58725000D01*
X61000000Y-58000000D02*
X61725000Y-58725000D01*
X62250000Y-54800000D02*
X61200000Y-54800000D01*
X61000000Y-55000000D02*
X61000000Y-58000000D01*
X61200000Y-54800000D02*
X61000000Y-55000000D01*
X69412500Y-60602500D02*
X70750000Y-61940000D01*
X68637500Y-58725000D02*
X69412500Y-59500000D01*
X69412500Y-59500000D02*
X69412500Y-60602500D01*
X66100000Y-56250000D02*
X66100000Y-57250000D01*
X79412500Y-59500000D02*
X79412500Y-60602500D01*
X78237500Y-58325000D02*
X79412500Y-59500000D01*
X67175000Y-58325000D02*
X78237500Y-58325000D01*
X79412500Y-60602500D02*
X80750000Y-61940000D01*
X66100000Y-57250000D02*
X67175000Y-58325000D01*
X89412500Y-60602500D02*
X90750000Y-61940000D01*
X67575000Y-57925000D02*
X87837500Y-57925000D01*
X89412500Y-59500000D02*
X89412500Y-60602500D01*
X87837500Y-57925000D02*
X89412500Y-59500000D01*
X66900000Y-56250000D02*
X66900000Y-57250000D01*
X66900000Y-57250000D02*
X67575000Y-57925000D01*
X63700000Y-46387500D02*
X66000000Y-44087500D01*
X63700000Y-47750000D02*
X63700000Y-46387500D01*
X66000000Y-44087500D02*
X66000000Y-43912500D01*
X67700000Y-46400000D02*
X70000000Y-44100000D01*
X70000000Y-44100000D02*
X70000000Y-43912500D01*
X67700000Y-47750000D02*
X67700000Y-46400000D01*
X66900000Y-47750000D02*
X66900000Y-46400000D01*
X66900000Y-46400000D02*
X68000000Y-45300000D01*
X68000000Y-45300000D02*
X68000000Y-43912500D01*
X69300000Y-46300000D02*
X70500000Y-45100000D01*
X71819908Y-43912500D02*
X72000000Y-43912500D01*
X69300000Y-47750000D02*
X69300000Y-46300000D01*
X70500000Y-45100000D02*
X70632408Y-45100000D01*
X70632408Y-45100000D02*
X71819908Y-43912500D01*
X74000000Y-47000000D02*
X71800000Y-49200000D01*
X74000000Y-43912500D02*
X74000000Y-47000000D01*
X71800000Y-49200000D02*
X70750000Y-49200000D01*
X62250000Y-49200000D02*
X62250000Y-45662500D01*
X62250000Y-45662500D02*
X64000000Y-43912500D01*
X64500000Y-56250000D02*
X64500000Y-57451470D01*
X78000000Y-43912500D02*
X78000000Y-45000000D01*
X64500000Y-57451470D02*
X64524265Y-57475735D01*
X76000000Y-45000000D02*
X76000000Y-43912500D01*
X65300000Y-56250000D02*
X65300000Y-57402940D01*
X65300000Y-57402940D02*
X65355541Y-57458481D01*
G04 #@! TA.AperFunction,Conductor*
G36*
X60318834Y-55882915D02*
G01*
X60374767Y-55924787D01*
X60399184Y-55990251D01*
X60399500Y-55999097D01*
X60399500Y-57913330D01*
X60399499Y-57913348D01*
X60399499Y-58079054D01*
X60399498Y-58079054D01*
X60440423Y-58231785D01*
X60457350Y-58261103D01*
X60457349Y-58261103D01*
X60457350Y-58261104D01*
X60519475Y-58368709D01*
X60519481Y-58368717D01*
X60638349Y-58487585D01*
X60638355Y-58487590D01*
X61240139Y-59089374D01*
X61240149Y-59089385D01*
X61244479Y-59093715D01*
X61244480Y-59093716D01*
X61356284Y-59205520D01*
X61425906Y-59245716D01*
X61493215Y-59284577D01*
X61645943Y-59325501D01*
X61645946Y-59325501D01*
X61811653Y-59325501D01*
X61811669Y-59325500D01*
X66475500Y-59325500D01*
X66542539Y-59345185D01*
X66588294Y-59397989D01*
X66599500Y-59449500D01*
X66599500Y-59786668D01*
X66599501Y-59786687D01*
X66609825Y-59887752D01*
X66613851Y-59899901D01*
X66663589Y-60049999D01*
X66664092Y-60051515D01*
X66664093Y-60051518D01*
X66698319Y-60107007D01*
X66754660Y-60198350D01*
X66876650Y-60320340D01*
X66928097Y-60352072D01*
X66974821Y-60404017D01*
X66987000Y-60457610D01*
X66987000Y-60687738D01*
X66967315Y-60754777D01*
X66914511Y-60800532D01*
X66845353Y-60810476D01*
X66810595Y-60800120D01*
X66686026Y-60742033D01*
X66686017Y-60742029D01*
X66471381Y-60684518D01*
X66471371Y-60684516D01*
X66250001Y-60665149D01*
X66249999Y-60665149D01*
X66028628Y-60684516D01*
X66028618Y-60684518D01*
X65813982Y-60742029D01*
X65813973Y-60742032D01*
X65612576Y-60835946D01*
X65612574Y-60835947D01*
X65546068Y-60882515D01*
X65546067Y-60882515D01*
X66124672Y-61461119D01*
X66058937Y-61478734D01*
X65946063Y-61543902D01*
X65853902Y-61636063D01*
X65788734Y-61748937D01*
X65771120Y-61814672D01*
X65192515Y-61236067D01*
X65192515Y-61236068D01*
X65145947Y-61302574D01*
X65145946Y-61302576D01*
X65052032Y-61503973D01*
X65052029Y-61503982D01*
X64994518Y-61718618D01*
X64994516Y-61718628D01*
X64975149Y-61939999D01*
X64975149Y-61940000D01*
X64994516Y-62161371D01*
X64994518Y-62161381D01*
X65052029Y-62376017D01*
X65052033Y-62376026D01*
X65145949Y-62577429D01*
X65192513Y-62643931D01*
X65192514Y-62643932D01*
X65771119Y-62065327D01*
X65788734Y-62131063D01*
X65853902Y-62243937D01*
X65946063Y-62336098D01*
X66058937Y-62401266D01*
X66124672Y-62418880D01*
X65580371Y-62963181D01*
X65519048Y-62996666D01*
X65492690Y-62999500D01*
X61786620Y-62999500D01*
X61719581Y-62979815D01*
X61673826Y-62927011D01*
X61663882Y-62857853D01*
X61692907Y-62794297D01*
X61698939Y-62787819D01*
X61726977Y-62759781D01*
X61854488Y-62577677D01*
X61948440Y-62376196D01*
X62005978Y-62161463D01*
X62025353Y-61940000D01*
X62023903Y-61923430D01*
X62016578Y-61839702D01*
X62005978Y-61718537D01*
X61948440Y-61503804D01*
X61854488Y-61302324D01*
X61854486Y-61302321D01*
X61854485Y-61302319D01*
X61726978Y-61120220D01*
X61682959Y-61076201D01*
X61569781Y-60963023D01*
X61422042Y-60859575D01*
X61387676Y-60835511D01*
X61286936Y-60788536D01*
X61186196Y-60741560D01*
X61186193Y-60741559D01*
X61186191Y-60741558D01*
X60971465Y-60684022D01*
X60971457Y-60684021D01*
X60750002Y-60664647D01*
X60749998Y-60664647D01*
X60602358Y-60677563D01*
X60528537Y-60684022D01*
X60528534Y-60684022D01*
X60451562Y-60704647D01*
X60381712Y-60702984D01*
X60331788Y-60672553D01*
X60139143Y-60479908D01*
X60105658Y-60418585D01*
X60110642Y-60348893D01*
X60139139Y-60304550D01*
X60245340Y-60198350D01*
X60335908Y-60051516D01*
X60390174Y-59887753D01*
X60400500Y-59786677D01*
X60400499Y-59213324D01*
X60391575Y-59125967D01*
X60390174Y-59112247D01*
X60382598Y-59089385D01*
X60335908Y-58948484D01*
X60245340Y-58801650D01*
X60123350Y-58679660D01*
X60123349Y-58679659D01*
X60071902Y-58647926D01*
X60025178Y-58595978D01*
X60013000Y-58542388D01*
X60013000Y-56137597D01*
X60032685Y-56070558D01*
X60049319Y-56049916D01*
X60187819Y-55911416D01*
X60249142Y-55877931D01*
X60318834Y-55882915D01*
G37*
G04 #@! TD.AperFunction*
G04 #@! TA.AperFunction,Conductor*
G36*
X67725426Y-61984662D02*
G01*
X68528583Y-62787819D01*
X68562068Y-62849142D01*
X68557084Y-62918834D01*
X68515212Y-62974767D01*
X68449748Y-62999184D01*
X68440902Y-62999500D01*
X67007310Y-62999500D01*
X66940271Y-62979815D01*
X66919629Y-62963181D01*
X66375327Y-62418880D01*
X66441063Y-62401266D01*
X66553937Y-62336098D01*
X66646098Y-62243937D01*
X66711266Y-62131063D01*
X66728880Y-62065327D01*
X67307484Y-62643932D01*
X67354052Y-62577425D01*
X67447966Y-62376026D01*
X67447970Y-62376017D01*
X67505481Y-62161381D01*
X67505483Y-62161370D01*
X67514217Y-62061537D01*
X67539669Y-61996468D01*
X67596259Y-61955489D01*
X67666021Y-61951610D01*
X67725426Y-61984662D01*
G37*
G04 #@! TD.AperFunction*
G04 #@! TA.AperFunction,Conductor*
G36*
X76567027Y-58945185D02*
G01*
X76612782Y-58997989D01*
X76622726Y-59067147D01*
X76617694Y-59088500D01*
X76617402Y-59089385D01*
X76609826Y-59112247D01*
X76609825Y-59112248D01*
X76599500Y-59213315D01*
X76599500Y-59786669D01*
X76599501Y-59786687D01*
X76609825Y-59887752D01*
X76613851Y-59899901D01*
X76663589Y-60049999D01*
X76664092Y-60051515D01*
X76664093Y-60051518D01*
X76754661Y-60198351D01*
X76876649Y-60320339D01*
X76876653Y-60320342D01*
X76951053Y-60366233D01*
X76997778Y-60418181D01*
X77005730Y-60439675D01*
X77027921Y-60522489D01*
X77027924Y-60522497D01*
X77035376Y-60535404D01*
X77035379Y-60535408D01*
X77106977Y-60659421D01*
X77106981Y-60659426D01*
X77206392Y-60758837D01*
X77239877Y-60820160D01*
X77234893Y-60889852D01*
X77193021Y-60945785D01*
X77127557Y-60970202D01*
X77059284Y-60955350D01*
X77047588Y-60948093D01*
X76887430Y-60835949D01*
X76887426Y-60835947D01*
X76686026Y-60742033D01*
X76686017Y-60742029D01*
X76471381Y-60684518D01*
X76471371Y-60684516D01*
X76250001Y-60665149D01*
X76249999Y-60665149D01*
X76028628Y-60684516D01*
X76028618Y-60684518D01*
X75813982Y-60742029D01*
X75813973Y-60742032D01*
X75612576Y-60835946D01*
X75612574Y-60835947D01*
X75546068Y-60882515D01*
X75546067Y-60882515D01*
X76124672Y-61461119D01*
X76058937Y-61478734D01*
X75946063Y-61543902D01*
X75853902Y-61636063D01*
X75788734Y-61748937D01*
X75771120Y-61814672D01*
X75192515Y-61236067D01*
X75192515Y-61236068D01*
X75145947Y-61302574D01*
X75145946Y-61302576D01*
X75052032Y-61503973D01*
X75052029Y-61503982D01*
X74994518Y-61718618D01*
X74994516Y-61718628D01*
X74975149Y-61939999D01*
X74975149Y-61940000D01*
X74994516Y-62161371D01*
X74994518Y-62161381D01*
X75052029Y-62376017D01*
X75052033Y-62376026D01*
X75145949Y-62577429D01*
X75192513Y-62643931D01*
X75192514Y-62643932D01*
X75771119Y-62065327D01*
X75788734Y-62131063D01*
X75853902Y-62243937D01*
X75946063Y-62336098D01*
X76058937Y-62401266D01*
X76124672Y-62418880D01*
X75580371Y-62963181D01*
X75519048Y-62996666D01*
X75492690Y-62999500D01*
X71786620Y-62999500D01*
X71719581Y-62979815D01*
X71673826Y-62927011D01*
X71663882Y-62857853D01*
X71692907Y-62794297D01*
X71698939Y-62787819D01*
X71726977Y-62759781D01*
X71854488Y-62577677D01*
X71948440Y-62376196D01*
X72005978Y-62161463D01*
X72025353Y-61940000D01*
X72023903Y-61923430D01*
X72016578Y-61839702D01*
X72005978Y-61718537D01*
X71948440Y-61503804D01*
X71854488Y-61302324D01*
X71854486Y-61302321D01*
X71854485Y-61302319D01*
X71726978Y-61120220D01*
X71682959Y-61076201D01*
X71569781Y-60963023D01*
X71422042Y-60859575D01*
X71387676Y-60835511D01*
X71286936Y-60788536D01*
X71186196Y-60741560D01*
X71186193Y-60741559D01*
X71186191Y-60741558D01*
X70971465Y-60684022D01*
X70971457Y-60684021D01*
X70750002Y-60664647D01*
X70749998Y-60664647D01*
X70602358Y-60677563D01*
X70528537Y-60684022D01*
X70528534Y-60684022D01*
X70451562Y-60704647D01*
X70381712Y-60702984D01*
X70331788Y-60672553D01*
X70139143Y-60479908D01*
X70105658Y-60418585D01*
X70110642Y-60348893D01*
X70139139Y-60304550D01*
X70245340Y-60198350D01*
X70335908Y-60051516D01*
X70390174Y-59887753D01*
X70400500Y-59786677D01*
X70400499Y-59213324D01*
X70391575Y-59125967D01*
X70390174Y-59112247D01*
X70390172Y-59112240D01*
X70382307Y-59088503D01*
X70379906Y-59018674D01*
X70415638Y-58958633D01*
X70478159Y-58927441D01*
X70500013Y-58925500D01*
X76499988Y-58925500D01*
X76567027Y-58945185D01*
G37*
G04 #@! TD.AperFunction*
G04 #@! TA.AperFunction,Conductor*
G36*
X77420901Y-60974425D02*
G01*
X77431159Y-60983603D01*
X79235375Y-62787819D01*
X79268860Y-62849142D01*
X79263876Y-62918834D01*
X79222004Y-62974767D01*
X79156540Y-62999184D01*
X79147694Y-62999500D01*
X77007310Y-62999500D01*
X76940271Y-62979815D01*
X76919629Y-62963181D01*
X76375327Y-62418880D01*
X76441063Y-62401266D01*
X76553937Y-62336098D01*
X76646098Y-62243937D01*
X76711266Y-62131063D01*
X76728880Y-62065327D01*
X77307484Y-62643932D01*
X77354052Y-62577425D01*
X77447966Y-62376026D01*
X77447970Y-62376017D01*
X77505481Y-62161381D01*
X77505483Y-62161371D01*
X77524851Y-61940000D01*
X77524851Y-61939999D01*
X77505483Y-61718628D01*
X77505481Y-61718618D01*
X77447970Y-61503982D01*
X77447967Y-61503973D01*
X77354053Y-61302576D01*
X77354052Y-61302574D01*
X77241903Y-61142407D01*
X77219576Y-61076201D01*
X77236586Y-61008433D01*
X77287535Y-60960621D01*
X77356244Y-60947943D01*
X77420901Y-60974425D01*
G37*
G04 #@! TD.AperFunction*
G04 #@! TA.AperFunction,Conductor*
G36*
X86798487Y-58545185D02*
G01*
X86844242Y-58597989D01*
X86854186Y-58667147D01*
X86825161Y-58730703D01*
X86819129Y-58737181D01*
X86754661Y-58801648D01*
X86664093Y-58948481D01*
X86664091Y-58948486D01*
X86647244Y-58999327D01*
X86609826Y-59112247D01*
X86609826Y-59112248D01*
X86609825Y-59112248D01*
X86599500Y-59213315D01*
X86599500Y-59786669D01*
X86599501Y-59786687D01*
X86609825Y-59887752D01*
X86613851Y-59899901D01*
X86663589Y-60049999D01*
X86664092Y-60051515D01*
X86664093Y-60051518D01*
X86698319Y-60107007D01*
X86754660Y-60198350D01*
X86876650Y-60320340D01*
X87023484Y-60410908D01*
X87187247Y-60465174D01*
X87288323Y-60475500D01*
X87675500Y-60475499D01*
X87742539Y-60495183D01*
X87788294Y-60547987D01*
X87799500Y-60599499D01*
X87799500Y-62313330D01*
X87799499Y-62313348D01*
X87799499Y-62479054D01*
X87799498Y-62479054D01*
X87840423Y-62631785D01*
X87869358Y-62681900D01*
X87869359Y-62681904D01*
X87869360Y-62681904D01*
X87914321Y-62759781D01*
X87919479Y-62768714D01*
X87919481Y-62768717D01*
X87938583Y-62787819D01*
X87972068Y-62849142D01*
X87967084Y-62918834D01*
X87925212Y-62974767D01*
X87859748Y-62999184D01*
X87850902Y-62999500D01*
X87007310Y-62999500D01*
X86940271Y-62979815D01*
X86919629Y-62963181D01*
X86375327Y-62418880D01*
X86441063Y-62401266D01*
X86553937Y-62336098D01*
X86646098Y-62243937D01*
X86711266Y-62131063D01*
X86728880Y-62065327D01*
X87307484Y-62643932D01*
X87354052Y-62577425D01*
X87447966Y-62376026D01*
X87447970Y-62376017D01*
X87505481Y-62161381D01*
X87505483Y-62161371D01*
X87524851Y-61940000D01*
X87524851Y-61939999D01*
X87505483Y-61718628D01*
X87505481Y-61718618D01*
X87447970Y-61503982D01*
X87447966Y-61503973D01*
X87354054Y-61302577D01*
X87307483Y-61236067D01*
X86728879Y-61814671D01*
X86711266Y-61748937D01*
X86646098Y-61636063D01*
X86553937Y-61543902D01*
X86441063Y-61478734D01*
X86375327Y-61461119D01*
X86953932Y-60882514D01*
X86953931Y-60882513D01*
X86887429Y-60835949D01*
X86686026Y-60742033D01*
X86686017Y-60742029D01*
X86471381Y-60684518D01*
X86471371Y-60684516D01*
X86250001Y-60665149D01*
X86249999Y-60665149D01*
X86028628Y-60684516D01*
X86028618Y-60684518D01*
X85813982Y-60742029D01*
X85813973Y-60742032D01*
X85612576Y-60835946D01*
X85612574Y-60835947D01*
X85546068Y-60882515D01*
X85546067Y-60882515D01*
X86124672Y-61461119D01*
X86058937Y-61478734D01*
X85946063Y-61543902D01*
X85853902Y-61636063D01*
X85788734Y-61748937D01*
X85771120Y-61814672D01*
X85192515Y-61236067D01*
X85192515Y-61236068D01*
X85145947Y-61302574D01*
X85145946Y-61302576D01*
X85052032Y-61503973D01*
X85052029Y-61503982D01*
X84994518Y-61718618D01*
X84994516Y-61718628D01*
X84975149Y-61939999D01*
X84975149Y-61940000D01*
X84994516Y-62161371D01*
X84994518Y-62161381D01*
X85052029Y-62376017D01*
X85052033Y-62376026D01*
X85145949Y-62577429D01*
X85192513Y-62643931D01*
X85192514Y-62643932D01*
X85771119Y-62065327D01*
X85788734Y-62131063D01*
X85853902Y-62243937D01*
X85946063Y-62336098D01*
X86058937Y-62401266D01*
X86124672Y-62418880D01*
X85580371Y-62963181D01*
X85519048Y-62996666D01*
X85492690Y-62999500D01*
X81786620Y-62999500D01*
X81719581Y-62979815D01*
X81673826Y-62927011D01*
X81663882Y-62857853D01*
X81692907Y-62794297D01*
X81698939Y-62787819D01*
X81726977Y-62759781D01*
X81854488Y-62577677D01*
X81948440Y-62376196D01*
X82005978Y-62161463D01*
X82025353Y-61940000D01*
X82023903Y-61923430D01*
X82016578Y-61839702D01*
X82005978Y-61718537D01*
X81948440Y-61503804D01*
X81854488Y-61302324D01*
X81854486Y-61302321D01*
X81854485Y-61302319D01*
X81726978Y-61120220D01*
X81682959Y-61076201D01*
X81569781Y-60963023D01*
X81422042Y-60859575D01*
X81387676Y-60835511D01*
X81286936Y-60788536D01*
X81186196Y-60741560D01*
X81186193Y-60741559D01*
X81186191Y-60741558D01*
X80971465Y-60684022D01*
X80971457Y-60684021D01*
X80750002Y-60664647D01*
X80749998Y-60664647D01*
X80602358Y-60677563D01*
X80528537Y-60684022D01*
X80528534Y-60684022D01*
X80451562Y-60704647D01*
X80381712Y-60702984D01*
X80331788Y-60672553D01*
X80139143Y-60479908D01*
X80105658Y-60418585D01*
X80110642Y-60348893D01*
X80139139Y-60304550D01*
X80245340Y-60198350D01*
X80335908Y-60051516D01*
X80390174Y-59887753D01*
X80400500Y-59786677D01*
X80400499Y-59213324D01*
X80391575Y-59125967D01*
X80390174Y-59112247D01*
X80382598Y-59089385D01*
X80335908Y-58948484D01*
X80245340Y-58801650D01*
X80180871Y-58737181D01*
X80147386Y-58675858D01*
X80152370Y-58606166D01*
X80194242Y-58550233D01*
X80259706Y-58525816D01*
X80268552Y-58525500D01*
X86731448Y-58525500D01*
X86798487Y-58545185D01*
G37*
G04 #@! TD.AperFunction*
G04 #@! TA.AperFunction,Conductor*
G36*
X82042219Y-49915185D02*
G01*
X82074448Y-49945191D01*
X82079954Y-49952546D01*
X82079957Y-49952548D01*
X82195164Y-50038793D01*
X82195171Y-50038797D01*
X82207416Y-50043364D01*
X82330017Y-50089091D01*
X82389627Y-50095500D01*
X82937402Y-50095499D01*
X83004441Y-50115183D01*
X83025083Y-50131818D01*
X83076084Y-50182819D01*
X83109569Y-50244142D01*
X83104585Y-50313834D01*
X83062713Y-50369767D01*
X82997249Y-50394184D01*
X82988403Y-50394500D01*
X82389629Y-50394500D01*
X82389623Y-50394501D01*
X82330016Y-50400908D01*
X82195171Y-50451202D01*
X82195164Y-50451206D01*
X82079955Y-50537452D01*
X82079952Y-50537455D01*
X81993706Y-50652664D01*
X81993702Y-50652671D01*
X81943733Y-50786648D01*
X81943409Y-50787517D01*
X81937000Y-50847127D01*
X81937000Y-50847134D01*
X81937000Y-50847135D01*
X81937000Y-51542870D01*
X81937001Y-51542876D01*
X81943408Y-51602483D01*
X81993702Y-51737328D01*
X81993706Y-51737335D01*
X82079952Y-51852544D01*
X82079955Y-51852547D01*
X82195164Y-51938793D01*
X82195171Y-51938797D01*
X82330017Y-51989091D01*
X82330016Y-51989091D01*
X82335495Y-51989680D01*
X82389627Y-51995500D01*
X83685372Y-51995499D01*
X83744983Y-51989091D01*
X83843210Y-51952454D01*
X83912898Y-51947471D01*
X83974218Y-51980953D01*
X83974221Y-51980956D01*
X84235859Y-52242594D01*
X84269344Y-52303917D01*
X84264360Y-52373609D01*
X84222488Y-52429542D01*
X84213455Y-52435702D01*
X84048439Y-52537874D01*
X84048437Y-52537876D01*
X83884020Y-52687761D01*
X83804447Y-52793134D01*
X83762652Y-52848481D01*
X83761334Y-52850226D01*
X83705225Y-52891862D01*
X83662380Y-52899499D01*
X83520943Y-52899499D01*
X83368215Y-52940423D01*
X83243811Y-53012248D01*
X83231281Y-53019482D01*
X80785084Y-55465681D01*
X80723761Y-55499166D01*
X80697403Y-55502000D01*
X79696999Y-55502000D01*
X79629960Y-55482315D01*
X79584205Y-55429511D01*
X79572999Y-55378000D01*
X79572999Y-55211401D01*
X79566931Y-55144617D01*
X79566928Y-55144606D01*
X79519032Y-54990901D01*
X79519031Y-54990900D01*
X79519031Y-54990898D01*
X79435736Y-54853112D01*
X79435734Y-54853110D01*
X79435733Y-54853108D01*
X79321891Y-54739266D01*
X79319497Y-54737819D01*
X79184102Y-54655969D01*
X79030387Y-54608070D01*
X79030385Y-54608069D01*
X79030383Y-54608069D01*
X78983617Y-54603819D01*
X78963591Y-54602000D01*
X78963588Y-54602000D01*
X78531401Y-54602000D01*
X78464617Y-54608068D01*
X78464606Y-54608071D01*
X78310901Y-54655967D01*
X78173108Y-54739266D01*
X78059266Y-54853108D01*
X77975969Y-54990897D01*
X77928069Y-55144616D01*
X77922000Y-55211411D01*
X77922000Y-56993598D01*
X77928068Y-57060382D01*
X77928070Y-57060390D01*
X77960235Y-57163609D01*
X77961387Y-57233469D01*
X77924586Y-57292862D01*
X77861517Y-57322930D01*
X77841850Y-57324500D01*
X77753150Y-57324500D01*
X77686111Y-57304815D01*
X77640356Y-57252011D01*
X77630412Y-57182853D01*
X77634761Y-57163618D01*
X77666930Y-57060387D01*
X77673000Y-56993591D01*
X77672999Y-55211410D01*
X77672999Y-55211409D01*
X77672999Y-55211401D01*
X77666931Y-55144617D01*
X77666928Y-55144606D01*
X77619032Y-54990901D01*
X77619031Y-54990900D01*
X77619031Y-54990898D01*
X77535736Y-54853112D01*
X77535734Y-54853110D01*
X77535733Y-54853108D01*
X77421891Y-54739266D01*
X77419497Y-54737819D01*
X77284102Y-54655969D01*
X77130387Y-54608070D01*
X77130385Y-54608069D01*
X77130383Y-54608069D01*
X77083617Y-54603819D01*
X77063591Y-54602000D01*
X77063588Y-54602000D01*
X76631401Y-54602000D01*
X76564617Y-54608068D01*
X76564606Y-54608071D01*
X76410901Y-54655967D01*
X76273108Y-54739266D01*
X76159266Y-54853108D01*
X76075969Y-54990897D01*
X76028069Y-55144616D01*
X76022000Y-55211411D01*
X76022000Y-56027402D01*
X76002315Y-56094441D01*
X75985681Y-56115083D01*
X75337584Y-56763181D01*
X75276261Y-56796666D01*
X75249903Y-56799500D01*
X73733277Y-56799500D01*
X73666238Y-56779815D01*
X73620483Y-56727011D01*
X73610539Y-56657853D01*
X73627739Y-56610403D01*
X73710448Y-56476311D01*
X73710453Y-56476300D01*
X73764680Y-56312652D01*
X73774999Y-56211654D01*
X73775000Y-56211641D01*
X73775000Y-56112500D01*
X71825001Y-56112500D01*
X71825001Y-56211654D01*
X71835319Y-56312652D01*
X71889546Y-56476300D01*
X71889551Y-56476311D01*
X71972261Y-56610403D01*
X71990702Y-56677795D01*
X71969780Y-56744459D01*
X71916138Y-56789228D01*
X71866723Y-56799500D01*
X70199500Y-56799500D01*
X70132461Y-56779815D01*
X70086706Y-56727011D01*
X70075500Y-56675500D01*
X70075499Y-55699499D01*
X70095183Y-55632460D01*
X70147987Y-55586705D01*
X70199499Y-55575499D01*
X71597871Y-55575499D01*
X71597872Y-55575499D01*
X71657483Y-55569091D01*
X71673208Y-55563225D01*
X71742898Y-55558239D01*
X71804222Y-55591722D01*
X71825000Y-55612500D01*
X73774999Y-55612500D01*
X73774999Y-55513360D01*
X73774998Y-55513345D01*
X73764680Y-55412347D01*
X73710453Y-55248699D01*
X73710448Y-55248688D01*
X73619947Y-55101965D01*
X73619944Y-55101961D01*
X73606017Y-55088034D01*
X73572532Y-55026711D01*
X73577516Y-54957019D01*
X73606017Y-54912672D01*
X73620340Y-54898350D01*
X73710908Y-54751516D01*
X73765174Y-54587753D01*
X73775500Y-54486677D01*
X73775499Y-54062595D01*
X73795183Y-53995557D01*
X73811813Y-53974920D01*
X75899270Y-51887466D01*
X75899270Y-51887464D01*
X75909474Y-51877261D01*
X75909478Y-51877256D01*
X76985319Y-50801415D01*
X77046642Y-50767930D01*
X77116334Y-50772914D01*
X77172267Y-50814786D01*
X77196684Y-50880250D01*
X77197000Y-50889096D01*
X77197000Y-51294013D01*
X77177315Y-51361052D01*
X77160681Y-51381694D01*
X77109267Y-51433107D01*
X77109266Y-51433108D01*
X77025969Y-51570897D01*
X76978069Y-51724616D01*
X76972000Y-51791411D01*
X76972000Y-53573598D01*
X76978068Y-53640382D01*
X76978071Y-53640393D01*
X77025967Y-53794098D01*
X77025968Y-53794100D01*
X77025969Y-53794102D01*
X77097551Y-53912512D01*
X77109266Y-53931891D01*
X77223108Y-54045733D01*
X77223110Y-54045734D01*
X77223112Y-54045736D01*
X77360898Y-54129031D01*
X77514613Y-54176930D01*
X77581409Y-54183000D01*
X78013590Y-54182999D01*
X78013598Y-54182999D01*
X78080382Y-54176931D01*
X78080385Y-54176930D01*
X78080387Y-54176930D01*
X78234102Y-54129031D01*
X78371888Y-54045736D01*
X78485736Y-53931888D01*
X78569031Y-53794102D01*
X78616930Y-53640387D01*
X78623000Y-53573591D01*
X78622999Y-51791410D01*
X78622999Y-51791409D01*
X78622999Y-51791401D01*
X78616931Y-51724617D01*
X78616928Y-51724606D01*
X78569032Y-51570901D01*
X78569031Y-51570900D01*
X78569031Y-51570898D01*
X78485736Y-51433112D01*
X78485734Y-51433110D01*
X78485733Y-51433108D01*
X78434319Y-51381694D01*
X78400834Y-51320371D01*
X78398000Y-51294013D01*
X78398000Y-51212500D01*
X79475001Y-51212500D01*
X79475001Y-51311654D01*
X79485319Y-51412652D01*
X79539546Y-51576300D01*
X79539551Y-51576311D01*
X79630052Y-51723034D01*
X79630055Y-51723038D01*
X79751961Y-51844944D01*
X79751965Y-51844947D01*
X79898688Y-51935448D01*
X79898699Y-51935453D01*
X80062347Y-51989680D01*
X80163352Y-51999999D01*
X80200000Y-51999999D01*
X80200000Y-51212500D01*
X80700000Y-51212500D01*
X80700000Y-51999999D01*
X80736640Y-51999999D01*
X80736654Y-51999998D01*
X80837652Y-51989680D01*
X81001300Y-51935453D01*
X81001311Y-51935448D01*
X81148034Y-51844947D01*
X81148038Y-51844944D01*
X81269944Y-51723038D01*
X81269947Y-51723034D01*
X81360448Y-51576311D01*
X81360453Y-51576300D01*
X81414680Y-51412652D01*
X81424999Y-51311654D01*
X81425000Y-51311641D01*
X81425000Y-51212500D01*
X80700000Y-51212500D01*
X80200000Y-51212500D01*
X79475001Y-51212500D01*
X78398000Y-51212500D01*
X78398000Y-51040096D01*
X78417685Y-50973057D01*
X78434314Y-50952419D01*
X79426724Y-49960009D01*
X79488045Y-49926526D01*
X79557736Y-49931510D01*
X79613670Y-49973382D01*
X79619940Y-49982593D01*
X79629657Y-49998346D01*
X79629660Y-49998350D01*
X79643982Y-50012672D01*
X79677467Y-50073995D01*
X79672483Y-50143687D01*
X79643985Y-50188032D01*
X79630052Y-50201965D01*
X79539551Y-50348688D01*
X79539546Y-50348699D01*
X79485319Y-50512347D01*
X79475000Y-50613345D01*
X79475000Y-50712500D01*
X81424999Y-50712500D01*
X81424999Y-50613360D01*
X81424998Y-50613345D01*
X81414680Y-50512347D01*
X81360453Y-50348699D01*
X81360448Y-50348688D01*
X81269947Y-50201965D01*
X81269944Y-50201961D01*
X81256017Y-50188034D01*
X81222532Y-50126711D01*
X81227516Y-50057019D01*
X81256017Y-50012672D01*
X81270340Y-49998350D01*
X81297446Y-49954404D01*
X81349394Y-49907679D01*
X81402985Y-49895500D01*
X81975180Y-49895500D01*
X82042219Y-49915185D01*
G37*
G04 #@! TD.AperFunction*
G04 #@! TA.AperFunction,Conductor*
G36*
X64117514Y-49044089D02*
G01*
X64117517Y-49044091D01*
X64177127Y-49050500D01*
X64822872Y-49050499D01*
X64882483Y-49044091D01*
X64882486Y-49044089D01*
X64886744Y-49043632D01*
X64913254Y-49043632D01*
X64917514Y-49044089D01*
X64917517Y-49044091D01*
X64977127Y-49050500D01*
X65178044Y-49050499D01*
X65245083Y-49070183D01*
X65290838Y-49122987D01*
X65301264Y-49160616D01*
X65314630Y-49279249D01*
X65314631Y-49279254D01*
X65374211Y-49449523D01*
X65440788Y-49555479D01*
X65470184Y-49602262D01*
X65597738Y-49729816D01*
X65750478Y-49825789D01*
X65824002Y-49851516D01*
X65920745Y-49885368D01*
X65920750Y-49885369D01*
X66099996Y-49905565D01*
X66100000Y-49905565D01*
X66100004Y-49905565D01*
X66279249Y-49885369D01*
X66279252Y-49885368D01*
X66279255Y-49885368D01*
X66449522Y-49825789D01*
X66602262Y-49729816D01*
X66729816Y-49602262D01*
X66825789Y-49449522D01*
X66885368Y-49279255D01*
X66889105Y-49246089D01*
X66898736Y-49160616D01*
X66925802Y-49096202D01*
X66983397Y-49056646D01*
X67021956Y-49050499D01*
X67222871Y-49050499D01*
X67222872Y-49050499D01*
X67282483Y-49044091D01*
X67282486Y-49044089D01*
X67286744Y-49043632D01*
X67313254Y-49043632D01*
X67317514Y-49044089D01*
X67317517Y-49044091D01*
X67377127Y-49050500D01*
X68022872Y-49050499D01*
X68082483Y-49044091D01*
X68082486Y-49044089D01*
X68086744Y-49043632D01*
X68113254Y-49043632D01*
X68117514Y-49044089D01*
X68117517Y-49044091D01*
X68177127Y-49050500D01*
X68822872Y-49050499D01*
X68882483Y-49044091D01*
X68882486Y-49044089D01*
X68886744Y-49043632D01*
X68913254Y-49043632D01*
X68917514Y-49044089D01*
X68917517Y-49044091D01*
X68977127Y-49050500D01*
X69325500Y-49050499D01*
X69392539Y-49070183D01*
X69438294Y-49122987D01*
X69449500Y-49174499D01*
X69449500Y-49522869D01*
X69449501Y-49522879D01*
X69456367Y-49586751D01*
X69456367Y-49613257D01*
X69455909Y-49617516D01*
X69455909Y-49617517D01*
X69449500Y-49677127D01*
X69449500Y-49677129D01*
X69449500Y-49677133D01*
X69449500Y-50322870D01*
X69449501Y-50322879D01*
X69456367Y-50386751D01*
X69456367Y-50413257D01*
X69455909Y-50417516D01*
X69455909Y-50417517D01*
X69449500Y-50477127D01*
X69449500Y-50477132D01*
X69449500Y-50477133D01*
X69449500Y-51122870D01*
X69449501Y-51122876D01*
X69456619Y-51189092D01*
X69456619Y-51215599D01*
X69450000Y-51277169D01*
X69450000Y-51350000D01*
X69468591Y-51350000D01*
X69535630Y-51369685D01*
X69567855Y-51399686D01*
X69592454Y-51432546D01*
X69592455Y-51432546D01*
X69592456Y-51432548D01*
X69683540Y-51500734D01*
X69725411Y-51556668D01*
X69730395Y-51626359D01*
X69696909Y-51687682D01*
X69683540Y-51699266D01*
X69592456Y-51767451D01*
X69592454Y-51767454D01*
X69567856Y-51800312D01*
X69511924Y-51842182D01*
X69468591Y-51850000D01*
X69450000Y-51850000D01*
X69450000Y-51922844D01*
X69456619Y-51984398D01*
X69456620Y-52010909D01*
X69455909Y-52017514D01*
X69455909Y-52017517D01*
X69449500Y-52077127D01*
X69449500Y-52077134D01*
X69449500Y-52077135D01*
X69449500Y-52722870D01*
X69449501Y-52722879D01*
X69456367Y-52786751D01*
X69456367Y-52813257D01*
X69455909Y-52817516D01*
X69455909Y-52817517D01*
X69449500Y-52877127D01*
X69449500Y-52877128D01*
X69449500Y-52877132D01*
X69449500Y-53383810D01*
X69429815Y-53450849D01*
X69377011Y-53496604D01*
X69311619Y-53507031D01*
X69289856Y-53504579D01*
X69289854Y-53504579D01*
X69289853Y-53504579D01*
X69289852Y-53504579D01*
X69110606Y-53524774D01*
X69110598Y-53524776D01*
X68945189Y-53582655D01*
X68875410Y-53586216D01*
X68816554Y-53553294D01*
X68717853Y-53454593D01*
X68565114Y-53358620D01*
X68394845Y-53299040D01*
X68394840Y-53299039D01*
X68215595Y-53278844D01*
X68215587Y-53278844D01*
X68036341Y-53299039D01*
X68036328Y-53299042D01*
X67859497Y-53360919D01*
X67858835Y-53359029D01*
X67799578Y-53368774D01*
X67748774Y-53350699D01*
X67640849Y-53282885D01*
X67470580Y-53223305D01*
X67470575Y-53223304D01*
X67291330Y-53203109D01*
X67291322Y-53203109D01*
X67112076Y-53223304D01*
X67112071Y-53223305D01*
X66941802Y-53282885D01*
X66789056Y-53378862D01*
X66786130Y-53381196D01*
X66783886Y-53382111D01*
X66783168Y-53382563D01*
X66783088Y-53382436D01*
X66721439Y-53407594D01*
X66652745Y-53394826D01*
X66621152Y-53371917D01*
X65346693Y-52097458D01*
X65313208Y-52036135D01*
X65318192Y-51966443D01*
X65323354Y-51956076D01*
X65322769Y-51955795D01*
X65325786Y-51949529D01*
X65325787Y-51949523D01*
X65325789Y-51949522D01*
X65385368Y-51779255D01*
X65385369Y-51779249D01*
X65405565Y-51600003D01*
X65405565Y-51599996D01*
X65385369Y-51420750D01*
X65385368Y-51420745D01*
X65367501Y-51369685D01*
X65325789Y-51250478D01*
X65317573Y-51237403D01*
X65245611Y-51122876D01*
X65229816Y-51097738D01*
X65102262Y-50970184D01*
X65055173Y-50940596D01*
X64949523Y-50874211D01*
X64779254Y-50814631D01*
X64779249Y-50814630D01*
X64600004Y-50794435D01*
X64599996Y-50794435D01*
X64420750Y-50814630D01*
X64420745Y-50814631D01*
X64250476Y-50874211D01*
X64097737Y-50970184D01*
X63970184Y-51097737D01*
X63874211Y-51250476D01*
X63814631Y-51420745D01*
X63814630Y-51420749D01*
X63797719Y-51570846D01*
X63786575Y-51597365D01*
X63793476Y-51608103D01*
X63797719Y-51629154D01*
X63814630Y-51779250D01*
X63814631Y-51779254D01*
X63874211Y-51949523D01*
X63970182Y-52102259D01*
X63972441Y-52105091D01*
X63973330Y-52107268D01*
X63973889Y-52108158D01*
X63973733Y-52108255D01*
X63998854Y-52169776D01*
X63999499Y-52182410D01*
X63999499Y-52279054D01*
X63999498Y-52279054D01*
X64037586Y-52421200D01*
X64040423Y-52431785D01*
X64067716Y-52479057D01*
X64119479Y-52568714D01*
X64119481Y-52568717D01*
X64238349Y-52687585D01*
X64238355Y-52687590D01*
X66288584Y-54737819D01*
X66322069Y-54799142D01*
X66317085Y-54868834D01*
X66275213Y-54924767D01*
X66209749Y-54949184D01*
X66200903Y-54949500D01*
X65777129Y-54949500D01*
X65777120Y-54949501D01*
X65713248Y-54956367D01*
X65686742Y-54956367D01*
X65682483Y-54955909D01*
X65622873Y-54949500D01*
X65622864Y-54949500D01*
X64977129Y-54949500D01*
X64977120Y-54949501D01*
X64913248Y-54956367D01*
X64886742Y-54956367D01*
X64882483Y-54955909D01*
X64822873Y-54949500D01*
X64822864Y-54949500D01*
X64177129Y-54949500D01*
X64177120Y-54949501D01*
X64113248Y-54956367D01*
X64086742Y-54956367D01*
X64082483Y-54955909D01*
X64022873Y-54949500D01*
X64022867Y-54949500D01*
X63674499Y-54949500D01*
X63607460Y-54929815D01*
X63561705Y-54877011D01*
X63550499Y-54825500D01*
X63550499Y-54477129D01*
X63550499Y-54477128D01*
X63544091Y-54417517D01*
X63544089Y-54417513D01*
X63543632Y-54413255D01*
X63543632Y-54386745D01*
X63544089Y-54382486D01*
X63544091Y-54382483D01*
X63550500Y-54322873D01*
X63550499Y-53677128D01*
X63544091Y-53617517D01*
X63544089Y-53617513D01*
X63543632Y-53613255D01*
X63543632Y-53586745D01*
X63544089Y-53582486D01*
X63544091Y-53582483D01*
X63550500Y-53522873D01*
X63550499Y-52877128D01*
X63544091Y-52817517D01*
X63544090Y-52817516D01*
X63543380Y-52810904D01*
X63543381Y-52784393D01*
X63549999Y-52722842D01*
X63550000Y-52722827D01*
X63550000Y-52650000D01*
X63531409Y-52650000D01*
X63464370Y-52630315D01*
X63432144Y-52600313D01*
X63407546Y-52567454D01*
X63316457Y-52499265D01*
X63274588Y-52443333D01*
X63269604Y-52373641D01*
X63303089Y-52312318D01*
X63316452Y-52300738D01*
X63407546Y-52232546D01*
X63432143Y-52199687D01*
X63488076Y-52157818D01*
X63531409Y-52150000D01*
X63550000Y-52150000D01*
X63550000Y-52077172D01*
X63549999Y-52077160D01*
X63543380Y-52015604D01*
X63543380Y-51989090D01*
X63544090Y-51982485D01*
X63544091Y-51982483D01*
X63550500Y-51922873D01*
X63550499Y-51643036D01*
X63563105Y-51600102D01*
X63552359Y-51578356D01*
X63550499Y-51556962D01*
X63550499Y-51277129D01*
X63550499Y-51277128D01*
X63544091Y-51217517D01*
X63544090Y-51217516D01*
X63543380Y-51210904D01*
X63543381Y-51184393D01*
X63549999Y-51122842D01*
X63550000Y-51122827D01*
X63550000Y-51050000D01*
X63531409Y-51050000D01*
X63464370Y-51030315D01*
X63432144Y-51000313D01*
X63407546Y-50967454D01*
X63316457Y-50899265D01*
X63274588Y-50843333D01*
X63269604Y-50773641D01*
X63303089Y-50712318D01*
X63316452Y-50700738D01*
X63407546Y-50632546D01*
X63432143Y-50599687D01*
X63488076Y-50557818D01*
X63531409Y-50550000D01*
X63550000Y-50550000D01*
X63550000Y-50477172D01*
X63549999Y-50477160D01*
X63543380Y-50415604D01*
X63543380Y-50389090D01*
X63544090Y-50382485D01*
X63544091Y-50382483D01*
X63550500Y-50322873D01*
X63550499Y-49677128D01*
X63544091Y-49617517D01*
X63544089Y-49617513D01*
X63543632Y-49613255D01*
X63543632Y-49586745D01*
X63544089Y-49582486D01*
X63544091Y-49582483D01*
X63550500Y-49522873D01*
X63550499Y-49174498D01*
X63570183Y-49107460D01*
X63622987Y-49061705D01*
X63674499Y-49050499D01*
X64022871Y-49050499D01*
X64022872Y-49050499D01*
X64082483Y-49044091D01*
X64082486Y-49044089D01*
X64086744Y-49043632D01*
X64113254Y-49043632D01*
X64117514Y-49044089D01*
G37*
G04 #@! TD.AperFunction*
G04 #@! TA.AperFunction,Conductor*
G36*
X102942539Y-24020185D02*
G01*
X102988294Y-24072989D01*
X102999500Y-24124500D01*
X102999500Y-69375500D01*
X102979815Y-69442539D01*
X102927011Y-69488294D01*
X102875500Y-69499500D01*
X91786620Y-69499500D01*
X91719581Y-69479815D01*
X91673826Y-69427011D01*
X91663882Y-69357853D01*
X91692907Y-69294297D01*
X91698939Y-69287819D01*
X91726977Y-69259781D01*
X91854488Y-69077677D01*
X91948440Y-68876196D01*
X92005978Y-68661463D01*
X92025353Y-68440000D01*
X92005978Y-68218537D01*
X91948440Y-68003804D01*
X91854488Y-67802324D01*
X91854486Y-67802321D01*
X91854485Y-67802319D01*
X91726978Y-67620220D01*
X91726975Y-67620217D01*
X91569781Y-67463023D01*
X91429677Y-67364921D01*
X91387676Y-67335511D01*
X91325002Y-67306286D01*
X99349500Y-67306286D01*
X99374324Y-67463023D01*
X99382754Y-67516243D01*
X99416538Y-67620220D01*
X99448444Y-67718414D01*
X99544951Y-67907820D01*
X99669890Y-68079786D01*
X99820213Y-68230109D01*
X99992179Y-68355048D01*
X99992181Y-68355049D01*
X99992184Y-68355051D01*
X100181588Y-68451557D01*
X100383757Y-68517246D01*
X100593713Y-68550500D01*
X100593714Y-68550500D01*
X100806286Y-68550500D01*
X100806287Y-68550500D01*
X101016243Y-68517246D01*
X101218412Y-68451557D01*
X101407816Y-68355051D01*
X101429789Y-68339086D01*
X101579786Y-68230109D01*
X101579788Y-68230106D01*
X101579792Y-68230104D01*
X101730104Y-68079792D01*
X101730106Y-68079788D01*
X101730109Y-68079786D01*
X101855048Y-67907820D01*
X101855047Y-67907820D01*
X101855051Y-67907816D01*
X101951557Y-67718412D01*
X102017246Y-67516243D01*
X102050500Y-67306287D01*
X102050500Y-67093713D01*
X102017246Y-66883757D01*
X101951557Y-66681588D01*
X101855051Y-66492184D01*
X101855049Y-66492181D01*
X101855048Y-66492179D01*
X101730109Y-66320213D01*
X101579786Y-66169890D01*
X101407820Y-66044951D01*
X101218414Y-65948444D01*
X101218413Y-65948443D01*
X101218412Y-65948443D01*
X101016243Y-65882754D01*
X101016241Y-65882753D01*
X101016240Y-65882753D01*
X100854957Y-65857208D01*
X100806287Y-65849500D01*
X100593713Y-65849500D01*
X100545042Y-65857208D01*
X100383760Y-65882753D01*
X100181585Y-65948444D01*
X99992179Y-66044951D01*
X99820213Y-66169890D01*
X99669890Y-66320213D01*
X99544951Y-66492179D01*
X99448444Y-66681585D01*
X99382753Y-66883760D01*
X99349500Y-67093713D01*
X99349500Y-67306286D01*
X91325002Y-67306286D01*
X91286936Y-67288536D01*
X91186196Y-67241560D01*
X91186193Y-67241559D01*
X91186191Y-67241558D01*
X90971465Y-67184022D01*
X90971457Y-67184021D01*
X90750002Y-67164647D01*
X90749998Y-67164647D01*
X90528542Y-67184021D01*
X90528535Y-67184022D01*
X90313800Y-67241561D01*
X90112323Y-67335512D01*
X90112319Y-67335514D01*
X89930217Y-67463023D01*
X89773023Y-67620217D01*
X89645514Y-67802319D01*
X89645512Y-67802323D01*
X89551561Y-68003800D01*
X89494022Y-68218535D01*
X89494021Y-68218542D01*
X89474647Y-68439997D01*
X89474647Y-68440002D01*
X89494021Y-68661457D01*
X89494022Y-68661465D01*
X89551558Y-68876191D01*
X89551559Y-68876193D01*
X89551560Y-68876196D01*
X89578981Y-68935000D01*
X89645511Y-69077676D01*
X89645512Y-69077677D01*
X89773023Y-69259781D01*
X89773027Y-69259785D01*
X89801061Y-69287819D01*
X89834546Y-69349142D01*
X89829562Y-69418834D01*
X89787690Y-69474767D01*
X89722226Y-69499184D01*
X89713380Y-69499500D01*
X87007310Y-69499500D01*
X86940271Y-69479815D01*
X86919629Y-69463181D01*
X86375327Y-68918880D01*
X86441063Y-68901266D01*
X86553937Y-68836098D01*
X86646098Y-68743937D01*
X86711266Y-68631063D01*
X86728880Y-68565327D01*
X87307484Y-69143932D01*
X87354052Y-69077425D01*
X87447966Y-68876026D01*
X87447970Y-68876017D01*
X87505481Y-68661381D01*
X87505483Y-68661371D01*
X87524851Y-68440000D01*
X87524851Y-68439999D01*
X87505483Y-68218628D01*
X87505481Y-68218618D01*
X87447970Y-68003982D01*
X87447966Y-68003973D01*
X87354054Y-67802577D01*
X87307483Y-67736067D01*
X86728879Y-68314671D01*
X86711266Y-68248937D01*
X86646098Y-68136063D01*
X86553937Y-68043902D01*
X86441063Y-67978734D01*
X86375327Y-67961119D01*
X86953932Y-67382514D01*
X86953931Y-67382513D01*
X86887429Y-67335949D01*
X86686026Y-67242033D01*
X86686017Y-67242029D01*
X86471381Y-67184518D01*
X86471371Y-67184516D01*
X86250001Y-67165149D01*
X86249999Y-67165149D01*
X86028628Y-67184516D01*
X86028618Y-67184518D01*
X85813982Y-67242029D01*
X85813973Y-67242032D01*
X85612576Y-67335946D01*
X85612574Y-67335947D01*
X85546068Y-67382515D01*
X85546067Y-67382515D01*
X86124672Y-67961119D01*
X86058937Y-67978734D01*
X85946063Y-68043902D01*
X85853902Y-68136063D01*
X85788734Y-68248937D01*
X85771120Y-68314672D01*
X85192515Y-67736067D01*
X85192515Y-67736068D01*
X85145947Y-67802574D01*
X85145946Y-67802576D01*
X85052032Y-68003973D01*
X85052029Y-68003982D01*
X84994518Y-68218618D01*
X84994516Y-68218628D01*
X84975149Y-68439999D01*
X84975149Y-68440000D01*
X84994516Y-68661371D01*
X84994518Y-68661381D01*
X85052029Y-68876017D01*
X85052033Y-68876026D01*
X85145949Y-69077429D01*
X85192513Y-69143931D01*
X85192514Y-69143932D01*
X85771119Y-68565327D01*
X85788734Y-68631063D01*
X85853902Y-68743937D01*
X85946063Y-68836098D01*
X86058937Y-68901266D01*
X86124672Y-68918880D01*
X85580371Y-69463181D01*
X85519048Y-69496666D01*
X85492690Y-69499500D01*
X81786620Y-69499500D01*
X81719581Y-69479815D01*
X81673826Y-69427011D01*
X81663882Y-69357853D01*
X81692907Y-69294297D01*
X81698939Y-69287819D01*
X81726977Y-69259781D01*
X81854488Y-69077677D01*
X81948440Y-68876196D01*
X82005978Y-68661463D01*
X82025353Y-68440000D01*
X82005978Y-68218537D01*
X81948440Y-68003804D01*
X81854488Y-67802324D01*
X81854486Y-67802321D01*
X81854485Y-67802319D01*
X81726978Y-67620220D01*
X81726975Y-67620217D01*
X81569781Y-67463023D01*
X81429677Y-67364921D01*
X81387676Y-67335511D01*
X81286936Y-67288536D01*
X81186196Y-67241560D01*
X81186193Y-67241559D01*
X81186191Y-67241558D01*
X80971465Y-67184022D01*
X80971457Y-67184021D01*
X80750002Y-67164647D01*
X80749998Y-67164647D01*
X80528542Y-67184021D01*
X80528535Y-67184022D01*
X80313800Y-67241561D01*
X80112323Y-67335512D01*
X80112319Y-67335514D01*
X79930217Y-67463023D01*
X79773023Y-67620217D01*
X79645514Y-67802319D01*
X79645512Y-67802323D01*
X79551561Y-68003800D01*
X79494022Y-68218535D01*
X79494021Y-68218542D01*
X79474647Y-68439997D01*
X79474647Y-68440002D01*
X79494021Y-68661457D01*
X79494022Y-68661465D01*
X79551558Y-68876191D01*
X79551559Y-68876193D01*
X79551560Y-68876196D01*
X79578981Y-68935000D01*
X79645511Y-69077676D01*
X79645512Y-69077677D01*
X79773023Y-69259781D01*
X79773027Y-69259785D01*
X79801061Y-69287819D01*
X79834546Y-69349142D01*
X79829562Y-69418834D01*
X79787690Y-69474767D01*
X79722226Y-69499184D01*
X79713380Y-69499500D01*
X77007310Y-69499500D01*
X76940271Y-69479815D01*
X76919629Y-69463181D01*
X76375327Y-68918880D01*
X76441063Y-68901266D01*
X76553937Y-68836098D01*
X76646098Y-68743937D01*
X76711266Y-68631063D01*
X76728880Y-68565327D01*
X77307484Y-69143932D01*
X77354052Y-69077425D01*
X77447966Y-68876026D01*
X77447970Y-68876017D01*
X77505481Y-68661381D01*
X77505483Y-68661371D01*
X77524851Y-68440000D01*
X77524851Y-68439999D01*
X77505483Y-68218628D01*
X77505481Y-68218618D01*
X77447970Y-68003982D01*
X77447966Y-68003973D01*
X77354054Y-67802577D01*
X77307483Y-67736067D01*
X76728879Y-68314671D01*
X76711266Y-68248937D01*
X76646098Y-68136063D01*
X76553937Y-68043902D01*
X76441063Y-67978734D01*
X76375327Y-67961119D01*
X76953932Y-67382514D01*
X76953931Y-67382513D01*
X76887429Y-67335949D01*
X76686026Y-67242033D01*
X76686017Y-67242029D01*
X76471381Y-67184518D01*
X76471371Y-67184516D01*
X76250001Y-67165149D01*
X76249999Y-67165149D01*
X76028628Y-67184516D01*
X76028618Y-67184518D01*
X75813982Y-67242029D01*
X75813973Y-67242032D01*
X75612576Y-67335946D01*
X75612574Y-67335947D01*
X75546068Y-67382515D01*
X75546067Y-67382515D01*
X76124672Y-67961119D01*
X76058937Y-67978734D01*
X75946063Y-68043902D01*
X75853902Y-68136063D01*
X75788734Y-68248937D01*
X75771120Y-68314672D01*
X75192515Y-67736067D01*
X75192515Y-67736068D01*
X75145947Y-67802574D01*
X75145946Y-67802576D01*
X75052032Y-68003973D01*
X75052029Y-68003982D01*
X74994518Y-68218618D01*
X74994516Y-68218628D01*
X74975149Y-68439999D01*
X74975149Y-68440000D01*
X74994516Y-68661371D01*
X74994518Y-68661381D01*
X75052029Y-68876017D01*
X75052033Y-68876026D01*
X75145949Y-69077429D01*
X75192513Y-69143931D01*
X75192514Y-69143932D01*
X75771119Y-68565327D01*
X75788734Y-68631063D01*
X75853902Y-68743937D01*
X75946063Y-68836098D01*
X76058937Y-68901266D01*
X76124672Y-68918880D01*
X75580371Y-69463181D01*
X75519048Y-69496666D01*
X75492690Y-69499500D01*
X71786620Y-69499500D01*
X71719581Y-69479815D01*
X71673826Y-69427011D01*
X71663882Y-69357853D01*
X71692907Y-69294297D01*
X71698939Y-69287819D01*
X71726977Y-69259781D01*
X71854488Y-69077677D01*
X71948440Y-68876196D01*
X72005978Y-68661463D01*
X72025353Y-68440000D01*
X72005978Y-68218537D01*
X71948440Y-68003804D01*
X71854488Y-67802324D01*
X71854486Y-67802321D01*
X71854485Y-67802319D01*
X71726978Y-67620220D01*
X71726975Y-67620217D01*
X71569781Y-67463023D01*
X71429677Y-67364921D01*
X71387676Y-67335511D01*
X71286936Y-67288536D01*
X71186196Y-67241560D01*
X71186193Y-67241559D01*
X71186191Y-67241558D01*
X70971465Y-67184022D01*
X70971457Y-67184021D01*
X70750002Y-67164647D01*
X70749998Y-67164647D01*
X70528542Y-67184021D01*
X70528535Y-67184022D01*
X70313800Y-67241561D01*
X70112323Y-67335512D01*
X70112319Y-67335514D01*
X69930217Y-67463023D01*
X69773023Y-67620217D01*
X69645514Y-67802319D01*
X69645512Y-67802323D01*
X69551561Y-68003800D01*
X69494022Y-68218535D01*
X69494021Y-68218542D01*
X69474647Y-68439997D01*
X69474647Y-68440002D01*
X69494021Y-68661457D01*
X69494022Y-68661465D01*
X69551558Y-68876191D01*
X69551559Y-68876193D01*
X69551560Y-68876196D01*
X69578981Y-68935000D01*
X69645511Y-69077676D01*
X69645512Y-69077677D01*
X69773023Y-69259781D01*
X69773027Y-69259785D01*
X69801061Y-69287819D01*
X69834546Y-69349142D01*
X69829562Y-69418834D01*
X69787690Y-69474767D01*
X69722226Y-69499184D01*
X69713380Y-69499500D01*
X67007310Y-69499500D01*
X66940271Y-69479815D01*
X66919629Y-69463181D01*
X66375327Y-68918880D01*
X66441063Y-68901266D01*
X66553937Y-68836098D01*
X66646098Y-68743937D01*
X66711266Y-68631063D01*
X66728879Y-68565327D01*
X67307484Y-69143932D01*
X67354052Y-69077425D01*
X67447966Y-68876026D01*
X67447970Y-68876017D01*
X67505481Y-68661381D01*
X67505483Y-68661371D01*
X67524851Y-68440000D01*
X67524851Y-68439999D01*
X67505483Y-68218628D01*
X67505481Y-68218618D01*
X67447970Y-68003982D01*
X67447966Y-68003973D01*
X67354054Y-67802577D01*
X67307483Y-67736067D01*
X66728879Y-68314671D01*
X66711266Y-68248937D01*
X66646098Y-68136063D01*
X66553937Y-68043902D01*
X66441063Y-67978734D01*
X66375327Y-67961119D01*
X66953932Y-67382514D01*
X66953931Y-67382513D01*
X66887429Y-67335949D01*
X66686026Y-67242033D01*
X66686017Y-67242029D01*
X66471381Y-67184518D01*
X66471371Y-67184516D01*
X66250001Y-67165149D01*
X66249999Y-67165149D01*
X66028628Y-67184516D01*
X66028618Y-67184518D01*
X65813982Y-67242029D01*
X65813973Y-67242032D01*
X65612576Y-67335946D01*
X65612574Y-67335947D01*
X65546068Y-67382515D01*
X65546067Y-67382515D01*
X66124672Y-67961119D01*
X66058937Y-67978734D01*
X65946063Y-68043902D01*
X65853902Y-68136063D01*
X65788734Y-68248937D01*
X65771120Y-68314672D01*
X65192515Y-67736067D01*
X65192515Y-67736068D01*
X65145947Y-67802574D01*
X65145946Y-67802576D01*
X65052032Y-68003973D01*
X65052029Y-68003982D01*
X64994518Y-68218618D01*
X64994516Y-68218628D01*
X64975149Y-68439999D01*
X64975149Y-68440000D01*
X64994516Y-68661371D01*
X64994518Y-68661381D01*
X65052029Y-68876017D01*
X65052033Y-68876026D01*
X65145949Y-69077429D01*
X65192513Y-69143931D01*
X65192514Y-69143932D01*
X65771119Y-68565327D01*
X65788734Y-68631063D01*
X65853902Y-68743937D01*
X65946063Y-68836098D01*
X66058937Y-68901266D01*
X66124672Y-68918880D01*
X65580371Y-69463181D01*
X65519048Y-69496666D01*
X65492690Y-69499500D01*
X61786620Y-69499500D01*
X61719581Y-69479815D01*
X61673826Y-69427011D01*
X61663882Y-69357853D01*
X61692907Y-69294297D01*
X61698939Y-69287819D01*
X61726977Y-69259781D01*
X61854488Y-69077677D01*
X61948440Y-68876196D01*
X62005978Y-68661463D01*
X62025353Y-68440000D01*
X62005978Y-68218537D01*
X61948440Y-68003804D01*
X61854488Y-67802324D01*
X61854486Y-67802321D01*
X61854485Y-67802319D01*
X61726978Y-67620220D01*
X61726975Y-67620217D01*
X61569781Y-67463023D01*
X61429677Y-67364921D01*
X61387676Y-67335511D01*
X61286936Y-67288536D01*
X61186196Y-67241560D01*
X61186193Y-67241559D01*
X61186191Y-67241558D01*
X60971465Y-67184022D01*
X60971457Y-67184021D01*
X60750002Y-67164647D01*
X60749998Y-67164647D01*
X60528542Y-67184021D01*
X60528535Y-67184022D01*
X60313800Y-67241561D01*
X60112323Y-67335512D01*
X60112319Y-67335514D01*
X59930217Y-67463023D01*
X59773023Y-67620217D01*
X59645514Y-67802319D01*
X59645512Y-67802323D01*
X59551561Y-68003800D01*
X59494022Y-68218535D01*
X59494021Y-68218542D01*
X59474647Y-68439997D01*
X59474647Y-68440002D01*
X59494021Y-68661457D01*
X59494022Y-68661465D01*
X59551558Y-68876191D01*
X59551559Y-68876193D01*
X59551560Y-68876196D01*
X59578981Y-68935000D01*
X59645511Y-69077676D01*
X59645512Y-69077677D01*
X59773023Y-69259781D01*
X59773027Y-69259785D01*
X59801061Y-69287819D01*
X59834546Y-69349142D01*
X59829562Y-69418834D01*
X59787690Y-69474767D01*
X59722226Y-69499184D01*
X59713380Y-69499500D01*
X57007310Y-69499500D01*
X56940271Y-69479815D01*
X56919629Y-69463181D01*
X56375327Y-68918880D01*
X56441063Y-68901266D01*
X56553937Y-68836098D01*
X56646098Y-68743937D01*
X56711266Y-68631063D01*
X56728880Y-68565327D01*
X57307484Y-69143932D01*
X57354052Y-69077425D01*
X57447966Y-68876026D01*
X57447970Y-68876017D01*
X57505481Y-68661381D01*
X57505483Y-68661371D01*
X57524851Y-68440000D01*
X57524851Y-68439999D01*
X57505483Y-68218628D01*
X57505481Y-68218618D01*
X57447970Y-68003982D01*
X57447966Y-68003973D01*
X57354054Y-67802577D01*
X57307483Y-67736067D01*
X56728879Y-68314671D01*
X56711266Y-68248937D01*
X56646098Y-68136063D01*
X56553937Y-68043902D01*
X56441063Y-67978734D01*
X56375327Y-67961119D01*
X56953932Y-67382514D01*
X56953931Y-67382513D01*
X56887429Y-67335949D01*
X56686026Y-67242033D01*
X56686017Y-67242029D01*
X56471381Y-67184518D01*
X56471371Y-67184516D01*
X56250001Y-67165149D01*
X56249999Y-67165149D01*
X56028628Y-67184516D01*
X56028618Y-67184518D01*
X55813982Y-67242029D01*
X55813973Y-67242032D01*
X55612576Y-67335946D01*
X55612574Y-67335947D01*
X55546068Y-67382515D01*
X55546067Y-67382515D01*
X56124672Y-67961119D01*
X56058937Y-67978734D01*
X55946063Y-68043902D01*
X55853902Y-68136063D01*
X55788734Y-68248937D01*
X55771120Y-68314672D01*
X55192515Y-67736067D01*
X55192515Y-67736068D01*
X55145947Y-67802574D01*
X55145946Y-67802576D01*
X55052032Y-68003973D01*
X55052029Y-68003982D01*
X54994518Y-68218618D01*
X54994516Y-68218628D01*
X54975149Y-68439999D01*
X54975149Y-68440000D01*
X54994516Y-68661371D01*
X54994518Y-68661381D01*
X55052029Y-68876017D01*
X55052033Y-68876026D01*
X55145949Y-69077429D01*
X55192513Y-69143931D01*
X55192514Y-69143932D01*
X55771119Y-68565327D01*
X55788734Y-68631063D01*
X55853902Y-68743937D01*
X55946063Y-68836098D01*
X56058937Y-68901266D01*
X56124672Y-68918880D01*
X55580371Y-69463181D01*
X55519048Y-69496666D01*
X55492690Y-69499500D01*
X44124500Y-69499500D01*
X44057461Y-69479815D01*
X44011706Y-69427011D01*
X44000500Y-69375500D01*
X44000500Y-67306286D01*
X44949500Y-67306286D01*
X44974324Y-67463023D01*
X44982754Y-67516243D01*
X45016538Y-67620220D01*
X45048444Y-67718414D01*
X45144951Y-67907820D01*
X45269890Y-68079786D01*
X45420213Y-68230109D01*
X45592179Y-68355048D01*
X45592181Y-68355049D01*
X45592184Y-68355051D01*
X45781588Y-68451557D01*
X45983757Y-68517246D01*
X46193713Y-68550500D01*
X46193714Y-68550500D01*
X46406286Y-68550500D01*
X46406287Y-68550500D01*
X46616243Y-68517246D01*
X46818412Y-68451557D01*
X47007816Y-68355051D01*
X47029789Y-68339086D01*
X47179786Y-68230109D01*
X47179788Y-68230106D01*
X47179792Y-68230104D01*
X47330104Y-68079792D01*
X47330106Y-68079788D01*
X47330109Y-68079786D01*
X47455048Y-67907820D01*
X47455047Y-67907820D01*
X47455051Y-67907816D01*
X47551557Y-67718412D01*
X47617246Y-67516243D01*
X47650500Y-67306287D01*
X47650500Y-67093713D01*
X47617246Y-66883757D01*
X47551557Y-66681588D01*
X47455051Y-66492184D01*
X47455049Y-66492181D01*
X47455048Y-66492179D01*
X47330109Y-66320213D01*
X47179786Y-66169890D01*
X47007820Y-66044951D01*
X46818414Y-65948444D01*
X46818413Y-65948443D01*
X46818412Y-65948443D01*
X46616243Y-65882754D01*
X46616241Y-65882753D01*
X46616240Y-65882753D01*
X46454957Y-65857208D01*
X46406287Y-65849500D01*
X46193713Y-65849500D01*
X46145042Y-65857208D01*
X45983760Y-65882753D01*
X45781585Y-65948444D01*
X45592179Y-66044951D01*
X45420213Y-66169890D01*
X45269890Y-66320213D01*
X45144951Y-66492179D01*
X45048444Y-66681585D01*
X44982753Y-66883760D01*
X44949500Y-67093713D01*
X44949500Y-67306286D01*
X44000500Y-67306286D01*
X44000500Y-60300000D01*
X45344341Y-60300000D01*
X45364936Y-60535403D01*
X45364938Y-60535413D01*
X45426094Y-60763655D01*
X45426096Y-60763659D01*
X45426097Y-60763663D01*
X45506004Y-60935023D01*
X45525965Y-60977830D01*
X45525967Y-60977834D01*
X45604567Y-61090085D01*
X45661501Y-61171396D01*
X45661506Y-61171402D01*
X45783430Y-61293326D01*
X45816915Y-61354649D01*
X45811931Y-61424341D01*
X45770059Y-61480274D01*
X45739083Y-61497189D01*
X45607669Y-61546203D01*
X45607664Y-61546206D01*
X45492455Y-61632452D01*
X45492452Y-61632455D01*
X45406206Y-61747664D01*
X45406202Y-61747671D01*
X45355908Y-61882517D01*
X45349501Y-61942116D01*
X45349500Y-61942135D01*
X45349500Y-63737870D01*
X45349501Y-63737876D01*
X45355908Y-63797483D01*
X45406202Y-63932328D01*
X45406206Y-63932335D01*
X45492452Y-64047544D01*
X45492455Y-64047547D01*
X45607664Y-64133793D01*
X45607671Y-64133797D01*
X45742517Y-64184091D01*
X45742516Y-64184091D01*
X45749444Y-64184835D01*
X45802127Y-64190500D01*
X47597872Y-64190499D01*
X47657483Y-64184091D01*
X47792331Y-64133796D01*
X47907546Y-64047546D01*
X47993796Y-63932331D01*
X48042810Y-63800916D01*
X48084681Y-63744984D01*
X48150145Y-63720566D01*
X48218418Y-63735417D01*
X48246673Y-63756569D01*
X48368599Y-63878495D01*
X48465384Y-63946265D01*
X48562165Y-64014032D01*
X48562167Y-64014033D01*
X48562170Y-64014035D01*
X48776337Y-64113903D01*
X49004592Y-64175063D01*
X49181034Y-64190500D01*
X49239999Y-64195659D01*
X49240000Y-64195659D01*
X49240001Y-64195659D01*
X49298966Y-64190500D01*
X49475408Y-64175063D01*
X49703663Y-64113903D01*
X49917830Y-64014035D01*
X50111401Y-63878495D01*
X50278495Y-63711401D01*
X50408425Y-63525842D01*
X50463002Y-63482217D01*
X50532500Y-63475023D01*
X50594855Y-63506546D01*
X50611575Y-63525842D01*
X50741500Y-63711395D01*
X50741505Y-63711401D01*
X50908599Y-63878495D01*
X51005384Y-63946265D01*
X51102165Y-64014032D01*
X51102167Y-64014033D01*
X51102170Y-64014035D01*
X51316337Y-64113903D01*
X51544592Y-64175063D01*
X51721034Y-64190500D01*
X51779999Y-64195659D01*
X51780000Y-64195659D01*
X51780001Y-64195659D01*
X51838966Y-64190500D01*
X52015408Y-64175063D01*
X52243663Y-64113903D01*
X52457830Y-64014035D01*
X52651401Y-63878495D01*
X52818495Y-63711401D01*
X52954035Y-63517830D01*
X53053903Y-63303663D01*
X53115063Y-63075408D01*
X53135659Y-62840000D01*
X53115063Y-62604592D01*
X53053903Y-62376337D01*
X52954035Y-62162171D01*
X52953540Y-62161463D01*
X52818494Y-61968597D01*
X52651402Y-61801506D01*
X52651401Y-61801505D01*
X52465405Y-61671269D01*
X52421781Y-61616692D01*
X52414588Y-61547193D01*
X52446110Y-61484839D01*
X52465405Y-61468119D01*
X52651082Y-61338105D01*
X52818105Y-61171082D01*
X52953600Y-60977578D01*
X53053429Y-60763492D01*
X53053432Y-60763486D01*
X53110636Y-60550000D01*
X52213012Y-60550000D01*
X52245925Y-60492993D01*
X52280000Y-60365826D01*
X52280000Y-60234174D01*
X52245925Y-60107007D01*
X52213012Y-60050000D01*
X53110636Y-60050000D01*
X53110635Y-60049999D01*
X53053432Y-59836513D01*
X53053429Y-59836507D01*
X52953600Y-59622422D01*
X52953599Y-59622420D01*
X52818113Y-59428926D01*
X52818108Y-59428920D01*
X52651082Y-59261894D01*
X52457578Y-59126399D01*
X52243492Y-59026570D01*
X52243486Y-59026567D01*
X52030000Y-58969364D01*
X52030000Y-59866988D01*
X51972993Y-59834075D01*
X51845826Y-59800000D01*
X51714174Y-59800000D01*
X51587007Y-59834075D01*
X51530000Y-59866988D01*
X51530000Y-58969364D01*
X51529999Y-58969364D01*
X51316513Y-59026567D01*
X51316507Y-59026570D01*
X51102422Y-59126399D01*
X51102420Y-59126400D01*
X50908926Y-59261886D01*
X50908920Y-59261891D01*
X50741891Y-59428920D01*
X50741890Y-59428922D01*
X50611880Y-59614595D01*
X50557303Y-59658219D01*
X50487804Y-59665412D01*
X50425450Y-59633890D01*
X50408730Y-59614594D01*
X50278494Y-59428597D01*
X50111402Y-59261506D01*
X50111395Y-59261501D01*
X50088850Y-59245715D01*
X50042600Y-59213330D01*
X49917834Y-59125967D01*
X49917830Y-59125965D01*
X49848672Y-59093716D01*
X49703663Y-59026097D01*
X49703659Y-59026096D01*
X49703655Y-59026094D01*
X49475413Y-58964938D01*
X49475403Y-58964936D01*
X49240001Y-58944341D01*
X49239998Y-58944341D01*
X49212154Y-58946777D01*
X49143654Y-58933010D01*
X49093471Y-58884395D01*
X49077538Y-58816366D01*
X49100913Y-58750523D01*
X49113666Y-58735568D01*
X49201309Y-58647926D01*
X50212417Y-57636819D01*
X50273740Y-57603334D01*
X50300098Y-57600500D01*
X56287403Y-57600500D01*
X56354442Y-57620185D01*
X56375084Y-57636819D01*
X56950681Y-58212416D01*
X56984166Y-58273739D01*
X56987000Y-58300097D01*
X56987000Y-58542388D01*
X56967315Y-58609427D01*
X56928098Y-58647926D01*
X56876650Y-58679659D01*
X56754661Y-58801648D01*
X56664093Y-58948481D01*
X56664091Y-58948486D01*
X56647244Y-58999327D01*
X56609826Y-59112247D01*
X56609826Y-59112248D01*
X56609825Y-59112248D01*
X56599500Y-59213315D01*
X56599500Y-59786669D01*
X56599501Y-59786687D01*
X56609825Y-59887752D01*
X56613851Y-59899901D01*
X56663589Y-60049999D01*
X56664092Y-60051515D01*
X56664093Y-60051518D01*
X56754661Y-60198351D01*
X56876649Y-60320339D01*
X56876653Y-60320342D01*
X56951053Y-60366233D01*
X56997778Y-60418181D01*
X57005730Y-60439675D01*
X57027921Y-60522489D01*
X57027924Y-60522497D01*
X57035376Y-60535404D01*
X57035379Y-60535408D01*
X57106977Y-60659421D01*
X57106981Y-60659426D01*
X57206392Y-60758837D01*
X57239877Y-60820160D01*
X57234893Y-60889852D01*
X57193021Y-60945785D01*
X57127557Y-60970202D01*
X57059284Y-60955350D01*
X57047588Y-60948093D01*
X56887430Y-60835949D01*
X56887426Y-60835947D01*
X56686026Y-60742033D01*
X56686017Y-60742029D01*
X56471381Y-60684518D01*
X56471371Y-60684516D01*
X56250001Y-60665149D01*
X56249999Y-60665149D01*
X56028628Y-60684516D01*
X56028618Y-60684518D01*
X55813982Y-60742029D01*
X55813973Y-60742032D01*
X55612576Y-60835946D01*
X55612574Y-60835947D01*
X55546068Y-60882515D01*
X55546067Y-60882515D01*
X56124672Y-61461119D01*
X56058937Y-61478734D01*
X55946063Y-61543902D01*
X55853902Y-61636063D01*
X55788734Y-61748937D01*
X55771120Y-61814672D01*
X55192515Y-61236067D01*
X55192515Y-61236068D01*
X55145947Y-61302574D01*
X55145946Y-61302576D01*
X55052032Y-61503973D01*
X55052029Y-61503982D01*
X54994518Y-61718618D01*
X54994516Y-61718628D01*
X54975149Y-61939999D01*
X54975149Y-61940000D01*
X54994516Y-62161371D01*
X54994518Y-62161381D01*
X55052029Y-62376017D01*
X55052033Y-62376026D01*
X55145949Y-62577429D01*
X55192513Y-62643931D01*
X55192514Y-62643932D01*
X55771119Y-62065327D01*
X55788734Y-62131063D01*
X55853902Y-62243937D01*
X55946063Y-62336098D01*
X56058937Y-62401266D01*
X56124672Y-62418880D01*
X55546066Y-62997484D01*
X55546067Y-62997485D01*
X55612570Y-63044050D01*
X55813973Y-63137966D01*
X55813982Y-63137970D01*
X56028618Y-63195481D01*
X56028628Y-63195483D01*
X56249999Y-63214851D01*
X56250001Y-63214851D01*
X56471371Y-63195483D01*
X56471381Y-63195481D01*
X56686017Y-63137970D01*
X56686026Y-63137966D01*
X56887425Y-63044052D01*
X56953932Y-62997484D01*
X56375327Y-62418880D01*
X56441063Y-62401266D01*
X56553937Y-62336098D01*
X56646098Y-62243937D01*
X56711266Y-62131063D01*
X56728880Y-62065327D01*
X57307484Y-62643932D01*
X57354052Y-62577425D01*
X57447966Y-62376026D01*
X57447970Y-62376017D01*
X57505481Y-62161381D01*
X57505483Y-62161371D01*
X57524851Y-61940000D01*
X57524851Y-61939999D01*
X57505483Y-61718628D01*
X57505481Y-61718618D01*
X57447970Y-61503982D01*
X57447967Y-61503973D01*
X57354053Y-61302576D01*
X57354052Y-61302574D01*
X57241903Y-61142407D01*
X57219576Y-61076201D01*
X57236586Y-61008433D01*
X57287535Y-60960621D01*
X57356244Y-60947943D01*
X57420901Y-60974425D01*
X57431159Y-60983603D01*
X60411930Y-63964374D01*
X60411940Y-63964385D01*
X60416270Y-63968715D01*
X60416271Y-63968716D01*
X60528075Y-64080520D01*
X60528077Y-64080521D01*
X60585897Y-64113903D01*
X60585898Y-64113903D01*
X60605674Y-64125321D01*
X60665000Y-64159574D01*
X60665001Y-64159574D01*
X60665006Y-64159577D01*
X60817733Y-64200500D01*
X60817734Y-64200500D01*
X70113331Y-64200500D01*
X70113347Y-64200501D01*
X70120943Y-64200501D01*
X70286653Y-64200501D01*
X70286669Y-64200500D01*
X80813331Y-64200500D01*
X80813347Y-64200501D01*
X80820943Y-64200501D01*
X80986653Y-64200501D01*
X80986669Y-64200500D01*
X89520942Y-64200500D01*
X89520943Y-64200500D01*
X91016540Y-64200500D01*
X91016556Y-64200501D01*
X91024152Y-64200501D01*
X91182263Y-64200501D01*
X91182266Y-64200501D01*
X91334994Y-64159577D01*
X91414103Y-64113903D01*
X91471925Y-64080520D01*
X91583729Y-63968716D01*
X91583729Y-63968714D01*
X91593933Y-63958511D01*
X91593937Y-63958506D01*
X92678506Y-62873937D01*
X92678511Y-62873933D01*
X92688714Y-62863729D01*
X92688716Y-62863729D01*
X92800520Y-62751925D01*
X92879577Y-62614993D01*
X92920500Y-62462266D01*
X92920500Y-59398443D01*
X92900955Y-59325500D01*
X92879577Y-59245715D01*
X92810439Y-59125965D01*
X92800520Y-59108784D01*
X92800519Y-59108783D01*
X92800518Y-59108781D01*
X92684397Y-58992660D01*
X92684374Y-58992639D01*
X91691735Y-58000000D01*
X97709752Y-58000000D01*
X97728714Y-58240945D01*
X97785135Y-58475958D01*
X97877628Y-58699258D01*
X98003909Y-58905330D01*
X98003910Y-58905332D01*
X98037227Y-58944341D01*
X98160880Y-59089120D01*
X98297167Y-59205520D01*
X98344667Y-59246089D01*
X98344669Y-59246090D01*
X98550741Y-59372371D01*
X98612589Y-59397989D01*
X98774037Y-59464863D01*
X99009052Y-59521285D01*
X99250000Y-59540248D01*
X99490948Y-59521285D01*
X99725963Y-59464863D01*
X99949258Y-59372371D01*
X100155335Y-59246087D01*
X100339120Y-59089120D01*
X100496087Y-58905335D01*
X100622371Y-58699258D01*
X100714863Y-58475963D01*
X100771285Y-58240948D01*
X100790248Y-58000000D01*
X100771285Y-57759052D01*
X100714863Y-57524037D01*
X100649163Y-57365423D01*
X100622371Y-57300741D01*
X100496090Y-57094669D01*
X100496089Y-57094667D01*
X100460627Y-57053147D01*
X100339120Y-56910880D01*
X100208711Y-56799500D01*
X100155332Y-56753910D01*
X100155330Y-56753909D01*
X99949258Y-56627628D01*
X99725958Y-56535135D01*
X99490944Y-56478714D01*
X99490945Y-56478714D01*
X99250000Y-56459752D01*
X99009054Y-56478714D01*
X98774041Y-56535135D01*
X98550741Y-56627628D01*
X98344669Y-56753909D01*
X98344667Y-56753910D01*
X98160880Y-56910880D01*
X98003910Y-57094667D01*
X98003909Y-57094669D01*
X97877628Y-57300741D01*
X97785135Y-57524041D01*
X97728714Y-57759054D01*
X97709752Y-58000000D01*
X91691735Y-58000000D01*
X87191735Y-53500000D01*
X90069859Y-53500000D01*
X90090378Y-53721439D01*
X90151240Y-53935350D01*
X90250369Y-54134428D01*
X90266137Y-54155308D01*
X90266138Y-54155308D01*
X90832861Y-53588584D01*
X90855667Y-53673694D01*
X90914910Y-53776306D01*
X90998694Y-53860090D01*
X91101306Y-53919333D01*
X91186414Y-53942137D01*
X90621672Y-54506879D01*
X90621672Y-54506880D01*
X90737821Y-54578797D01*
X90737822Y-54578798D01*
X90945195Y-54659134D01*
X91163807Y-54700000D01*
X91386193Y-54700000D01*
X91604809Y-54659133D01*
X91812168Y-54578801D01*
X91812181Y-54578795D01*
X91928326Y-54506879D01*
X91363585Y-53942137D01*
X91448694Y-53919333D01*
X91551306Y-53860090D01*
X91635090Y-53776306D01*
X91694333Y-53673694D01*
X91717138Y-53588585D01*
X92283861Y-54155308D01*
X92299631Y-54134425D01*
X92299636Y-54134418D01*
X92398759Y-53935350D01*
X92459621Y-53721439D01*
X92480141Y-53500000D01*
X92480141Y-53499999D01*
X92459621Y-53278560D01*
X92398759Y-53064649D01*
X92299635Y-52865580D01*
X92299630Y-52865572D01*
X92283860Y-52844690D01*
X91717137Y-53411413D01*
X91694333Y-53326306D01*
X91635090Y-53223694D01*
X91551306Y-53139910D01*
X91448694Y-53080667D01*
X91363585Y-53057862D01*
X91928327Y-52493119D01*
X91812178Y-52421202D01*
X91812177Y-52421201D01*
X91604804Y-52340865D01*
X91386193Y-52300000D01*
X91163807Y-52300000D01*
X90945195Y-52340865D01*
X90737824Y-52421200D01*
X90737823Y-52421201D01*
X90621671Y-52493119D01*
X91186414Y-53057861D01*
X91101306Y-53080667D01*
X90998694Y-53139910D01*
X90914910Y-53223694D01*
X90855667Y-53326306D01*
X90832861Y-53411414D01*
X90266138Y-52844691D01*
X90266137Y-52844691D01*
X90250368Y-52865574D01*
X90151240Y-53064649D01*
X90090378Y-53278560D01*
X90069859Y-53499999D01*
X90069859Y-53500000D01*
X87191735Y-53500000D01*
X85898915Y-52207180D01*
X85865430Y-52145857D01*
X85870414Y-52076165D01*
X85912286Y-52020232D01*
X85977750Y-51995815D01*
X85986596Y-51995499D01*
X86185371Y-51995499D01*
X86185372Y-51995499D01*
X86244983Y-51989091D01*
X86379831Y-51938796D01*
X86495046Y-51852546D01*
X86495048Y-51852543D01*
X86499192Y-51849441D01*
X86564656Y-51825023D01*
X86632929Y-51839874D01*
X86682335Y-51889279D01*
X86691209Y-51909702D01*
X86702682Y-51944326D01*
X86702687Y-51944337D01*
X86709928Y-51956076D01*
X86794788Y-52093656D01*
X86918844Y-52217712D01*
X87068165Y-52309814D01*
X87234702Y-52364999D01*
X87337490Y-52375500D01*
X87337495Y-52375500D01*
X88462505Y-52375500D01*
X88462510Y-52375500D01*
X88565298Y-52364999D01*
X88731835Y-52309814D01*
X88881156Y-52217712D01*
X89005212Y-52093656D01*
X89097314Y-51944335D01*
X89152499Y-51777798D01*
X89162999Y-51675017D01*
X92612000Y-51675017D01*
X92622500Y-51777796D01*
X92677685Y-51944332D01*
X92677687Y-51944337D01*
X92684928Y-51956076D01*
X92769788Y-52093656D01*
X92893844Y-52217712D01*
X93043165Y-52309814D01*
X93209702Y-52364999D01*
X93312490Y-52375500D01*
X93312495Y-52375500D01*
X94437505Y-52375500D01*
X94437510Y-52375500D01*
X94459418Y-52373261D01*
X94528109Y-52386028D01*
X94559703Y-52408938D01*
X96770520Y-54619755D01*
X96804005Y-54681078D01*
X96802615Y-54739526D01*
X96789992Y-54786639D01*
X96789990Y-54786649D01*
X96771325Y-54999998D01*
X96771325Y-55000002D01*
X96789990Y-55213351D01*
X96789992Y-55213362D01*
X96845420Y-55420224D01*
X96845422Y-55420228D01*
X96845423Y-55420232D01*
X96883552Y-55502000D01*
X96935935Y-55614337D01*
X96935936Y-55614338D01*
X97058780Y-55789777D01*
X97210223Y-55941220D01*
X97385662Y-56064064D01*
X97579768Y-56154577D01*
X97786643Y-56210009D01*
X97939040Y-56223341D01*
X97999998Y-56228675D01*
X98000000Y-56228675D01*
X98000002Y-56228675D01*
X98053339Y-56224008D01*
X98213357Y-56210009D01*
X98420232Y-56154577D01*
X98614338Y-56064064D01*
X98789777Y-55941220D01*
X98941220Y-55789777D01*
X99064064Y-55614338D01*
X99137618Y-55456599D01*
X99183790Y-55404161D01*
X99250984Y-55385009D01*
X99317865Y-55405225D01*
X99362381Y-55456599D01*
X99435936Y-55614338D01*
X99558780Y-55789777D01*
X99710223Y-55941220D01*
X99885662Y-56064064D01*
X100079768Y-56154577D01*
X100286643Y-56210009D01*
X100439040Y-56223341D01*
X100499998Y-56228675D01*
X100500000Y-56228675D01*
X100500002Y-56228675D01*
X100553339Y-56224008D01*
X100713357Y-56210009D01*
X100920232Y-56154577D01*
X101114338Y-56064064D01*
X101289777Y-55941220D01*
X101441220Y-55789777D01*
X101564064Y-55614338D01*
X101654577Y-55420232D01*
X101710009Y-55213357D01*
X101728675Y-55000000D01*
X101725979Y-54969189D01*
X101717915Y-54877011D01*
X101710009Y-54786643D01*
X101667920Y-54629564D01*
X101654579Y-54579775D01*
X101654578Y-54579774D01*
X101654577Y-54579768D01*
X101564064Y-54385663D01*
X101564062Y-54385660D01*
X101564061Y-54385658D01*
X101441219Y-54210221D01*
X101318678Y-54087680D01*
X101285193Y-54026357D01*
X101290177Y-53956665D01*
X101318674Y-53912322D01*
X101441220Y-53789777D01*
X101564064Y-53614338D01*
X101654577Y-53420232D01*
X101710009Y-53213357D01*
X101726971Y-53019480D01*
X101728675Y-53000002D01*
X101728675Y-52999997D01*
X101721675Y-52919991D01*
X101710009Y-52786643D01*
X101660477Y-52601787D01*
X101654579Y-52579775D01*
X101654578Y-52579774D01*
X101654577Y-52579768D01*
X101564064Y-52385663D01*
X101564062Y-52385660D01*
X101564061Y-52385658D01*
X101441219Y-52210221D01*
X101318678Y-52087680D01*
X101285193Y-52026357D01*
X101290177Y-51956665D01*
X101318674Y-51912322D01*
X101441220Y-51789777D01*
X101564064Y-51614338D01*
X101654577Y-51420232D01*
X101710009Y-51213357D01*
X101726023Y-51030315D01*
X101728675Y-51000002D01*
X101728675Y-50999997D01*
X101715301Y-50847135D01*
X101710009Y-50786643D01*
X101659915Y-50599689D01*
X101654579Y-50579775D01*
X101654578Y-50579774D01*
X101654577Y-50579768D01*
X101564064Y-50385663D01*
X101564062Y-50385660D01*
X101564061Y-50385658D01*
X101441221Y-50210224D01*
X101374684Y-50143687D01*
X101289777Y-50058780D01*
X101140713Y-49954404D01*
X101114337Y-49935935D01*
X101017285Y-49890679D01*
X100920232Y-49845423D01*
X100920228Y-49845422D01*
X100920224Y-49845420D01*
X100713362Y-49789992D01*
X100713358Y-49789991D01*
X100713357Y-49789991D01*
X100713356Y-49789990D01*
X100713351Y-49789990D01*
X100500002Y-49771325D01*
X100499998Y-49771325D01*
X100286648Y-49789990D01*
X100286637Y-49789992D01*
X100079775Y-49845420D01*
X100079766Y-49845424D01*
X99885662Y-49935936D01*
X99885658Y-49935938D01*
X99710221Y-50058780D01*
X99558780Y-50210221D01*
X99435938Y-50385658D01*
X99435936Y-50385662D01*
X99362382Y-50543399D01*
X99316209Y-50595838D01*
X99249016Y-50614990D01*
X99182135Y-50594774D01*
X99137618Y-50543399D01*
X99108297Y-50480520D01*
X99064064Y-50385663D01*
X99064062Y-50385660D01*
X99064061Y-50385658D01*
X98941221Y-50210224D01*
X98874684Y-50143687D01*
X98789777Y-50058780D01*
X98640713Y-49954404D01*
X98614337Y-49935935D01*
X98517285Y-49890679D01*
X98420232Y-49845423D01*
X98420228Y-49845422D01*
X98420224Y-49845420D01*
X98213362Y-49789992D01*
X98213358Y-49789991D01*
X98213357Y-49789991D01*
X98213356Y-49789990D01*
X98213351Y-49789990D01*
X98000002Y-49771325D01*
X97999998Y-49771325D01*
X97786648Y-49789990D01*
X97786637Y-49789992D01*
X97579775Y-49845420D01*
X97579766Y-49845424D01*
X97476905Y-49893389D01*
X97407827Y-49903881D01*
X97344043Y-49875361D01*
X97305804Y-49816885D01*
X97300500Y-49781007D01*
X97300500Y-48000000D01*
X97709752Y-48000000D01*
X97728714Y-48240945D01*
X97785135Y-48475958D01*
X97877628Y-48699258D01*
X98003909Y-48905330D01*
X98003910Y-48905332D01*
X98057101Y-48967611D01*
X98160880Y-49089120D01*
X98263518Y-49176781D01*
X98344667Y-49246089D01*
X98344669Y-49246090D01*
X98550741Y-49372371D01*
X98637097Y-49408140D01*
X98774037Y-49464863D01*
X99009052Y-49521285D01*
X99250000Y-49540248D01*
X99490948Y-49521285D01*
X99725963Y-49464863D01*
X99949258Y-49372371D01*
X100155335Y-49246087D01*
X100339120Y-49089120D01*
X100496087Y-48905335D01*
X100622371Y-48699258D01*
X100714863Y-48475963D01*
X100771285Y-48240948D01*
X100790248Y-48000000D01*
X100771285Y-47759052D01*
X100714863Y-47524037D01*
X100656374Y-47382833D01*
X100622371Y-47300741D01*
X100496090Y-47094669D01*
X100496089Y-47094667D01*
X100413709Y-46998213D01*
X100339120Y-46910880D01*
X100170589Y-46766941D01*
X100155332Y-46753910D01*
X100155330Y-46753909D01*
X99949258Y-46627628D01*
X99725958Y-46535135D01*
X99490944Y-46478714D01*
X99490945Y-46478714D01*
X99250000Y-46459752D01*
X99009054Y-46478714D01*
X98774041Y-46535135D01*
X98550741Y-46627628D01*
X98344669Y-46753909D01*
X98344667Y-46753910D01*
X98160880Y-46910880D01*
X98003910Y-47094667D01*
X98003909Y-47094669D01*
X97877628Y-47300741D01*
X97785135Y-47524041D01*
X97728714Y-47759054D01*
X97709752Y-48000000D01*
X97300500Y-48000000D01*
X97300500Y-39250097D01*
X97320185Y-39183058D01*
X97336819Y-39162416D01*
X98045169Y-38454066D01*
X98798421Y-37700813D01*
X98859742Y-37667330D01*
X98926362Y-37671214D01*
X98986228Y-37691767D01*
X99031001Y-37707138D01*
X99153437Y-37727569D01*
X99275872Y-37748000D01*
X99275873Y-37748000D01*
X99524127Y-37748000D01*
X99524128Y-37748000D01*
X99768998Y-37707138D01*
X100003802Y-37626530D01*
X100222136Y-37508373D01*
X100418045Y-37355892D01*
X100586184Y-37173244D01*
X100721967Y-36965413D01*
X100821690Y-36738067D01*
X100882633Y-36497408D01*
X100903134Y-36250000D01*
X100882633Y-36002592D01*
X100821690Y-35761933D01*
X100721967Y-35534587D01*
X100586184Y-35326756D01*
X100418045Y-35144108D01*
X100222136Y-34991627D01*
X100121960Y-34937414D01*
X100003803Y-34873470D01*
X100003797Y-34873468D01*
X99769000Y-34792862D01*
X99605751Y-34765620D01*
X99524128Y-34752000D01*
X99275872Y-34752000D01*
X99214654Y-34762215D01*
X99030999Y-34792862D01*
X98796202Y-34873468D01*
X98796196Y-34873470D01*
X98577862Y-34991628D01*
X98381957Y-35144106D01*
X98213817Y-35326754D01*
X98213814Y-35326758D01*
X98078033Y-35534585D01*
X97978309Y-35761934D01*
X97917366Y-36002595D01*
X97896866Y-36249994D01*
X97896866Y-36250005D01*
X97917366Y-36497404D01*
X97978065Y-36737101D01*
X97975440Y-36806921D01*
X97945540Y-36855222D01*
X96331286Y-38469478D01*
X96219481Y-38581282D01*
X96219477Y-38581287D01*
X96174034Y-38659999D01*
X96174034Y-38660000D01*
X96140423Y-38718214D01*
X96140423Y-38718215D01*
X96099499Y-38870943D01*
X96099499Y-38870945D01*
X96099499Y-39039046D01*
X96099500Y-39039059D01*
X96099500Y-51613330D01*
X96099499Y-51613348D01*
X96099499Y-51779054D01*
X96099498Y-51779054D01*
X96102809Y-51791409D01*
X96140423Y-51931785D01*
X96140424Y-51931787D01*
X96140423Y-51931787D01*
X96160441Y-51966457D01*
X96176915Y-52034357D01*
X96154063Y-52100384D01*
X96099143Y-52143575D01*
X96029589Y-52150217D01*
X95967486Y-52118202D01*
X95965374Y-52116139D01*
X95174319Y-51325084D01*
X95140834Y-51263761D01*
X95138000Y-51237403D01*
X95138000Y-48724995D01*
X95137999Y-48724982D01*
X95135163Y-48697226D01*
X95127499Y-48622202D01*
X95072314Y-48455665D01*
X94980212Y-48306344D01*
X94856156Y-48182288D01*
X94763390Y-48125070D01*
X94706837Y-48090187D01*
X94706832Y-48090185D01*
X94682804Y-48082223D01*
X94540298Y-48035001D01*
X94540296Y-48035000D01*
X94437517Y-48024500D01*
X94437510Y-48024500D01*
X93312490Y-48024500D01*
X93312482Y-48024500D01*
X93209703Y-48035000D01*
X93209702Y-48035001D01*
X93127169Y-48062349D01*
X93043167Y-48090185D01*
X93043162Y-48090187D01*
X92893842Y-48182289D01*
X92769789Y-48306342D01*
X92677687Y-48455662D01*
X92677685Y-48455667D01*
X92652848Y-48530621D01*
X92622501Y-48622202D01*
X92622501Y-48622203D01*
X92622500Y-48622203D01*
X92612000Y-48724982D01*
X92612000Y-51675017D01*
X89162999Y-51675017D01*
X89163000Y-51675010D01*
X89163000Y-48724990D01*
X89152499Y-48622202D01*
X89097314Y-48455665D01*
X89005212Y-48306344D01*
X88881156Y-48182288D01*
X88788390Y-48125070D01*
X88731837Y-48090187D01*
X88731832Y-48090185D01*
X88707804Y-48082223D01*
X88565298Y-48035001D01*
X88565296Y-48035000D01*
X88462517Y-48024500D01*
X88462510Y-48024500D01*
X87337490Y-48024500D01*
X87337482Y-48024500D01*
X87234703Y-48035000D01*
X87234702Y-48035001D01*
X87152169Y-48062349D01*
X87068167Y-48090185D01*
X87068162Y-48090187D01*
X86918842Y-48182289D01*
X86794789Y-48306342D01*
X86702687Y-48455662D01*
X86702685Y-48455667D01*
X86680210Y-48523491D01*
X86671028Y-48551204D01*
X86667315Y-48562408D01*
X86627542Y-48619853D01*
X86563026Y-48646676D01*
X86494250Y-48634361D01*
X86475298Y-48622671D01*
X86379830Y-48551203D01*
X86379828Y-48551202D01*
X86244982Y-48500908D01*
X86244983Y-48500908D01*
X86185383Y-48494501D01*
X86185381Y-48494500D01*
X86185373Y-48494500D01*
X86185364Y-48494500D01*
X84889629Y-48494500D01*
X84889623Y-48494501D01*
X84830016Y-48500908D01*
X84695171Y-48551202D01*
X84695164Y-48551206D01*
X84579955Y-48637452D01*
X84579952Y-48637455D01*
X84493706Y-48752664D01*
X84493702Y-48752671D01*
X84443410Y-48887513D01*
X84443409Y-48887517D01*
X84437000Y-48947127D01*
X84437000Y-48947134D01*
X84437000Y-48947135D01*
X84437000Y-49545903D01*
X84417315Y-49612942D01*
X84364511Y-49658697D01*
X84295353Y-49668641D01*
X84231797Y-49639616D01*
X84225319Y-49633584D01*
X84174318Y-49582583D01*
X84140833Y-49521260D01*
X84137999Y-49494902D01*
X84137999Y-48947129D01*
X84137998Y-48947123D01*
X84131591Y-48887516D01*
X84081297Y-48752671D01*
X84081293Y-48752664D01*
X83995047Y-48637455D01*
X83995044Y-48637452D01*
X83879835Y-48551206D01*
X83879828Y-48551202D01*
X83744982Y-48500908D01*
X83744983Y-48500908D01*
X83685383Y-48494501D01*
X83685381Y-48494500D01*
X83685373Y-48494500D01*
X83685364Y-48494500D01*
X82389629Y-48494500D01*
X82389623Y-48494501D01*
X82330016Y-48500908D01*
X82195171Y-48551202D01*
X82195164Y-48551206D01*
X82079957Y-48637451D01*
X82079951Y-48637457D01*
X82074448Y-48644809D01*
X82018515Y-48686681D01*
X81975180Y-48694500D01*
X81473020Y-48694500D01*
X81405981Y-48674815D01*
X81365877Y-48628903D01*
X81364699Y-48629631D01*
X81360908Y-48623485D01*
X81360908Y-48623484D01*
X81270340Y-48476650D01*
X81148350Y-48354660D01*
X81001516Y-48264092D01*
X80837753Y-48209826D01*
X80837751Y-48209825D01*
X80736678Y-48199500D01*
X80163330Y-48199500D01*
X80163312Y-48199501D01*
X80062247Y-48209825D01*
X79898484Y-48264092D01*
X79898481Y-48264093D01*
X79751648Y-48354661D01*
X79629660Y-48476649D01*
X79629657Y-48476653D01*
X79567086Y-48578097D01*
X79515138Y-48624822D01*
X79461548Y-48637000D01*
X79386669Y-48637000D01*
X79386653Y-48636999D01*
X79379057Y-48636999D01*
X79220943Y-48636999D01*
X79213347Y-48636999D01*
X79213331Y-48637000D01*
X77786670Y-48637000D01*
X77786654Y-48636999D01*
X77779058Y-48636999D01*
X77620943Y-48636999D01*
X77544579Y-48657461D01*
X77468214Y-48677923D01*
X77468209Y-48677926D01*
X77331290Y-48756975D01*
X77331282Y-48756981D01*
X73612181Y-52476083D01*
X73550858Y-52509568D01*
X73481166Y-52504584D01*
X73425233Y-52462712D01*
X73400816Y-52397248D01*
X73400500Y-52388402D01*
X73400500Y-51089060D01*
X73400501Y-51089047D01*
X73400501Y-50920944D01*
X73394693Y-50899267D01*
X73359577Y-50768216D01*
X73327305Y-50712318D01*
X73280524Y-50631290D01*
X73280518Y-50631282D01*
X73192635Y-50543399D01*
X73097960Y-50448725D01*
X73097959Y-50448723D01*
X72968717Y-50319481D01*
X72968716Y-50319480D01*
X72881904Y-50269360D01*
X72881904Y-50269359D01*
X72881900Y-50269358D01*
X72831785Y-50240423D01*
X72679057Y-50199499D01*
X72679055Y-50199499D01*
X72671206Y-50197396D01*
X72671717Y-50195486D01*
X72617626Y-50171555D01*
X72579157Y-50113229D01*
X72578328Y-50043364D01*
X72610028Y-49989206D01*
X75133506Y-47465727D01*
X75133511Y-47465724D01*
X75143714Y-47455520D01*
X75143716Y-47455520D01*
X75255520Y-47343716D01*
X75320143Y-47231785D01*
X75334577Y-47206785D01*
X75375501Y-47054057D01*
X75375501Y-46895943D01*
X75375501Y-46888348D01*
X75375500Y-46888330D01*
X75375500Y-45777370D01*
X75395185Y-45710331D01*
X75447989Y-45664576D01*
X75517147Y-45654632D01*
X75565471Y-45672375D01*
X75650478Y-45725789D01*
X75797888Y-45777370D01*
X75820745Y-45785368D01*
X75820750Y-45785369D01*
X75999996Y-45805565D01*
X76000000Y-45805565D01*
X76000004Y-45805565D01*
X76179249Y-45785369D01*
X76179252Y-45785368D01*
X76179255Y-45785368D01*
X76349522Y-45725789D01*
X76502262Y-45629816D01*
X76629816Y-45502262D01*
X76725789Y-45349522D01*
X76785368Y-45179255D01*
X76792103Y-45119480D01*
X76805565Y-45000003D01*
X76805565Y-44999996D01*
X76785369Y-44820750D01*
X76785368Y-44820748D01*
X76785368Y-44820745D01*
X76768998Y-44773965D01*
X76765436Y-44704189D01*
X76798359Y-44645330D01*
X76820340Y-44623350D01*
X76894462Y-44503178D01*
X76946409Y-44456456D01*
X77015372Y-44445233D01*
X77079454Y-44473077D01*
X77105537Y-44503177D01*
X77179660Y-44623350D01*
X77179661Y-44623351D01*
X77201639Y-44645329D01*
X77235124Y-44706652D01*
X77231000Y-44773963D01*
X77214633Y-44820738D01*
X77214630Y-44820750D01*
X77194435Y-44999996D01*
X77194435Y-45000003D01*
X77214630Y-45179249D01*
X77214631Y-45179254D01*
X77274211Y-45349523D01*
X77354994Y-45478087D01*
X77370184Y-45502262D01*
X77497738Y-45629816D01*
X77650478Y-45725789D01*
X77797888Y-45777370D01*
X77820745Y-45785368D01*
X77820750Y-45785369D01*
X77999996Y-45805565D01*
X78000000Y-45805565D01*
X78000004Y-45805565D01*
X78179249Y-45785369D01*
X78179252Y-45785368D01*
X78179255Y-45785368D01*
X78349522Y-45725789D01*
X78502262Y-45629816D01*
X78629816Y-45502262D01*
X78645007Y-45478084D01*
X78697339Y-45431796D01*
X78766393Y-45421146D01*
X78830242Y-45449521D01*
X78854990Y-45478082D01*
X78870184Y-45502262D01*
X78997738Y-45629816D01*
X79150478Y-45725789D01*
X79297888Y-45777370D01*
X79320745Y-45785368D01*
X79320750Y-45785369D01*
X79499996Y-45805565D01*
X79500000Y-45805565D01*
X79500004Y-45805565D01*
X79679249Y-45785369D01*
X79679252Y-45785368D01*
X79679255Y-45785368D01*
X79849522Y-45725789D01*
X80002262Y-45629816D01*
X80129816Y-45502262D01*
X80225789Y-45349522D01*
X80285368Y-45179255D01*
X80292103Y-45119480D01*
X80305565Y-45000003D01*
X80305565Y-44999996D01*
X80285369Y-44820750D01*
X80285368Y-44820745D01*
X80225788Y-44650476D01*
X80129813Y-44497734D01*
X80127550Y-44494896D01*
X80126659Y-44492715D01*
X80126111Y-44491842D01*
X80126264Y-44491745D01*
X80101144Y-44430209D01*
X80100500Y-44417587D01*
X80100500Y-43550096D01*
X80120185Y-43483057D01*
X80136814Y-43462420D01*
X83788506Y-39810727D01*
X83788511Y-39810724D01*
X83798714Y-39800520D01*
X83798716Y-39800520D01*
X83910520Y-39688716D01*
X83965429Y-39593610D01*
X83989577Y-39551785D01*
X84030500Y-39399058D01*
X84030500Y-39240943D01*
X84030500Y-29439060D01*
X84030501Y-29439047D01*
X84030501Y-29270944D01*
X84023926Y-29246407D01*
X83989577Y-29118216D01*
X83977834Y-29097876D01*
X83910524Y-28981290D01*
X83910518Y-28981282D01*
X83666818Y-28737582D01*
X83633333Y-28676259D01*
X83630499Y-28649901D01*
X83630499Y-27902129D01*
X83630498Y-27902123D01*
X83630497Y-27902116D01*
X83624091Y-27842517D01*
X83590923Y-27753590D01*
X83573797Y-27707671D01*
X83573793Y-27707664D01*
X83487547Y-27592455D01*
X83487544Y-27592452D01*
X83372335Y-27506206D01*
X83372328Y-27506202D01*
X83237482Y-27455908D01*
X83237483Y-27455908D01*
X83177883Y-27449501D01*
X83177881Y-27449500D01*
X83177873Y-27449500D01*
X83177864Y-27449500D01*
X81982129Y-27449500D01*
X81982123Y-27449501D01*
X81922516Y-27455908D01*
X81787671Y-27506202D01*
X81787664Y-27506206D01*
X81672455Y-27592452D01*
X81672452Y-27592455D01*
X81586206Y-27707664D01*
X81586202Y-27707671D01*
X81535908Y-27842517D01*
X81529501Y-27902116D01*
X81529501Y-27902123D01*
X81529500Y-27902135D01*
X81529500Y-29097870D01*
X81529501Y-29097876D01*
X81535908Y-29157483D01*
X81586202Y-29292328D01*
X81586206Y-29292335D01*
X81672452Y-29407544D01*
X81672455Y-29407547D01*
X81787664Y-29493793D01*
X81787671Y-29493797D01*
X81922517Y-29544091D01*
X81922516Y-29544091D01*
X81929444Y-29544835D01*
X81982127Y-29550500D01*
X82705500Y-29550499D01*
X82772539Y-29570183D01*
X82818294Y-29622987D01*
X82829500Y-29674499D01*
X82829500Y-37492177D01*
X82809815Y-37559216D01*
X82757011Y-37604971D01*
X82693347Y-37615580D01*
X82580001Y-37604417D01*
X82580000Y-37604417D01*
X82559718Y-37606414D01*
X82374067Y-37624699D01*
X82176043Y-37684769D01*
X82065898Y-37743643D01*
X81993550Y-37782315D01*
X81993548Y-37782316D01*
X81993547Y-37782317D01*
X81833589Y-37913589D01*
X81718770Y-38053499D01*
X81702315Y-38073550D01*
X81697374Y-38082794D01*
X81604769Y-38256043D01*
X81544699Y-38454067D01*
X81524417Y-38659999D01*
X81537169Y-38789482D01*
X81524150Y-38858128D01*
X81501447Y-38889316D01*
X81229602Y-39161161D01*
X81168279Y-39194646D01*
X81098587Y-39189662D01*
X81042654Y-39147790D01*
X81018237Y-39082326D01*
X81023259Y-39037491D01*
X81075300Y-38865934D01*
X81095583Y-38660000D01*
X81075300Y-38454066D01*
X81015232Y-38256046D01*
X80917685Y-38073550D01*
X80858663Y-38001631D01*
X80786410Y-37913589D01*
X80626452Y-37782317D01*
X80626453Y-37782317D01*
X80626450Y-37782315D01*
X80443954Y-37684768D01*
X80245934Y-37624700D01*
X80245932Y-37624699D01*
X80245934Y-37624699D01*
X80040000Y-37604417D01*
X79834067Y-37624699D01*
X79636043Y-37684769D01*
X79525898Y-37743643D01*
X79453550Y-37782315D01*
X79453548Y-37782316D01*
X79453547Y-37782317D01*
X79293589Y-37913590D01*
X79211050Y-38014165D01*
X79153305Y-38053499D01*
X79115197Y-38059500D01*
X78926670Y-38059500D01*
X78926654Y-38059499D01*
X78919058Y-38059499D01*
X78760943Y-38059499D01*
X78698474Y-38076238D01*
X78608214Y-38100423D01*
X78608211Y-38100425D01*
X78553984Y-38131732D01*
X78486083Y-38148203D01*
X78420057Y-38125350D01*
X78382626Y-38082794D01*
X78377685Y-38073550D01*
X78318663Y-38001631D01*
X78246410Y-37913589D01*
X78086452Y-37782317D01*
X78086453Y-37782317D01*
X78086450Y-37782315D01*
X77903954Y-37684768D01*
X77705934Y-37624700D01*
X77705932Y-37624699D01*
X77705934Y-37624699D01*
X77500000Y-37604417D01*
X77294068Y-37624699D01*
X77260492Y-37634884D01*
X77190625Y-37635505D01*
X77131513Y-37598255D01*
X77101924Y-37534960D01*
X77100500Y-37516222D01*
X77100500Y-32340096D01*
X77120185Y-32273057D01*
X77136814Y-32252420D01*
X79810684Y-29578549D01*
X79872005Y-29545066D01*
X79910513Y-29542829D01*
X80040000Y-29555583D01*
X80245934Y-29535300D01*
X80443954Y-29475232D01*
X80626450Y-29377685D01*
X80786410Y-29246410D01*
X80917685Y-29086450D01*
X81015232Y-28903954D01*
X81075300Y-28705934D01*
X81095583Y-28500000D01*
X81075300Y-28294066D01*
X81015232Y-28096046D01*
X80917685Y-27913550D01*
X80859389Y-27842516D01*
X80786410Y-27753589D01*
X80626452Y-27622317D01*
X80626453Y-27622317D01*
X80626450Y-27622315D01*
X80443954Y-27524768D01*
X80245934Y-27464700D01*
X80245932Y-27464699D01*
X80245934Y-27464699D01*
X80040000Y-27444417D01*
X79834067Y-27464699D01*
X79636043Y-27524769D01*
X79525898Y-27583643D01*
X79453550Y-27622315D01*
X79453548Y-27622316D01*
X79453547Y-27622317D01*
X79293589Y-27753589D01*
X79162317Y-27913547D01*
X79064769Y-28096043D01*
X79004699Y-28294067D01*
X78984417Y-28500000D01*
X78997169Y-28629482D01*
X78984150Y-28698128D01*
X78961447Y-28729316D01*
X78689602Y-29001161D01*
X78628279Y-29034646D01*
X78558587Y-29029662D01*
X78502654Y-28987790D01*
X78478237Y-28922326D01*
X78483259Y-28877491D01*
X78535300Y-28705934D01*
X78555583Y-28500000D01*
X78535300Y-28294066D01*
X78475232Y-28096046D01*
X78377685Y-27913550D01*
X78319389Y-27842516D01*
X78246410Y-27753589D01*
X78086452Y-27622317D01*
X78086453Y-27622317D01*
X78086450Y-27622315D01*
X77903954Y-27524768D01*
X77705934Y-27464700D01*
X77705932Y-27464699D01*
X77705934Y-27464699D01*
X77500000Y-27444417D01*
X77294067Y-27464699D01*
X77096043Y-27524769D01*
X76985898Y-27583643D01*
X76913550Y-27622315D01*
X76913548Y-27622316D01*
X76913547Y-27622317D01*
X76753589Y-27753589D01*
X76622317Y-27913547D01*
X76524769Y-28096043D01*
X76464699Y-28294067D01*
X76444417Y-28500000D01*
X76457169Y-28629482D01*
X76444150Y-28698128D01*
X76421447Y-28729316D01*
X76149602Y-29001161D01*
X76088279Y-29034646D01*
X76018587Y-29029662D01*
X75962654Y-28987790D01*
X75938237Y-28922326D01*
X75943259Y-28877491D01*
X75995300Y-28705934D01*
X76015583Y-28500000D01*
X75995300Y-28294066D01*
X75935232Y-28096046D01*
X75837685Y-27913550D01*
X75779389Y-27842516D01*
X75706410Y-27753589D01*
X75546452Y-27622317D01*
X75546453Y-27622317D01*
X75546450Y-27622315D01*
X75363954Y-27524768D01*
X75165934Y-27464700D01*
X75165932Y-27464699D01*
X75165934Y-27464699D01*
X74960000Y-27444417D01*
X74754067Y-27464699D01*
X74556043Y-27524769D01*
X74445898Y-27583643D01*
X74373550Y-27622315D01*
X74373548Y-27622316D01*
X74373547Y-27622317D01*
X74213589Y-27753589D01*
X74082317Y-27913547D01*
X73984769Y-28096043D01*
X73924699Y-28294067D01*
X73904417Y-28500000D01*
X73924699Y-28705932D01*
X73934300Y-28737582D01*
X73984768Y-28903954D01*
X74082315Y-29086450D01*
X74082317Y-29086452D01*
X74213587Y-29246407D01*
X74213588Y-29246408D01*
X74213590Y-29246410D01*
X74314165Y-29328949D01*
X74353499Y-29386692D01*
X74359500Y-29424801D01*
X74359500Y-37157819D01*
X74339815Y-37224858D01*
X74323181Y-37245500D01*
X73483426Y-38085254D01*
X73422103Y-38118739D01*
X73352411Y-38113755D01*
X73299892Y-38076238D01*
X73166410Y-37913590D01*
X73006452Y-37782316D01*
X72998112Y-37777858D01*
X72971902Y-37752108D01*
X72970346Y-37753665D01*
X72970345Y-37753664D01*
X72966710Y-37747007D01*
X72948271Y-37728892D01*
X72942196Y-37702113D01*
X72936860Y-37692341D01*
X72937607Y-37681885D01*
X72932814Y-37660754D01*
X72941076Y-37633383D01*
X72941844Y-37622649D01*
X72948725Y-37608045D01*
X72949195Y-37606485D01*
X72950639Y-37603986D01*
X72979577Y-37553867D01*
X73020501Y-37401139D01*
X73020501Y-37243025D01*
X73020501Y-37235430D01*
X73020500Y-37235412D01*
X73020500Y-29424801D01*
X73040185Y-29357762D01*
X73065832Y-29328951D01*
X73166410Y-29246410D01*
X73297685Y-29086450D01*
X73395232Y-28903954D01*
X73455300Y-28705934D01*
X73475583Y-28500000D01*
X73455300Y-28294066D01*
X73395232Y-28096046D01*
X73297685Y-27913550D01*
X73239389Y-27842516D01*
X73166410Y-27753589D01*
X73006452Y-27622317D01*
X73006453Y-27622317D01*
X73006450Y-27622315D01*
X72823954Y-27524768D01*
X72625934Y-27464700D01*
X72625932Y-27464699D01*
X72625934Y-27464699D01*
X72420000Y-27444417D01*
X72214067Y-27464699D01*
X72016043Y-27524769D01*
X71905898Y-27583643D01*
X71833550Y-27622315D01*
X71833548Y-27622316D01*
X71833547Y-27622317D01*
X71673589Y-27753589D01*
X71542317Y-27913547D01*
X71444769Y-28096043D01*
X71384699Y-28294067D01*
X71364417Y-28500000D01*
X71384699Y-28705932D01*
X71394300Y-28737582D01*
X71444768Y-28903954D01*
X71542315Y-29086450D01*
X71542317Y-29086452D01*
X71673587Y-29246407D01*
X71673588Y-29246408D01*
X71673590Y-29246410D01*
X71774165Y-29328949D01*
X71813499Y-29386692D01*
X71819500Y-29424801D01*
X71819500Y-37021984D01*
X71799815Y-37089023D01*
X71783181Y-37109665D01*
X70882198Y-38010647D01*
X70820875Y-38044132D01*
X70751183Y-38039148D01*
X70698664Y-38001631D01*
X70626410Y-37913590D01*
X70466452Y-37782316D01*
X70458112Y-37777858D01*
X70431902Y-37752108D01*
X70430346Y-37753665D01*
X70430345Y-37753664D01*
X70426710Y-37747007D01*
X70408271Y-37728892D01*
X70402196Y-37702113D01*
X70396860Y-37692341D01*
X70397607Y-37681885D01*
X70392814Y-37660754D01*
X70401076Y-37633383D01*
X70401844Y-37622649D01*
X70408725Y-37608045D01*
X70409195Y-37606485D01*
X70410639Y-37603986D01*
X70439577Y-37553867D01*
X70480501Y-37401139D01*
X70480501Y-37243025D01*
X70480501Y-37235430D01*
X70480500Y-37235412D01*
X70480500Y-29424801D01*
X70500185Y-29357762D01*
X70525832Y-29328951D01*
X70626410Y-29246410D01*
X70757685Y-29086450D01*
X70855232Y-28903954D01*
X70915300Y-28705934D01*
X70935583Y-28500000D01*
X70915300Y-28294066D01*
X70855232Y-28096046D01*
X70757685Y-27913550D01*
X70699389Y-27842516D01*
X70626410Y-27753589D01*
X70466452Y-27622317D01*
X70466453Y-27622317D01*
X70466450Y-27622315D01*
X70283954Y-27524768D01*
X70085934Y-27464700D01*
X70085932Y-27464699D01*
X70085934Y-27464699D01*
X69880000Y-27444417D01*
X69674067Y-27464699D01*
X69476043Y-27524769D01*
X69365898Y-27583643D01*
X69293550Y-27622315D01*
X69293548Y-27622316D01*
X69293547Y-27622317D01*
X69133589Y-27753589D01*
X69002317Y-27913547D01*
X68904769Y-28096043D01*
X68844699Y-28294067D01*
X68824417Y-28500000D01*
X68844699Y-28705932D01*
X68854300Y-28737582D01*
X68904768Y-28903954D01*
X69002315Y-29086450D01*
X69002317Y-29086452D01*
X69133587Y-29246407D01*
X69133588Y-29246408D01*
X69133590Y-29246410D01*
X69234165Y-29328949D01*
X69273499Y-29386692D01*
X69279500Y-29424801D01*
X69279500Y-37021984D01*
X69259815Y-37089023D01*
X69243181Y-37109665D01*
X68342198Y-38010647D01*
X68280875Y-38044132D01*
X68211183Y-38039148D01*
X68158664Y-38001631D01*
X68086410Y-37913590D01*
X67926452Y-37782317D01*
X67926453Y-37782317D01*
X67926450Y-37782315D01*
X67743954Y-37684768D01*
X67545934Y-37624700D01*
X67545932Y-37624699D01*
X67545934Y-37624699D01*
X67340000Y-37604417D01*
X67134067Y-37624699D01*
X66936043Y-37684769D01*
X66782954Y-37766598D01*
X66714551Y-37780840D01*
X66649307Y-37755840D01*
X66607936Y-37699535D01*
X66600500Y-37657240D01*
X66600500Y-30140096D01*
X66620185Y-30073057D01*
X66636815Y-30052419D01*
X67110684Y-29578549D01*
X67172005Y-29545066D01*
X67210513Y-29542829D01*
X67340000Y-29555583D01*
X67545934Y-29535300D01*
X67743954Y-29475232D01*
X67926450Y-29377685D01*
X68086410Y-29246410D01*
X68217685Y-29086450D01*
X68315232Y-28903954D01*
X68375300Y-28705934D01*
X68395583Y-28500000D01*
X68375300Y-28294066D01*
X68315232Y-28096046D01*
X68217685Y-27913550D01*
X68159389Y-27842516D01*
X68086410Y-27753589D01*
X67926452Y-27622317D01*
X67926453Y-27622317D01*
X67926450Y-27622315D01*
X67743954Y-27524768D01*
X67545934Y-27464700D01*
X67545932Y-27464699D01*
X67545934Y-27464699D01*
X67340000Y-27444417D01*
X67134067Y-27464699D01*
X66936043Y-27524769D01*
X66825898Y-27583643D01*
X66753550Y-27622315D01*
X66753548Y-27622316D01*
X66753547Y-27622317D01*
X66593589Y-27753589D01*
X66462317Y-27913547D01*
X66364769Y-28096043D01*
X66304699Y-28294067D01*
X66284417Y-28500000D01*
X66297169Y-28629482D01*
X66284150Y-28698128D01*
X66261447Y-28729316D01*
X65989602Y-29001161D01*
X65928279Y-29034646D01*
X65858587Y-29029662D01*
X65802654Y-28987790D01*
X65778237Y-28922326D01*
X65783259Y-28877491D01*
X65835300Y-28705934D01*
X65855583Y-28500000D01*
X65835300Y-28294066D01*
X65775232Y-28096046D01*
X65677685Y-27913550D01*
X65619389Y-27842516D01*
X65546410Y-27753589D01*
X65386452Y-27622317D01*
X65386453Y-27622317D01*
X65386450Y-27622315D01*
X65203954Y-27524768D01*
X65005934Y-27464700D01*
X65005932Y-27464699D01*
X65005934Y-27464699D01*
X64800000Y-27444417D01*
X64594067Y-27464699D01*
X64396043Y-27524769D01*
X64285898Y-27583643D01*
X64213550Y-27622315D01*
X64213548Y-27622316D01*
X64213547Y-27622317D01*
X64053589Y-27753589D01*
X63922317Y-27913547D01*
X63824769Y-28096043D01*
X63764699Y-28294067D01*
X63744416Y-28500000D01*
X63757169Y-28629482D01*
X63744150Y-28698128D01*
X63721447Y-28729316D01*
X62856286Y-29594478D01*
X62744481Y-29706282D01*
X62744479Y-29706284D01*
X62722298Y-29744703D01*
X62712923Y-29760943D01*
X62665423Y-29843215D01*
X62624499Y-29995943D01*
X62624499Y-29995945D01*
X62624499Y-30164046D01*
X62624500Y-30164059D01*
X62624500Y-42974902D01*
X62604815Y-43041941D01*
X62588181Y-43062583D01*
X60419481Y-45231282D01*
X60419480Y-45231284D01*
X60379518Y-45300501D01*
X60340423Y-45368215D01*
X60299499Y-45520943D01*
X60299499Y-45520945D01*
X60299499Y-45689046D01*
X60299500Y-45689059D01*
X60299500Y-48584432D01*
X60279815Y-48651471D01*
X60227011Y-48697226D01*
X60162897Y-48707790D01*
X60086654Y-48700000D01*
X60050000Y-48700000D01*
X60050000Y-49863500D01*
X60030315Y-49930539D01*
X59977511Y-49976294D01*
X59926000Y-49987500D01*
X58825001Y-49987500D01*
X58825001Y-50086654D01*
X58835319Y-50187652D01*
X58889546Y-50351300D01*
X58889551Y-50351311D01*
X58980052Y-50498034D01*
X58980055Y-50498038D01*
X58993982Y-50511965D01*
X59027467Y-50573288D01*
X59022483Y-50642980D01*
X58993984Y-50687325D01*
X58979661Y-50701648D01*
X58889093Y-50848481D01*
X58889091Y-50848486D01*
X58876103Y-50887682D01*
X58834826Y-51012247D01*
X58834826Y-51012248D01*
X58834825Y-51012248D01*
X58824500Y-51113315D01*
X58824500Y-51811669D01*
X58824501Y-51811687D01*
X58834825Y-51912752D01*
X58863737Y-52000000D01*
X58886507Y-52068716D01*
X58889092Y-52076515D01*
X58889093Y-52076518D01*
X58902009Y-52097458D01*
X58979660Y-52223350D01*
X59101650Y-52345340D01*
X59140597Y-52369362D01*
X59187320Y-52421307D01*
X59199500Y-52474900D01*
X59199500Y-52749901D01*
X59179815Y-52816940D01*
X59163181Y-52837582D01*
X57675180Y-54325583D01*
X57613857Y-54359068D01*
X57544165Y-54354084D01*
X57499818Y-54325583D01*
X56225090Y-53050855D01*
X56225088Y-53050852D01*
X56106217Y-52931981D01*
X56106209Y-52931975D01*
X55990742Y-52865311D01*
X55990742Y-52865310D01*
X55990737Y-52865309D01*
X55969285Y-52852923D01*
X55969285Y-52852922D01*
X55950209Y-52847811D01*
X55890550Y-52811445D01*
X55876770Y-52793138D01*
X55820340Y-52701650D01*
X55706371Y-52587681D01*
X55672886Y-52526358D01*
X55677870Y-52456666D01*
X55706371Y-52412319D01*
X55753692Y-52364998D01*
X55820340Y-52298350D01*
X55844362Y-52259404D01*
X55896310Y-52212679D01*
X55949901Y-52200500D01*
X56117588Y-52200500D01*
X56184627Y-52220185D01*
X56194903Y-52227555D01*
X56197736Y-52229814D01*
X56197738Y-52229816D01*
X56276100Y-52279054D01*
X56339348Y-52318796D01*
X56350478Y-52325789D01*
X56474228Y-52369091D01*
X56520745Y-52385368D01*
X56520750Y-52385369D01*
X56699996Y-52405565D01*
X56700000Y-52405565D01*
X56700004Y-52405565D01*
X56879249Y-52385369D01*
X56879252Y-52385368D01*
X56879255Y-52385368D01*
X57049522Y-52325789D01*
X57202262Y-52229816D01*
X57329816Y-52102262D01*
X57425789Y-51949522D01*
X57485368Y-51779255D01*
X57485369Y-51779249D01*
X57505565Y-51600003D01*
X57505565Y-51599996D01*
X57485369Y-51420750D01*
X57485368Y-51420745D01*
X57467501Y-51369685D01*
X57425789Y-51250478D01*
X57417573Y-51237403D01*
X57345611Y-51122876D01*
X57329816Y-51097738D01*
X57202262Y-50970184D01*
X57155173Y-50940596D01*
X57049523Y-50874211D01*
X56879254Y-50814631D01*
X56879249Y-50814630D01*
X56700004Y-50794435D01*
X56699996Y-50794435D01*
X56520750Y-50814630D01*
X56520745Y-50814631D01*
X56350476Y-50874211D01*
X56197736Y-50970185D01*
X56194903Y-50972445D01*
X56192724Y-50973334D01*
X56191842Y-50973889D01*
X56191744Y-50973734D01*
X56130217Y-50998855D01*
X56117588Y-50999500D01*
X55965321Y-50999500D01*
X55898282Y-50979815D01*
X55859782Y-50940596D01*
X55822560Y-50880250D01*
X55820340Y-50876650D01*
X55698350Y-50754660D01*
X55551516Y-50664092D01*
X55387753Y-50609826D01*
X55387751Y-50609825D01*
X55286678Y-50599500D01*
X54713330Y-50599500D01*
X54713312Y-50599501D01*
X54612247Y-50609825D01*
X54448484Y-50664092D01*
X54448481Y-50664093D01*
X54301648Y-50754661D01*
X54179659Y-50876650D01*
X54147928Y-50928096D01*
X54095980Y-50974821D01*
X54042389Y-50987000D01*
X51212598Y-50987000D01*
X51145559Y-50967315D01*
X51124917Y-50950681D01*
X49913617Y-49739381D01*
X49880132Y-49678058D01*
X49881523Y-49619606D01*
X49882083Y-49617517D01*
X49898707Y-49555477D01*
X49917777Y-49337500D01*
X49903294Y-49171962D01*
X49917060Y-49103466D01*
X49965675Y-49053283D01*
X50033704Y-49037349D01*
X50099548Y-49060724D01*
X50118051Y-49077175D01*
X50209742Y-49176777D01*
X50209752Y-49176786D01*
X50402708Y-49326970D01*
X50402712Y-49326973D01*
X50617767Y-49443355D01*
X50617770Y-49443356D01*
X50849041Y-49522751D01*
X50849043Y-49522751D01*
X50849045Y-49522752D01*
X51090237Y-49563000D01*
X51090238Y-49563000D01*
X51334762Y-49563000D01*
X51334763Y-49563000D01*
X51575955Y-49522752D01*
X51678642Y-49487500D01*
X58825000Y-49487500D01*
X59550000Y-49487500D01*
X59550000Y-48700000D01*
X59513361Y-48700000D01*
X59513343Y-48700001D01*
X59412347Y-48710319D01*
X59248699Y-48764546D01*
X59248688Y-48764551D01*
X59101965Y-48855052D01*
X59101961Y-48855055D01*
X58980055Y-48976961D01*
X58980052Y-48976965D01*
X58889551Y-49123688D01*
X58889546Y-49123699D01*
X58835319Y-49287347D01*
X58825000Y-49388345D01*
X58825000Y-49487500D01*
X51678642Y-49487500D01*
X51807233Y-49443355D01*
X52022288Y-49326973D01*
X52215254Y-49176781D01*
X52380868Y-48996877D01*
X52514611Y-48792167D01*
X52612836Y-48568236D01*
X52672864Y-48331192D01*
X52682921Y-48209825D01*
X52693057Y-48087505D01*
X52693057Y-48087494D01*
X52672865Y-47843816D01*
X52672863Y-47843804D01*
X52612836Y-47606765D01*
X52576548Y-47524037D01*
X52514611Y-47382833D01*
X52415927Y-47231785D01*
X52380867Y-47178121D01*
X52215257Y-46998222D01*
X52215247Y-46998213D01*
X52022291Y-46848029D01*
X52022287Y-46848026D01*
X51807234Y-46731645D01*
X51807229Y-46731643D01*
X51575958Y-46652248D01*
X51395061Y-46622062D01*
X51334763Y-46612000D01*
X51090237Y-46612000D01*
X51041998Y-46620049D01*
X50849041Y-46652248D01*
X50617770Y-46731643D01*
X50617765Y-46731645D01*
X50402712Y-46848026D01*
X50402708Y-46848029D01*
X50209752Y-46998213D01*
X50209742Y-46998222D01*
X50044132Y-47178121D01*
X49910388Y-47382833D01*
X49812163Y-47606765D01*
X49752136Y-47843804D01*
X49752134Y-47843816D01*
X49731943Y-48087494D01*
X49731943Y-48087505D01*
X49752134Y-48331183D01*
X49752137Y-48331200D01*
X49752630Y-48333145D01*
X49752599Y-48333966D01*
X49752981Y-48336256D01*
X49752510Y-48336334D01*
X49750006Y-48402966D01*
X49710051Y-48460284D01*
X49645450Y-48486901D01*
X49576714Y-48474367D01*
X49544744Y-48451269D01*
X49469378Y-48375903D01*
X49439041Y-48354661D01*
X49361692Y-48300500D01*
X49290138Y-48250397D01*
X49180988Y-48199500D01*
X49091830Y-48157925D01*
X49091826Y-48157924D01*
X49091822Y-48157922D01*
X48880477Y-48101293D01*
X48662502Y-48082223D01*
X48662498Y-48082223D01*
X48517182Y-48094936D01*
X48444523Y-48101293D01*
X48444520Y-48101293D01*
X48233177Y-48157922D01*
X48233168Y-48157926D01*
X48034861Y-48250398D01*
X48034857Y-48250400D01*
X47855621Y-48375902D01*
X47700902Y-48530621D01*
X47575400Y-48709857D01*
X47575398Y-48709861D01*
X47482926Y-48908168D01*
X47482922Y-48908177D01*
X47426293Y-49119520D01*
X47426293Y-49119524D01*
X47412319Y-49279255D01*
X47407223Y-49337500D01*
X47426292Y-49555471D01*
X47426293Y-49555475D01*
X47426293Y-49555479D01*
X47482922Y-49766822D01*
X47482924Y-49766826D01*
X47482925Y-49766830D01*
X47493726Y-49789992D01*
X47575397Y-49965138D01*
X47596704Y-49995567D01*
X47700902Y-50144377D01*
X47855623Y-50299098D01*
X48034861Y-50424602D01*
X48233170Y-50517075D01*
X48444523Y-50573707D01*
X48614950Y-50588617D01*
X48662498Y-50592777D01*
X48662500Y-50592777D01*
X48662502Y-50592777D01*
X48716994Y-50588009D01*
X48880477Y-50573707D01*
X48944607Y-50556523D01*
X49014456Y-50558186D01*
X49064381Y-50588617D01*
X50543784Y-52068020D01*
X50543786Y-52068021D01*
X50543790Y-52068024D01*
X50653869Y-52131577D01*
X50680716Y-52147077D01*
X50833443Y-52188001D01*
X50833445Y-52188001D01*
X50999154Y-52188001D01*
X50999170Y-52188000D01*
X54042389Y-52188000D01*
X54109428Y-52207685D01*
X54147928Y-52246904D01*
X54179659Y-52298349D01*
X54293629Y-52412319D01*
X54327114Y-52473642D01*
X54322130Y-52543334D01*
X54293629Y-52587681D01*
X54179661Y-52701648D01*
X54089093Y-52848481D01*
X54089091Y-52848486D01*
X54079600Y-52877128D01*
X54034826Y-53012247D01*
X54034826Y-53012248D01*
X54034825Y-53012248D01*
X54024500Y-53113315D01*
X54024500Y-53711669D01*
X54024501Y-53711687D01*
X54034825Y-53812752D01*
X54050512Y-53860090D01*
X54088561Y-53974915D01*
X54089092Y-53976515D01*
X54089093Y-53976518D01*
X54102480Y-53998222D01*
X54179660Y-54123350D01*
X54301650Y-54245340D01*
X54448484Y-54335908D01*
X54612247Y-54390174D01*
X54713323Y-54400500D01*
X55286676Y-54400499D01*
X55286684Y-54400498D01*
X55286687Y-54400498D01*
X55342030Y-54394844D01*
X55387753Y-54390174D01*
X55551516Y-54335908D01*
X55604179Y-54303425D01*
X55628975Y-54288131D01*
X55696367Y-54269690D01*
X55763031Y-54290612D01*
X55781753Y-54305988D01*
X56950681Y-55474916D01*
X56984166Y-55536239D01*
X56987000Y-55562597D01*
X56987000Y-56324313D01*
X56967315Y-56391352D01*
X56914511Y-56437107D01*
X56845353Y-56447051D01*
X56827253Y-56442086D01*
X56827136Y-56442527D01*
X56819286Y-56440423D01*
X56819285Y-56440423D01*
X56666557Y-56399499D01*
X56508443Y-56399499D01*
X56500847Y-56399499D01*
X56500831Y-56399500D01*
X52290304Y-56399500D01*
X52223265Y-56379815D01*
X52177510Y-56327011D01*
X52167566Y-56257853D01*
X52196591Y-56194297D01*
X52214144Y-56177645D01*
X52215251Y-56176783D01*
X52215254Y-56176781D01*
X52380868Y-55996877D01*
X52514611Y-55792167D01*
X52612836Y-55568236D01*
X52672864Y-55331192D01*
X52682629Y-55213351D01*
X52693057Y-55087505D01*
X52693057Y-55087494D01*
X52672865Y-54843816D01*
X52672863Y-54843804D01*
X52636447Y-54700000D01*
X52612836Y-54606764D01*
X52514611Y-54382833D01*
X52464406Y-54305988D01*
X52380867Y-54178121D01*
X52215257Y-53998222D01*
X52215247Y-53998213D01*
X52022291Y-53848029D01*
X52022287Y-53848026D01*
X51807234Y-53731645D01*
X51807229Y-53731643D01*
X51575958Y-53652248D01*
X51367824Y-53617517D01*
X51334763Y-53612000D01*
X51090237Y-53612000D01*
X51057176Y-53617517D01*
X50849041Y-53652248D01*
X50617770Y-53731643D01*
X50617765Y-53731645D01*
X50402712Y-53848026D01*
X50402708Y-53848029D01*
X50209752Y-53998213D01*
X50209748Y-53998217D01*
X50209746Y-53998218D01*
X50209746Y-53998219D01*
X50206813Y-54001405D01*
X50117496Y-54098428D01*
X50057609Y-54134418D01*
X49987771Y-54132317D01*
X49930155Y-54092792D01*
X49903054Y-54028393D01*
X49902739Y-54003636D01*
X49917275Y-53837500D01*
X49917275Y-53837499D01*
X49898212Y-53619615D01*
X49898210Y-53619605D01*
X49841605Y-53408349D01*
X49841601Y-53408340D01*
X49749167Y-53210114D01*
X49749166Y-53210112D01*
X49705624Y-53147928D01*
X49705624Y-53147927D01*
X49145462Y-53708089D01*
X49128425Y-53644507D01*
X49062599Y-53530493D01*
X48969507Y-53437401D01*
X48855493Y-53371575D01*
X48791909Y-53354537D01*
X49352071Y-52794374D01*
X49289887Y-52750833D01*
X49091659Y-52658398D01*
X49091650Y-52658394D01*
X48880394Y-52601789D01*
X48880384Y-52601787D01*
X48662501Y-52582725D01*
X48662499Y-52582725D01*
X48444615Y-52601787D01*
X48444605Y-52601789D01*
X48233349Y-52658394D01*
X48233340Y-52658398D01*
X48035113Y-52750833D01*
X47972928Y-52794374D01*
X48533091Y-53354537D01*
X48469507Y-53371575D01*
X48355493Y-53437401D01*
X48262401Y-53530493D01*
X48196575Y-53644507D01*
X48179537Y-53708091D01*
X47619374Y-53147928D01*
X47575833Y-53210113D01*
X47483398Y-53408340D01*
X47483394Y-53408349D01*
X47426789Y-53619605D01*
X47426787Y-53619615D01*
X47407725Y-53837499D01*
X47407725Y-53837500D01*
X47426787Y-54055384D01*
X47426789Y-54055394D01*
X47483394Y-54266650D01*
X47483398Y-54266659D01*
X47575833Y-54464887D01*
X47619374Y-54527071D01*
X48179537Y-53966908D01*
X48196575Y-54030493D01*
X48262401Y-54144507D01*
X48355493Y-54237599D01*
X48469507Y-54303425D01*
X48533090Y-54320462D01*
X47972927Y-54880624D01*
X48035112Y-54924166D01*
X48233340Y-55016601D01*
X48233349Y-55016605D01*
X48444605Y-55073210D01*
X48444615Y-55073212D01*
X48662499Y-55092275D01*
X48662501Y-55092275D01*
X48880384Y-55073212D01*
X48880394Y-55073210D01*
X49091650Y-55016605D01*
X49091664Y-55016600D01*
X49289883Y-54924169D01*
X49289885Y-54924168D01*
X49352071Y-54880624D01*
X48791910Y-54320462D01*
X48855493Y-54303425D01*
X48969507Y-54237599D01*
X49062599Y-54144507D01*
X49128425Y-54030493D01*
X49145462Y-53966909D01*
X49721603Y-54543049D01*
X49729860Y-54544709D01*
X49780043Y-54593324D01*
X49795977Y-54661353D01*
X49792374Y-54684911D01*
X49752136Y-54843804D01*
X49752134Y-54843816D01*
X49731943Y-55087494D01*
X49731943Y-55087505D01*
X49752134Y-55331183D01*
X49752136Y-55331195D01*
X49812163Y-55568234D01*
X49910388Y-55792166D01*
X50044132Y-55996878D01*
X50209742Y-56176777D01*
X50209748Y-56176783D01*
X50210856Y-56177645D01*
X50211192Y-56178112D01*
X50213522Y-56180257D01*
X50213080Y-56180736D01*
X50251670Y-56234354D01*
X50255346Y-56304127D01*
X50220716Y-56364811D01*
X50158776Y-56397139D01*
X50134696Y-56399500D01*
X50086670Y-56399500D01*
X50086654Y-56399499D01*
X50079058Y-56399499D01*
X49920943Y-56399499D01*
X49844579Y-56419961D01*
X49768214Y-56440423D01*
X49768209Y-56440426D01*
X49631290Y-56519475D01*
X49631282Y-56519481D01*
X47183530Y-58967233D01*
X47122207Y-59000718D01*
X47063756Y-58999327D01*
X46935413Y-58964938D01*
X46935403Y-58964936D01*
X46700001Y-58944341D01*
X46699999Y-58944341D01*
X46464596Y-58964936D01*
X46464586Y-58964938D01*
X46236344Y-59026094D01*
X46236335Y-59026098D01*
X46022171Y-59125964D01*
X46022169Y-59125965D01*
X45828597Y-59261505D01*
X45661505Y-59428597D01*
X45525965Y-59622169D01*
X45525964Y-59622171D01*
X45426098Y-59836335D01*
X45426094Y-59836344D01*
X45364938Y-60064586D01*
X45364936Y-60064596D01*
X45344341Y-60299999D01*
X45344341Y-60300000D01*
X44000500Y-60300000D01*
X44000500Y-36250005D01*
X46097368Y-36250005D01*
X46117860Y-36497316D01*
X46117862Y-36497328D01*
X46178784Y-36737904D01*
X46278474Y-36965173D01*
X46378369Y-37118074D01*
X46987476Y-36508968D01*
X47010684Y-36564996D01*
X47083461Y-36673913D01*
X47176087Y-36766539D01*
X47285004Y-36839316D01*
X47341030Y-36862522D01*
X46731725Y-37471827D01*
X46778140Y-37507954D01*
X46778143Y-37507956D01*
X46996393Y-37626066D01*
X46996407Y-37626072D01*
X47231123Y-37706651D01*
X47475915Y-37747500D01*
X47724085Y-37747500D01*
X47968876Y-37706651D01*
X48203592Y-37626072D01*
X48203606Y-37626066D01*
X48421858Y-37507955D01*
X48421864Y-37507950D01*
X48468273Y-37471828D01*
X48468274Y-37471826D01*
X47858970Y-36862522D01*
X47914996Y-36839316D01*
X48023913Y-36766539D01*
X48116539Y-36673913D01*
X48189316Y-36564996D01*
X48212522Y-36508969D01*
X48821628Y-37118075D01*
X48921524Y-36965175D01*
X49021215Y-36737904D01*
X49082137Y-36497328D01*
X49082139Y-36497316D01*
X49102632Y-36250005D01*
X49102632Y-36249994D01*
X49082139Y-36002683D01*
X49082137Y-36002671D01*
X49021215Y-35762095D01*
X48921526Y-35534829D01*
X48821628Y-35381923D01*
X48212522Y-35991029D01*
X48189316Y-35935004D01*
X48116539Y-35826087D01*
X48023913Y-35733461D01*
X47914996Y-35660684D01*
X47858969Y-35637477D01*
X48468273Y-35028171D01*
X48421858Y-34992044D01*
X48421856Y-34992043D01*
X48203606Y-34873933D01*
X48203592Y-34873927D01*
X47968876Y-34793348D01*
X47724085Y-34752500D01*
X47475915Y-34752500D01*
X47231123Y-34793348D01*
X46996407Y-34873927D01*
X46996393Y-34873933D01*
X46778142Y-34992044D01*
X46731725Y-35028171D01*
X47341031Y-35637477D01*
X47285004Y-35660684D01*
X47176087Y-35733461D01*
X47083461Y-35826087D01*
X47010684Y-35935004D01*
X46987477Y-35991031D01*
X46378369Y-35381923D01*
X46278474Y-35534826D01*
X46178784Y-35762095D01*
X46117862Y-36002671D01*
X46117860Y-36002683D01*
X46097368Y-36249994D01*
X46097368Y-36250005D01*
X44000500Y-36250005D01*
X44000500Y-26406286D01*
X44949500Y-26406286D01*
X44982753Y-26616239D01*
X45048444Y-26818414D01*
X45144951Y-27007820D01*
X45269890Y-27179786D01*
X45420213Y-27330109D01*
X45592179Y-27455048D01*
X45592181Y-27455049D01*
X45592184Y-27455051D01*
X45781588Y-27551557D01*
X45983757Y-27617246D01*
X46193713Y-27650500D01*
X46193714Y-27650500D01*
X46406286Y-27650500D01*
X46406287Y-27650500D01*
X46616243Y-27617246D01*
X46818412Y-27551557D01*
X47007816Y-27455051D01*
X47029789Y-27439086D01*
X47179786Y-27330109D01*
X47179788Y-27330106D01*
X47179792Y-27330104D01*
X47330104Y-27179792D01*
X47330106Y-27179788D01*
X47330109Y-27179786D01*
X47455048Y-27007820D01*
X47455047Y-27007820D01*
X47455051Y-27007816D01*
X47551557Y-26818412D01*
X47617246Y-26616243D01*
X47650500Y-26406287D01*
X47650500Y-26406286D01*
X99449500Y-26406286D01*
X99482753Y-26616239D01*
X99548444Y-26818414D01*
X99644951Y-27007820D01*
X99769890Y-27179786D01*
X99920213Y-27330109D01*
X100092179Y-27455048D01*
X100092181Y-27455049D01*
X100092184Y-27455051D01*
X100281588Y-27551557D01*
X100483757Y-27617246D01*
X100693713Y-27650500D01*
X100693714Y-27650500D01*
X100906286Y-27650500D01*
X100906287Y-27650500D01*
X101116243Y-27617246D01*
X101318412Y-27551557D01*
X101507816Y-27455051D01*
X101529789Y-27439086D01*
X101679786Y-27330109D01*
X101679788Y-27330106D01*
X101679792Y-27330104D01*
X101830104Y-27179792D01*
X101830106Y-27179788D01*
X101830109Y-27179786D01*
X101955048Y-27007820D01*
X101955047Y-27007820D01*
X101955051Y-27007816D01*
X102051557Y-26818412D01*
X102117246Y-26616243D01*
X102150500Y-26406287D01*
X102150500Y-26193713D01*
X102117246Y-25983757D01*
X102051557Y-25781588D01*
X101955051Y-25592184D01*
X101955049Y-25592181D01*
X101955048Y-25592179D01*
X101830109Y-25420213D01*
X101679786Y-25269890D01*
X101507820Y-25144951D01*
X101318414Y-25048444D01*
X101318413Y-25048443D01*
X101318412Y-25048443D01*
X101116243Y-24982754D01*
X101116241Y-24982753D01*
X101116240Y-24982753D01*
X100954957Y-24957208D01*
X100906287Y-24949500D01*
X100693713Y-24949500D01*
X100645042Y-24957208D01*
X100483760Y-24982753D01*
X100281585Y-25048444D01*
X100092179Y-25144951D01*
X99920213Y-25269890D01*
X99769890Y-25420213D01*
X99644951Y-25592179D01*
X99548444Y-25781585D01*
X99482753Y-25983760D01*
X99449500Y-26193713D01*
X99449500Y-26406286D01*
X47650500Y-26406286D01*
X47650500Y-26193713D01*
X47617246Y-25983757D01*
X47551557Y-25781588D01*
X47455051Y-25592184D01*
X47455049Y-25592181D01*
X47455048Y-25592179D01*
X47330109Y-25420213D01*
X47179786Y-25269890D01*
X47007820Y-25144951D01*
X46818414Y-25048444D01*
X46818413Y-25048443D01*
X46818412Y-25048443D01*
X46616243Y-24982754D01*
X46616241Y-24982753D01*
X46616240Y-24982753D01*
X46454957Y-24957208D01*
X46406287Y-24949500D01*
X46193713Y-24949500D01*
X46145042Y-24957208D01*
X45983760Y-24982753D01*
X45781585Y-25048444D01*
X45592179Y-25144951D01*
X45420213Y-25269890D01*
X45269890Y-25420213D01*
X45144951Y-25592179D01*
X45048444Y-25781585D01*
X44982753Y-25983760D01*
X44949500Y-26193713D01*
X44949500Y-26406286D01*
X44000500Y-26406286D01*
X44000500Y-24124500D01*
X44020185Y-24057461D01*
X44072989Y-24011706D01*
X44124500Y-24000500D01*
X102875500Y-24000500D01*
X102942539Y-24020185D01*
G37*
G04 #@! TD.AperFunction*
M02*
