G04 #@! TF.GenerationSoftware,KiCad,Pcbnew,8.0.0*
G04 #@! TF.CreationDate,2024-09-20T11:38:47+02:00*
G04 #@! TF.ProjectId,counter-timer,636f756e-7465-4722-9d74-696d65722e6b,rev?*
G04 #@! TF.SameCoordinates,Original*
G04 #@! TF.FileFunction,Legend,Bot*
G04 #@! TF.FilePolarity,Positive*
%FSLAX46Y46*%
G04 Gerber Fmt 4.6, Leading zero omitted, Abs format (unit mm)*
G04 Created by KiCad (PCBNEW 8.0.0) date 2024-09-20 11:38:47*
%MOMM*%
%LPD*%
G01*
G04 APERTURE LIST*
%ADD10C,0.100000*%
%ADD11C,0.200000*%
%ADD12C,2.200000*%
%ADD13C,1.447000*%
%ADD14C,2.070000*%
%ADD15C,1.500000*%
%ADD16C,1.950000*%
%ADD17C,1.540000*%
%ADD18C,1.400000*%
%ADD19R,1.100000X1.100000*%
%ADD20C,1.100000*%
%ADD21R,1.700000X1.700000*%
%ADD22O,1.700000X1.700000*%
%ADD23C,1.995000*%
G04 APERTURE END LIST*
D10*
X88025000Y-59500000D02*
X88025000Y-59500000D01*
D11*
X81075000Y-53500000D02*
X81075000Y-53500000D01*
X81075000Y-53500000D02*
X81075000Y-53500000D01*
X80975000Y-53500000D02*
X80975000Y-53500000D01*
D10*
X88025000Y-47500000D02*
X88025000Y-47500000D01*
X88025000Y-47500000D02*
G75*
G02*
X88025000Y-59500000I0J-6000000D01*
G01*
D11*
X80975000Y-53500000D02*
G75*
G02*
X81075000Y-53500000I50000J0D01*
G01*
X81075000Y-53500000D02*
G75*
G02*
X80975000Y-53500000I-50000J0D01*
G01*
X81075000Y-53500000D02*
G75*
G02*
X80975000Y-53500000I-50000J0D01*
G01*
D10*
X88025000Y-59500000D02*
G75*
G02*
X88025000Y-47500000I0J6000000D01*
G01*
X45100000Y-27800000D02*
X101900000Y-27800000D01*
X45100000Y-44700000D02*
X45100000Y-27800000D01*
X101900000Y-27800000D02*
X101900000Y-44700000D01*
X101900000Y-44700000D02*
X45100000Y-44700000D01*
%LPC*%
D12*
X100800000Y-26300000D03*
X46300000Y-26300000D03*
X100700000Y-67200000D03*
X46300000Y-67200000D03*
D13*
X98000000Y-55000000D03*
X98000000Y-53000000D03*
X98000000Y-51000000D03*
X100500000Y-55000000D03*
X100500000Y-53000000D03*
X100500000Y-51000000D03*
D14*
X99250000Y-58000000D03*
X99250000Y-48000000D03*
D15*
X48662500Y-49337500D03*
X48662500Y-53837500D03*
D16*
X51212500Y-48087500D03*
X51212500Y-55087500D03*
D17*
X90750000Y-61940000D03*
X90750000Y-68440000D03*
X86250000Y-61940000D03*
X86250000Y-68440000D03*
X80750000Y-61940000D03*
X80750000Y-68440000D03*
X76250000Y-61940000D03*
X76250000Y-68440000D03*
X70750000Y-61940000D03*
X70750000Y-68440000D03*
X66250000Y-61940000D03*
X66250000Y-68440000D03*
X60750000Y-61940000D03*
X60750000Y-68440000D03*
X56250000Y-61940000D03*
X56250000Y-68440000D03*
D18*
X84775000Y-53500000D03*
X91275000Y-53500000D03*
D19*
X82580000Y-28500000D03*
D20*
X80040000Y-28500000D03*
X77500000Y-28500000D03*
X74960000Y-28500000D03*
X72420000Y-28500000D03*
X69880000Y-28500000D03*
X67340000Y-28500000D03*
X64800000Y-28500000D03*
X64800000Y-38660000D03*
X67340000Y-38660000D03*
X69880000Y-38660000D03*
X72420000Y-38660000D03*
X74960000Y-38660000D03*
X77500000Y-38660000D03*
X80040000Y-38660000D03*
X82580000Y-38660000D03*
D21*
X46700000Y-62840000D03*
D22*
X46700000Y-60300000D03*
X49240000Y-62840000D03*
X49240000Y-60300000D03*
X51780000Y-62840000D03*
X51780000Y-60300000D03*
D23*
X99400000Y-36250000D03*
X47600000Y-36250000D03*
%LPD*%
M02*
