M48
; DRILL file {KiCad 8.0.0} date 2024-09-20T11:38:56+0200
; FORMAT={-:-/ absolute / metric / decimal}
; #@! TF.CreationDate,2024-09-20T11:38:56+02:00
; #@! TF.GenerationSoftware,Kicad,Pcbnew,8.0.0
; #@! TF.FileFunction,Plated,1,2,PTH
FMAT,2
METRIC
; #@! TA.AperFunction,Plated,PTH,ViaDrill
T1C0.300
; #@! TA.AperFunction,Plated,PTH,ComponentDrill
T2C0.700
; #@! TA.AperFunction,Plated,PTH,ComponentDrill
T3C0.900
; #@! TA.AperFunction,Plated,PTH,ComponentDrill
T4C0.930
; #@! TA.AperFunction,Plated,PTH,ComponentDrill
T5C0.990
; #@! TA.AperFunction,Plated,PTH,ComponentDrill
T6C1.000
; #@! TA.AperFunction,Plated,PTH,ComponentDrill
T7C1.300
; #@! TA.AperFunction,Plated,PTH,ComponentDrill
T8C1.330
; #@! TA.AperFunction,Plated,PTH,ComponentDrill
T9C1.380
%
G90
G05
T1
X56.7Y-51.6
X58.0Y-49.7
X63.725Y-57.513
X64.524Y-57.476
X64.6Y-51.6
X65.356Y-57.458
X66.1Y-49.1
X67.291Y-54.009
X68.0Y-51.6
X68.216Y-54.084
X69.29Y-54.31
X74.4Y-55.8
X76.0Y-45.0
X78.0Y-45.0
X79.5Y-45.0
X80.4Y-47.2
X80.4Y-52.7
X84.3Y-48.4
T2
X64.8Y-28.5
X64.8Y-38.66
X67.34Y-28.5
X67.34Y-38.66
X69.88Y-28.5
X69.88Y-38.66
X72.42Y-28.5
X72.42Y-38.66
X74.96Y-28.5
X74.96Y-38.66
X77.5Y-28.5
X77.5Y-38.66
X80.04Y-28.5
X80.04Y-38.66
X82.58Y-28.5
X82.58Y-38.66
T3
X84.775Y-53.5
X91.275Y-53.5
T4
X98.0Y-51.0
X98.0Y-53.0
X98.0Y-55.0
X100.5Y-51.0
X100.5Y-53.0
X100.5Y-55.0
T5
X56.25Y-61.94
X56.25Y-68.44
X60.75Y-61.94
X60.75Y-68.44
X66.25Y-61.94
X66.25Y-68.44
X70.75Y-61.94
X70.75Y-68.44
X76.25Y-61.94
X76.25Y-68.44
X80.75Y-61.94
X80.75Y-68.44
X86.25Y-61.94
X86.25Y-68.44
X90.75Y-61.94
X90.75Y-68.44
T6
X46.7Y-60.3
X46.7Y-62.84
X48.662Y-49.337
X48.662Y-53.837
X49.24Y-60.3
X49.24Y-62.84
X51.78Y-60.3
X51.78Y-62.84
T7
X51.212Y-48.087
X51.212Y-55.087
T8
X47.6Y-36.25
X99.4Y-36.25
T9
X99.25Y-48.0
X99.25Y-58.0
M30
