%TF.GenerationSoftware,KiCad,Pcbnew,8.0.0*%
%TF.CreationDate,2024-09-20T11:38:57+02:00*%
%TF.ProjectId,counter-timer,636f756e-7465-4722-9d74-696d65722e6b,rev?*%
%TF.SameCoordinates,Original*%
%TF.FileFunction,Drillmap*%
%TF.FilePolarity,Positive*%
%FSLAX45Y45*%
G04 Gerber Fmt 4.5, Leading zero omitted, Abs format (unit mm)*
G04 Created by KiCad (PCBNEW 8.0.0) date 2024-09-20 11:38:57*
%MOMM*%
%LPD*%
G01*
G04 APERTURE LIST*
%ADD10C,0.050000*%
%ADD11C,0.200000*%
%ADD12C,0.220000*%
G04 APERTURE END LIST*
D10*
X4350000Y-2350000D02*
X10350000Y-2350000D01*
X10350000Y-7000000D01*
X4350000Y-7000000D01*
X4350000Y-2350000D01*
D11*
D12*
X4520000Y-2520000D02*
X4740000Y-2740000D01*
X4740000Y-2520000D02*
X4520000Y-2740000D01*
X4520000Y-6610000D02*
X4740000Y-6830000D01*
X4740000Y-6610000D02*
X4520000Y-6830000D01*
X9960000Y-6610000D02*
X10180000Y-6830000D01*
X10180000Y-6610000D02*
X9960000Y-6830000D01*
X9970000Y-2520000D02*
X10190000Y-2740000D01*
X10190000Y-2520000D02*
X9970000Y-2740000D01*
D11*
X4608277Y-7313984D02*
X4608277Y-7113984D01*
X4608277Y-7113984D02*
X4655896Y-7113984D01*
X4655896Y-7113984D02*
X4684467Y-7123508D01*
X4684467Y-7123508D02*
X4703515Y-7142555D01*
X4703515Y-7142555D02*
X4713039Y-7161603D01*
X4713039Y-7161603D02*
X4722563Y-7199698D01*
X4722563Y-7199698D02*
X4722563Y-7228269D01*
X4722563Y-7228269D02*
X4713039Y-7266365D01*
X4713039Y-7266365D02*
X4703515Y-7285412D01*
X4703515Y-7285412D02*
X4684467Y-7304460D01*
X4684467Y-7304460D02*
X4655896Y-7313984D01*
X4655896Y-7313984D02*
X4608277Y-7313984D01*
X4808277Y-7313984D02*
X4808277Y-7180650D01*
X4808277Y-7218746D02*
X4817801Y-7199698D01*
X4817801Y-7199698D02*
X4827324Y-7190174D01*
X4827324Y-7190174D02*
X4846372Y-7180650D01*
X4846372Y-7180650D02*
X4865420Y-7180650D01*
X4932086Y-7313984D02*
X4932086Y-7180650D01*
X4932086Y-7113984D02*
X4922563Y-7123508D01*
X4922563Y-7123508D02*
X4932086Y-7133031D01*
X4932086Y-7133031D02*
X4941610Y-7123508D01*
X4941610Y-7123508D02*
X4932086Y-7113984D01*
X4932086Y-7113984D02*
X4932086Y-7133031D01*
X5055896Y-7313984D02*
X5036848Y-7304460D01*
X5036848Y-7304460D02*
X5027324Y-7285412D01*
X5027324Y-7285412D02*
X5027324Y-7113984D01*
X5160658Y-7313984D02*
X5141610Y-7304460D01*
X5141610Y-7304460D02*
X5132086Y-7285412D01*
X5132086Y-7285412D02*
X5132086Y-7113984D01*
X5389229Y-7313984D02*
X5389229Y-7113984D01*
X5389229Y-7113984D02*
X5455896Y-7256841D01*
X5455896Y-7256841D02*
X5522563Y-7113984D01*
X5522563Y-7113984D02*
X5522563Y-7313984D01*
X5703515Y-7313984D02*
X5703515Y-7209222D01*
X5703515Y-7209222D02*
X5693991Y-7190174D01*
X5693991Y-7190174D02*
X5674943Y-7180650D01*
X5674943Y-7180650D02*
X5636848Y-7180650D01*
X5636848Y-7180650D02*
X5617801Y-7190174D01*
X5703515Y-7304460D02*
X5684467Y-7313984D01*
X5684467Y-7313984D02*
X5636848Y-7313984D01*
X5636848Y-7313984D02*
X5617801Y-7304460D01*
X5617801Y-7304460D02*
X5608277Y-7285412D01*
X5608277Y-7285412D02*
X5608277Y-7266365D01*
X5608277Y-7266365D02*
X5617801Y-7247317D01*
X5617801Y-7247317D02*
X5636848Y-7237793D01*
X5636848Y-7237793D02*
X5684467Y-7237793D01*
X5684467Y-7237793D02*
X5703515Y-7228269D01*
X5798753Y-7180650D02*
X5798753Y-7380650D01*
X5798753Y-7190174D02*
X5817801Y-7180650D01*
X5817801Y-7180650D02*
X5855896Y-7180650D01*
X5855896Y-7180650D02*
X5874943Y-7190174D01*
X5874943Y-7190174D02*
X5884467Y-7199698D01*
X5884467Y-7199698D02*
X5893991Y-7218746D01*
X5893991Y-7218746D02*
X5893991Y-7275888D01*
X5893991Y-7275888D02*
X5884467Y-7294936D01*
X5884467Y-7294936D02*
X5874943Y-7304460D01*
X5874943Y-7304460D02*
X5855896Y-7313984D01*
X5855896Y-7313984D02*
X5817801Y-7313984D01*
X5817801Y-7313984D02*
X5798753Y-7304460D01*
X5979705Y-7294936D02*
X5989229Y-7304460D01*
X5989229Y-7304460D02*
X5979705Y-7313984D01*
X5979705Y-7313984D02*
X5970182Y-7304460D01*
X5970182Y-7304460D02*
X5979705Y-7294936D01*
X5979705Y-7294936D02*
X5979705Y-7313984D01*
X5979705Y-7190174D02*
X5989229Y-7199698D01*
X5989229Y-7199698D02*
X5979705Y-7209222D01*
X5979705Y-7209222D02*
X5970182Y-7199698D01*
X5970182Y-7199698D02*
X5979705Y-7190174D01*
X5979705Y-7190174D02*
X5979705Y-7209222D01*
X4147500Y-7542500D02*
X4347500Y-7742500D01*
X4347500Y-7542500D02*
X4147500Y-7742500D01*
X4598753Y-7553031D02*
X4608277Y-7543508D01*
X4608277Y-7543508D02*
X4627324Y-7533984D01*
X4627324Y-7533984D02*
X4674944Y-7533984D01*
X4674944Y-7533984D02*
X4693991Y-7543508D01*
X4693991Y-7543508D02*
X4703515Y-7553031D01*
X4703515Y-7553031D02*
X4713039Y-7572079D01*
X4713039Y-7572079D02*
X4713039Y-7591127D01*
X4713039Y-7591127D02*
X4703515Y-7619698D01*
X4703515Y-7619698D02*
X4589229Y-7733984D01*
X4589229Y-7733984D02*
X4713039Y-7733984D01*
X4798753Y-7714936D02*
X4808277Y-7724460D01*
X4808277Y-7724460D02*
X4798753Y-7733984D01*
X4798753Y-7733984D02*
X4789229Y-7724460D01*
X4789229Y-7724460D02*
X4798753Y-7714936D01*
X4798753Y-7714936D02*
X4798753Y-7733984D01*
X4884467Y-7553031D02*
X4893991Y-7543508D01*
X4893991Y-7543508D02*
X4913039Y-7533984D01*
X4913039Y-7533984D02*
X4960658Y-7533984D01*
X4960658Y-7533984D02*
X4979705Y-7543508D01*
X4979705Y-7543508D02*
X4989229Y-7553031D01*
X4989229Y-7553031D02*
X4998753Y-7572079D01*
X4998753Y-7572079D02*
X4998753Y-7591127D01*
X4998753Y-7591127D02*
X4989229Y-7619698D01*
X4989229Y-7619698D02*
X4874944Y-7733984D01*
X4874944Y-7733984D02*
X4998753Y-7733984D01*
X5122563Y-7533984D02*
X5141610Y-7533984D01*
X5141610Y-7533984D02*
X5160658Y-7543508D01*
X5160658Y-7543508D02*
X5170182Y-7553031D01*
X5170182Y-7553031D02*
X5179705Y-7572079D01*
X5179705Y-7572079D02*
X5189229Y-7610174D01*
X5189229Y-7610174D02*
X5189229Y-7657793D01*
X5189229Y-7657793D02*
X5179705Y-7695888D01*
X5179705Y-7695888D02*
X5170182Y-7714936D01*
X5170182Y-7714936D02*
X5160658Y-7724460D01*
X5160658Y-7724460D02*
X5141610Y-7733984D01*
X5141610Y-7733984D02*
X5122563Y-7733984D01*
X5122563Y-7733984D02*
X5103515Y-7724460D01*
X5103515Y-7724460D02*
X5093991Y-7714936D01*
X5093991Y-7714936D02*
X5084467Y-7695888D01*
X5084467Y-7695888D02*
X5074944Y-7657793D01*
X5074944Y-7657793D02*
X5074944Y-7610174D01*
X5074944Y-7610174D02*
X5084467Y-7572079D01*
X5084467Y-7572079D02*
X5093991Y-7553031D01*
X5093991Y-7553031D02*
X5103515Y-7543508D01*
X5103515Y-7543508D02*
X5122563Y-7533984D01*
X5313039Y-7533984D02*
X5332086Y-7533984D01*
X5332086Y-7533984D02*
X5351134Y-7543508D01*
X5351134Y-7543508D02*
X5360658Y-7553031D01*
X5360658Y-7553031D02*
X5370182Y-7572079D01*
X5370182Y-7572079D02*
X5379705Y-7610174D01*
X5379705Y-7610174D02*
X5379705Y-7657793D01*
X5379705Y-7657793D02*
X5370182Y-7695888D01*
X5370182Y-7695888D02*
X5360658Y-7714936D01*
X5360658Y-7714936D02*
X5351134Y-7724460D01*
X5351134Y-7724460D02*
X5332086Y-7733984D01*
X5332086Y-7733984D02*
X5313039Y-7733984D01*
X5313039Y-7733984D02*
X5293991Y-7724460D01*
X5293991Y-7724460D02*
X5284467Y-7714936D01*
X5284467Y-7714936D02*
X5274944Y-7695888D01*
X5274944Y-7695888D02*
X5265420Y-7657793D01*
X5265420Y-7657793D02*
X5265420Y-7610174D01*
X5265420Y-7610174D02*
X5274944Y-7572079D01*
X5274944Y-7572079D02*
X5284467Y-7553031D01*
X5284467Y-7553031D02*
X5293991Y-7543508D01*
X5293991Y-7543508D02*
X5313039Y-7533984D01*
X5465420Y-7733984D02*
X5465420Y-7600650D01*
X5465420Y-7619698D02*
X5474944Y-7610174D01*
X5474944Y-7610174D02*
X5493991Y-7600650D01*
X5493991Y-7600650D02*
X5522563Y-7600650D01*
X5522563Y-7600650D02*
X5541610Y-7610174D01*
X5541610Y-7610174D02*
X5551134Y-7629222D01*
X5551134Y-7629222D02*
X5551134Y-7733984D01*
X5551134Y-7629222D02*
X5560658Y-7610174D01*
X5560658Y-7610174D02*
X5579705Y-7600650D01*
X5579705Y-7600650D02*
X5608277Y-7600650D01*
X5608277Y-7600650D02*
X5627324Y-7610174D01*
X5627324Y-7610174D02*
X5636848Y-7629222D01*
X5636848Y-7629222D02*
X5636848Y-7733984D01*
X5732086Y-7733984D02*
X5732086Y-7600650D01*
X5732086Y-7619698D02*
X5741610Y-7610174D01*
X5741610Y-7610174D02*
X5760658Y-7600650D01*
X5760658Y-7600650D02*
X5789229Y-7600650D01*
X5789229Y-7600650D02*
X5808277Y-7610174D01*
X5808277Y-7610174D02*
X5817801Y-7629222D01*
X5817801Y-7629222D02*
X5817801Y-7733984D01*
X5817801Y-7629222D02*
X5827324Y-7610174D01*
X5827324Y-7610174D02*
X5846372Y-7600650D01*
X5846372Y-7600650D02*
X5874943Y-7600650D01*
X5874943Y-7600650D02*
X5893991Y-7610174D01*
X5893991Y-7610174D02*
X5903515Y-7629222D01*
X5903515Y-7629222D02*
X5903515Y-7733984D01*
X6293991Y-7524460D02*
X6122563Y-7781603D01*
X6551134Y-7533984D02*
X6570182Y-7533984D01*
X6570182Y-7533984D02*
X6589229Y-7543508D01*
X6589229Y-7543508D02*
X6598753Y-7553031D01*
X6598753Y-7553031D02*
X6608277Y-7572079D01*
X6608277Y-7572079D02*
X6617801Y-7610174D01*
X6617801Y-7610174D02*
X6617801Y-7657793D01*
X6617801Y-7657793D02*
X6608277Y-7695888D01*
X6608277Y-7695888D02*
X6598753Y-7714936D01*
X6598753Y-7714936D02*
X6589229Y-7724460D01*
X6589229Y-7724460D02*
X6570182Y-7733984D01*
X6570182Y-7733984D02*
X6551134Y-7733984D01*
X6551134Y-7733984D02*
X6532086Y-7724460D01*
X6532086Y-7724460D02*
X6522563Y-7714936D01*
X6522563Y-7714936D02*
X6513039Y-7695888D01*
X6513039Y-7695888D02*
X6503515Y-7657793D01*
X6503515Y-7657793D02*
X6503515Y-7610174D01*
X6503515Y-7610174D02*
X6513039Y-7572079D01*
X6513039Y-7572079D02*
X6522563Y-7553031D01*
X6522563Y-7553031D02*
X6532086Y-7543508D01*
X6532086Y-7543508D02*
X6551134Y-7533984D01*
X6703515Y-7714936D02*
X6713039Y-7724460D01*
X6713039Y-7724460D02*
X6703515Y-7733984D01*
X6703515Y-7733984D02*
X6693991Y-7724460D01*
X6693991Y-7724460D02*
X6703515Y-7714936D01*
X6703515Y-7714936D02*
X6703515Y-7733984D01*
X6836848Y-7533984D02*
X6855896Y-7533984D01*
X6855896Y-7533984D02*
X6874944Y-7543508D01*
X6874944Y-7543508D02*
X6884467Y-7553031D01*
X6884467Y-7553031D02*
X6893991Y-7572079D01*
X6893991Y-7572079D02*
X6903515Y-7610174D01*
X6903515Y-7610174D02*
X6903515Y-7657793D01*
X6903515Y-7657793D02*
X6893991Y-7695888D01*
X6893991Y-7695888D02*
X6884467Y-7714936D01*
X6884467Y-7714936D02*
X6874944Y-7724460D01*
X6874944Y-7724460D02*
X6855896Y-7733984D01*
X6855896Y-7733984D02*
X6836848Y-7733984D01*
X6836848Y-7733984D02*
X6817801Y-7724460D01*
X6817801Y-7724460D02*
X6808277Y-7714936D01*
X6808277Y-7714936D02*
X6798753Y-7695888D01*
X6798753Y-7695888D02*
X6789229Y-7657793D01*
X6789229Y-7657793D02*
X6789229Y-7610174D01*
X6789229Y-7610174D02*
X6798753Y-7572079D01*
X6798753Y-7572079D02*
X6808277Y-7553031D01*
X6808277Y-7553031D02*
X6817801Y-7543508D01*
X6817801Y-7543508D02*
X6836848Y-7533984D01*
X7017801Y-7619698D02*
X6998753Y-7610174D01*
X6998753Y-7610174D02*
X6989229Y-7600650D01*
X6989229Y-7600650D02*
X6979706Y-7581603D01*
X6979706Y-7581603D02*
X6979706Y-7572079D01*
X6979706Y-7572079D02*
X6989229Y-7553031D01*
X6989229Y-7553031D02*
X6998753Y-7543508D01*
X6998753Y-7543508D02*
X7017801Y-7533984D01*
X7017801Y-7533984D02*
X7055896Y-7533984D01*
X7055896Y-7533984D02*
X7074944Y-7543508D01*
X7074944Y-7543508D02*
X7084467Y-7553031D01*
X7084467Y-7553031D02*
X7093991Y-7572079D01*
X7093991Y-7572079D02*
X7093991Y-7581603D01*
X7093991Y-7581603D02*
X7084467Y-7600650D01*
X7084467Y-7600650D02*
X7074944Y-7610174D01*
X7074944Y-7610174D02*
X7055896Y-7619698D01*
X7055896Y-7619698D02*
X7017801Y-7619698D01*
X7017801Y-7619698D02*
X6998753Y-7629222D01*
X6998753Y-7629222D02*
X6989229Y-7638746D01*
X6989229Y-7638746D02*
X6979706Y-7657793D01*
X6979706Y-7657793D02*
X6979706Y-7695888D01*
X6979706Y-7695888D02*
X6989229Y-7714936D01*
X6989229Y-7714936D02*
X6998753Y-7724460D01*
X6998753Y-7724460D02*
X7017801Y-7733984D01*
X7017801Y-7733984D02*
X7055896Y-7733984D01*
X7055896Y-7733984D02*
X7074944Y-7724460D01*
X7074944Y-7724460D02*
X7084467Y-7714936D01*
X7084467Y-7714936D02*
X7093991Y-7695888D01*
X7093991Y-7695888D02*
X7093991Y-7657793D01*
X7093991Y-7657793D02*
X7084467Y-7638746D01*
X7084467Y-7638746D02*
X7074944Y-7629222D01*
X7074944Y-7629222D02*
X7055896Y-7619698D01*
X7265420Y-7533984D02*
X7227325Y-7533984D01*
X7227325Y-7533984D02*
X7208277Y-7543508D01*
X7208277Y-7543508D02*
X7198753Y-7553031D01*
X7198753Y-7553031D02*
X7179706Y-7581603D01*
X7179706Y-7581603D02*
X7170182Y-7619698D01*
X7170182Y-7619698D02*
X7170182Y-7695888D01*
X7170182Y-7695888D02*
X7179706Y-7714936D01*
X7179706Y-7714936D02*
X7189229Y-7724460D01*
X7189229Y-7724460D02*
X7208277Y-7733984D01*
X7208277Y-7733984D02*
X7246372Y-7733984D01*
X7246372Y-7733984D02*
X7265420Y-7724460D01*
X7265420Y-7724460D02*
X7274944Y-7714936D01*
X7274944Y-7714936D02*
X7284467Y-7695888D01*
X7284467Y-7695888D02*
X7284467Y-7648269D01*
X7284467Y-7648269D02*
X7274944Y-7629222D01*
X7274944Y-7629222D02*
X7265420Y-7619698D01*
X7265420Y-7619698D02*
X7246372Y-7610174D01*
X7246372Y-7610174D02*
X7208277Y-7610174D01*
X7208277Y-7610174D02*
X7189229Y-7619698D01*
X7189229Y-7619698D02*
X7179706Y-7629222D01*
X7179706Y-7629222D02*
X7170182Y-7648269D01*
X7455896Y-7533984D02*
X7417801Y-7533984D01*
X7417801Y-7533984D02*
X7398753Y-7543508D01*
X7398753Y-7543508D02*
X7389229Y-7553031D01*
X7389229Y-7553031D02*
X7370182Y-7581603D01*
X7370182Y-7581603D02*
X7360658Y-7619698D01*
X7360658Y-7619698D02*
X7360658Y-7695888D01*
X7360658Y-7695888D02*
X7370182Y-7714936D01*
X7370182Y-7714936D02*
X7379706Y-7724460D01*
X7379706Y-7724460D02*
X7398753Y-7733984D01*
X7398753Y-7733984D02*
X7436848Y-7733984D01*
X7436848Y-7733984D02*
X7455896Y-7724460D01*
X7455896Y-7724460D02*
X7465420Y-7714936D01*
X7465420Y-7714936D02*
X7474944Y-7695888D01*
X7474944Y-7695888D02*
X7474944Y-7648269D01*
X7474944Y-7648269D02*
X7465420Y-7629222D01*
X7465420Y-7629222D02*
X7455896Y-7619698D01*
X7455896Y-7619698D02*
X7436848Y-7610174D01*
X7436848Y-7610174D02*
X7398753Y-7610174D01*
X7398753Y-7610174D02*
X7379706Y-7619698D01*
X7379706Y-7619698D02*
X7370182Y-7629222D01*
X7370182Y-7629222D02*
X7360658Y-7648269D01*
X7551134Y-7533984D02*
X7551134Y-7572079D01*
X7627325Y-7533984D02*
X7627325Y-7572079D01*
X7922563Y-7810174D02*
X7913039Y-7800650D01*
X7913039Y-7800650D02*
X7893991Y-7772079D01*
X7893991Y-7772079D02*
X7884468Y-7753031D01*
X7884468Y-7753031D02*
X7874944Y-7724460D01*
X7874944Y-7724460D02*
X7865420Y-7676841D01*
X7865420Y-7676841D02*
X7865420Y-7638746D01*
X7865420Y-7638746D02*
X7874944Y-7591127D01*
X7874944Y-7591127D02*
X7884468Y-7562555D01*
X7884468Y-7562555D02*
X7893991Y-7543508D01*
X7893991Y-7543508D02*
X7913039Y-7514936D01*
X7913039Y-7514936D02*
X7922563Y-7505412D01*
X8084468Y-7600650D02*
X8084468Y-7733984D01*
X8036848Y-7524460D02*
X7989229Y-7667317D01*
X7989229Y-7667317D02*
X8113039Y-7667317D01*
X8341610Y-7733984D02*
X8341610Y-7533984D01*
X8427325Y-7733984D02*
X8427325Y-7629222D01*
X8427325Y-7629222D02*
X8417801Y-7610174D01*
X8417801Y-7610174D02*
X8398753Y-7600650D01*
X8398753Y-7600650D02*
X8370182Y-7600650D01*
X8370182Y-7600650D02*
X8351134Y-7610174D01*
X8351134Y-7610174D02*
X8341610Y-7619698D01*
X8551134Y-7733984D02*
X8532087Y-7724460D01*
X8532087Y-7724460D02*
X8522563Y-7714936D01*
X8522563Y-7714936D02*
X8513039Y-7695888D01*
X8513039Y-7695888D02*
X8513039Y-7638746D01*
X8513039Y-7638746D02*
X8522563Y-7619698D01*
X8522563Y-7619698D02*
X8532087Y-7610174D01*
X8532087Y-7610174D02*
X8551134Y-7600650D01*
X8551134Y-7600650D02*
X8579706Y-7600650D01*
X8579706Y-7600650D02*
X8598753Y-7610174D01*
X8598753Y-7610174D02*
X8608277Y-7619698D01*
X8608277Y-7619698D02*
X8617801Y-7638746D01*
X8617801Y-7638746D02*
X8617801Y-7695888D01*
X8617801Y-7695888D02*
X8608277Y-7714936D01*
X8608277Y-7714936D02*
X8598753Y-7724460D01*
X8598753Y-7724460D02*
X8579706Y-7733984D01*
X8579706Y-7733984D02*
X8551134Y-7733984D01*
X8732087Y-7733984D02*
X8713039Y-7724460D01*
X8713039Y-7724460D02*
X8703515Y-7705412D01*
X8703515Y-7705412D02*
X8703515Y-7533984D01*
X8884468Y-7724460D02*
X8865420Y-7733984D01*
X8865420Y-7733984D02*
X8827325Y-7733984D01*
X8827325Y-7733984D02*
X8808277Y-7724460D01*
X8808277Y-7724460D02*
X8798753Y-7705412D01*
X8798753Y-7705412D02*
X8798753Y-7629222D01*
X8798753Y-7629222D02*
X8808277Y-7610174D01*
X8808277Y-7610174D02*
X8827325Y-7600650D01*
X8827325Y-7600650D02*
X8865420Y-7600650D01*
X8865420Y-7600650D02*
X8884468Y-7610174D01*
X8884468Y-7610174D02*
X8893992Y-7629222D01*
X8893992Y-7629222D02*
X8893992Y-7648269D01*
X8893992Y-7648269D02*
X8798753Y-7667317D01*
X8970182Y-7724460D02*
X8989230Y-7733984D01*
X8989230Y-7733984D02*
X9027325Y-7733984D01*
X9027325Y-7733984D02*
X9046373Y-7724460D01*
X9046373Y-7724460D02*
X9055896Y-7705412D01*
X9055896Y-7705412D02*
X9055896Y-7695888D01*
X9055896Y-7695888D02*
X9046373Y-7676841D01*
X9046373Y-7676841D02*
X9027325Y-7667317D01*
X9027325Y-7667317D02*
X8998753Y-7667317D01*
X8998753Y-7667317D02*
X8979706Y-7657793D01*
X8979706Y-7657793D02*
X8970182Y-7638746D01*
X8970182Y-7638746D02*
X8970182Y-7629222D01*
X8970182Y-7629222D02*
X8979706Y-7610174D01*
X8979706Y-7610174D02*
X8998753Y-7600650D01*
X8998753Y-7600650D02*
X9027325Y-7600650D01*
X9027325Y-7600650D02*
X9046373Y-7610174D01*
X9122563Y-7810174D02*
X9132087Y-7800650D01*
X9132087Y-7800650D02*
X9151134Y-7772079D01*
X9151134Y-7772079D02*
X9160658Y-7753031D01*
X9160658Y-7753031D02*
X9170182Y-7724460D01*
X9170182Y-7724460D02*
X9179706Y-7676841D01*
X9179706Y-7676841D02*
X9179706Y-7638746D01*
X9179706Y-7638746D02*
X9170182Y-7591127D01*
X9170182Y-7591127D02*
X9160658Y-7562555D01*
X9160658Y-7562555D02*
X9151134Y-7543508D01*
X9151134Y-7543508D02*
X9132087Y-7514936D01*
X9132087Y-7514936D02*
X9122563Y-7505412D01*
X9484468Y-7810174D02*
X9474944Y-7800650D01*
X9474944Y-7800650D02*
X9455896Y-7772079D01*
X9455896Y-7772079D02*
X9446373Y-7753031D01*
X9446373Y-7753031D02*
X9436849Y-7724460D01*
X9436849Y-7724460D02*
X9427325Y-7676841D01*
X9427325Y-7676841D02*
X9427325Y-7638746D01*
X9427325Y-7638746D02*
X9436849Y-7591127D01*
X9436849Y-7591127D02*
X9446373Y-7562555D01*
X9446373Y-7562555D02*
X9455896Y-7543508D01*
X9455896Y-7543508D02*
X9474944Y-7514936D01*
X9474944Y-7514936D02*
X9484468Y-7505412D01*
X9560658Y-7600650D02*
X9560658Y-7733984D01*
X9560658Y-7619698D02*
X9570182Y-7610174D01*
X9570182Y-7610174D02*
X9589230Y-7600650D01*
X9589230Y-7600650D02*
X9617801Y-7600650D01*
X9617801Y-7600650D02*
X9636849Y-7610174D01*
X9636849Y-7610174D02*
X9646373Y-7629222D01*
X9646373Y-7629222D02*
X9646373Y-7733984D01*
X9770182Y-7733984D02*
X9751134Y-7724460D01*
X9751134Y-7724460D02*
X9741611Y-7714936D01*
X9741611Y-7714936D02*
X9732087Y-7695888D01*
X9732087Y-7695888D02*
X9732087Y-7638746D01*
X9732087Y-7638746D02*
X9741611Y-7619698D01*
X9741611Y-7619698D02*
X9751134Y-7610174D01*
X9751134Y-7610174D02*
X9770182Y-7600650D01*
X9770182Y-7600650D02*
X9798754Y-7600650D01*
X9798754Y-7600650D02*
X9817801Y-7610174D01*
X9817801Y-7610174D02*
X9827325Y-7619698D01*
X9827325Y-7619698D02*
X9836849Y-7638746D01*
X9836849Y-7638746D02*
X9836849Y-7695888D01*
X9836849Y-7695888D02*
X9827325Y-7714936D01*
X9827325Y-7714936D02*
X9817801Y-7724460D01*
X9817801Y-7724460D02*
X9798754Y-7733984D01*
X9798754Y-7733984D02*
X9770182Y-7733984D01*
X9893992Y-7600650D02*
X9970182Y-7600650D01*
X9922563Y-7533984D02*
X9922563Y-7705412D01*
X9922563Y-7705412D02*
X9932087Y-7724460D01*
X9932087Y-7724460D02*
X9951134Y-7733984D01*
X9951134Y-7733984D02*
X9970182Y-7733984D01*
X10189230Y-7600650D02*
X10189230Y-7800650D01*
X10189230Y-7610174D02*
X10208277Y-7600650D01*
X10208277Y-7600650D02*
X10246373Y-7600650D01*
X10246373Y-7600650D02*
X10265420Y-7610174D01*
X10265420Y-7610174D02*
X10274944Y-7619698D01*
X10274944Y-7619698D02*
X10284468Y-7638746D01*
X10284468Y-7638746D02*
X10284468Y-7695888D01*
X10284468Y-7695888D02*
X10274944Y-7714936D01*
X10274944Y-7714936D02*
X10265420Y-7724460D01*
X10265420Y-7724460D02*
X10246373Y-7733984D01*
X10246373Y-7733984D02*
X10208277Y-7733984D01*
X10208277Y-7733984D02*
X10189230Y-7724460D01*
X10398754Y-7733984D02*
X10379706Y-7724460D01*
X10379706Y-7724460D02*
X10370182Y-7705412D01*
X10370182Y-7705412D02*
X10370182Y-7533984D01*
X10560658Y-7733984D02*
X10560658Y-7629222D01*
X10560658Y-7629222D02*
X10551135Y-7610174D01*
X10551135Y-7610174D02*
X10532087Y-7600650D01*
X10532087Y-7600650D02*
X10493992Y-7600650D01*
X10493992Y-7600650D02*
X10474944Y-7610174D01*
X10560658Y-7724460D02*
X10541611Y-7733984D01*
X10541611Y-7733984D02*
X10493992Y-7733984D01*
X10493992Y-7733984D02*
X10474944Y-7724460D01*
X10474944Y-7724460D02*
X10465420Y-7705412D01*
X10465420Y-7705412D02*
X10465420Y-7686365D01*
X10465420Y-7686365D02*
X10474944Y-7667317D01*
X10474944Y-7667317D02*
X10493992Y-7657793D01*
X10493992Y-7657793D02*
X10541611Y-7657793D01*
X10541611Y-7657793D02*
X10560658Y-7648269D01*
X10627325Y-7600650D02*
X10703515Y-7600650D01*
X10655896Y-7533984D02*
X10655896Y-7705412D01*
X10655896Y-7705412D02*
X10665420Y-7724460D01*
X10665420Y-7724460D02*
X10684468Y-7733984D01*
X10684468Y-7733984D02*
X10703515Y-7733984D01*
X10846373Y-7724460D02*
X10827325Y-7733984D01*
X10827325Y-7733984D02*
X10789230Y-7733984D01*
X10789230Y-7733984D02*
X10770182Y-7724460D01*
X10770182Y-7724460D02*
X10760658Y-7705412D01*
X10760658Y-7705412D02*
X10760658Y-7629222D01*
X10760658Y-7629222D02*
X10770182Y-7610174D01*
X10770182Y-7610174D02*
X10789230Y-7600650D01*
X10789230Y-7600650D02*
X10827325Y-7600650D01*
X10827325Y-7600650D02*
X10846373Y-7610174D01*
X10846373Y-7610174D02*
X10855896Y-7629222D01*
X10855896Y-7629222D02*
X10855896Y-7648269D01*
X10855896Y-7648269D02*
X10760658Y-7667317D01*
X11027325Y-7733984D02*
X11027325Y-7533984D01*
X11027325Y-7724460D02*
X11008277Y-7733984D01*
X11008277Y-7733984D02*
X10970182Y-7733984D01*
X10970182Y-7733984D02*
X10951135Y-7724460D01*
X10951135Y-7724460D02*
X10941611Y-7714936D01*
X10941611Y-7714936D02*
X10932087Y-7695888D01*
X10932087Y-7695888D02*
X10932087Y-7638746D01*
X10932087Y-7638746D02*
X10941611Y-7619698D01*
X10941611Y-7619698D02*
X10951135Y-7610174D01*
X10951135Y-7610174D02*
X10970182Y-7600650D01*
X10970182Y-7600650D02*
X11008277Y-7600650D01*
X11008277Y-7600650D02*
X11027325Y-7610174D01*
X11103516Y-7810174D02*
X11113039Y-7800650D01*
X11113039Y-7800650D02*
X11132087Y-7772079D01*
X11132087Y-7772079D02*
X11141611Y-7753031D01*
X11141611Y-7753031D02*
X11151135Y-7724460D01*
X11151135Y-7724460D02*
X11160658Y-7676841D01*
X11160658Y-7676841D02*
X11160658Y-7638746D01*
X11160658Y-7638746D02*
X11151135Y-7591127D01*
X11151135Y-7591127D02*
X11141611Y-7562555D01*
X11141611Y-7562555D02*
X11132087Y-7543508D01*
X11132087Y-7543508D02*
X11113039Y-7514936D01*
X11113039Y-7514936D02*
X11103516Y-7505412D01*
M02*
